<svg xmlns="http://www.w3.org/2000/svg" width="487" height="544" version="1.1">
    <path fill="#ef5ba1" d="M6.093316724512261 18.595791411667598 L9.040671371267672 11.239645026053768 L17.085388500020052 9.808597413579992 L471.1891141920205 7.14569993796249 L474.7454656627651 69.35096877573596 L2.614603014671593 69.42002298401785 L2.7106466209326303 15.804076812810672"/>
    <path fill="none" stroke="#000" stroke-width="2" d="M5.775712982661207 17.517290079593113 M4.5 18 C3.85730170811089 13.693782891874191, 8.461229722069886 10.554039287015076, 13.015554322092793 8.909467129811674 M4.932018022313423 18.69805514611435 C2.2251553341574257 9.560398300794489, 5.126267945071644 5.810478074283492, 11.952788136839317 10.781335975842012 M13.88280513851183 8.579012759041387 C112.08404474085917 7.762820932655712, 212.05763415485274 7.298893869121453, 471.32529508626624 7.655228533865254 M14.337814766022367 8.506320095313502 C184.80322371450455 10.820201997591843, 354.0687467150562 11.022393041458434, 472.20408710498907 8.342916298247337 M474.20176761345357 6.956198905054771 C473.4698869347776 21.616097149145936, 469.459521003245 34.91890908987323, 472.34758511215625 69.22245578113052 M473.3171366204639 7.843130406150157 C473.6187123273048 29.90475141843344, 473.63523127378284 51.31718698566401, 471.38166252807713 72.05857883884892 M473.01997641439465 72.46007465191573 C318.9934925673081 70.27714592467058, 162.76063750369255 68.81971012399046, 4.216169137992332 72.67025790801468 M472.6129518270247 71.93958109408196 C362.9054278115294 70.64236403981243, 253.79006490942567 70.65831459669418, 5.037711696462254 72.59391655412348 M3.113365241977135 73.70585921732727 C1.5431883054977957 53.57118978041799, 2.0598636177091687 42.34622295322842, 5.730179136811057 15.322592586374594 M3.2806397278992336 72.1647855319352 C4.80850861348139 59.828602090787896, 3.3083670766642532 46.29850980249611, 4.854199846991833 18.89570097552278"/>
    <path fill="#f99c41" d="M7.010426895282944 73.98199803669559 L471.26760582268327 71.60018132248224 L473.4473569992275 137.87668671610808 L6.559295851350907 133.51912171088625 L5.4252142360346625 69.41881130846613"/>
    <path fill="none" stroke="#000" stroke-width="2" d="M3.130790423307917 74.0316452777187 M4.832809494429278 71.86117553782574 C102.45971271493642 74.26849152046057, 203.26392297567435 73.44079547278628, 472.61848445349824 73.094148211849 M4.328124594731855 71.59324822171864 C146.88420727057462 73.0782591042628, 288.92155451564105 73.52008229361562, 472.5277897073716 71.9992595500402 M474.45349452303924 70.41766153117933 C471.19102482116784 93.88209616555105, 474.5477406318142 114.74374987022603, 470.80357504816277 138.70263720902585 M472.02350836083133 73.1884750846752 C471.42613959819937 97.60126438760562, 471.31508281160603 122.06611921261812, 473.4089759922084 135.4430778192691 M473.68002635682313 136.47318120140204 C323.4629926591411 136.88593094360587, 171.92587254236665 135.2614793659173, 5.059746184877087 136.3567912241383 M471.8658134926873 135.98753800559174 C288.19850866217206 136.67758950144938, 104.48507587079658 137.32586675468335, 4.121412437043795 136.2142750980447 M7.1964149883235216 135.47517198824926 C6.434032548029034 117.01872526144288, 5.9343242779060965 90.79731803724427, 6.697429034275411 70.62451723430277 M5.769053015978716 137.30839860862415 C3.0674923921975426 121.14917334134152, 3.771980238347547 107.70539497422705, 3.89901277008355 73.04035994151855"/>
    <path fill="#fff" d="M2.4806578139032354 136.80140475445805 L474.02593314844705 134.40629448121035 L475.23908979549486 189.4898931672862 L469.64542825458483 198.95410810303147 L461.68366795353575 198.87193720118958 L2.14803312145159 201.77371662884542 L5.990507166282623 138.17565174426272"/>
    <path fill="none" stroke="#000" stroke-width="2" d="M3.5503241918821002 134.3097322620904 M5.703242196908874 135.46519506248043 C130.72069880221676 138.07189447570192, 256.8347020907101 137.7124274567395, 472.95101968694854 136.1737522939961 M4.896246573091912 136.36471973073526 C106.02399062004662 135.73804532349033, 207.437312108132 135.86516743885136, 472.6153181516476 135.52862797397634 M471.23412525458696 135.2017881435012 C469.7182239054107 156.23993315647823, 473.68264881699935 172.2391417426348, 470.4727964764781 192.67468602286863 M472.4726052872029 135.38241054481188 C472.8058463151955 156.59181250197085, 473.980194556986 175.01867978203956, 472.6054360784772 190.61964555096114 M472.5 190 C474.96193220578135 197.3030797656373, 469.7619106822044 201.75063871641032, 462.41559669798806 198.34320522311629 M474.7618903040173 187.7107159070816 C470.5812118734299 194.97798602432647, 470.18458062988043 202.88829328416276, 464.64340471225614 199.58881181030335 M463.0843827555984 198.9973491914553 C339.1620926288108 199.22807635438386, 217.82222912121722 199.10247199468623, 3.9524611502677907 199.3419670660874 M462.82710059943184 200.05395734821994 C316.8120941469736 198.6743697137447, 170.6476016142497 198.9700763259624, 3.8687537567925916 200.34700061327234 M2.767074682418388 198.24048267823963 C3.1783412718594777 178.56204058981257, 1.893688936800987 152.77188778497074, 3.6000933793235164 134.2892659848716 M3.7875192015642822 199.12109179369654 C3.7095190737472152 184.19332784379367, 3.7853704551219565 166.22918747359435, 5.418688103897876 135.2685841570088"/>
    <path fill="#f99c41" d="M4.64539493191478 287.4643291806704 L470.21053768217973 292.25491136696365 L471.2205663987963 463.65908794807837 L142.49769493746354 460.5921174089948 L99.34746769108023 520.9565573802146 L96.68604334855809 463.5825847070693 L4.443540908791329 461.1993702881591 L4.332889331883052 287.4067860788375"/>
    <path fill="none" stroke="#000" stroke-width="2" d="M5.329825466386683 292.19509884437434 M3.663605421623722 288.9009304052484 C111.37461197117871 289.1348601138575, 216.23144098036062 288.9863393263414, 471.77231928899397 288.4979466254183 M4.464140792746883 289.6617623273959 C107.5656616997462 289.511510777736, 209.241549560377 289.18961753302466, 472.4893530308441 290.0167701295251 M473.96643014579206 288.2381814830544 C475.59410568948636 356.1406237797527, 476.4173239138681 423.6817662156053, 471.71675427445945 461.65505262467883 M471.46972653719274 290.3385106867958 C471.5189476254892 330.1737940028802, 470.7874338095885 371.91528865505865, 472.4914770615163 462.80732770894434 M471.05496051552177 462.88968318183987 C403.9029739225938 462.2537058856949, 335.3368110171084 461.06173459253176, 145.54900941690605 463.694996857026 M472.225132574051 461.5835941630624 C366.298733818426 461.0360702952814, 259.81558438680554 460.85018952070385, 144.254573754043 462.84005462687617 M142.1024937968992 464.6592604928559 C127.43469261848341 483.0757452117941, 115.07152305716177 498.26669179856157, 97.10021635862358 518.1777760007565 M144.29840879411788 461.40766754305776 C133.9019369839296 473.4820004563281, 124.292649616149 484.51067153129117, 99.24724084430562 518.7026857074718 M100.83215499383658 522.728707042199 C96.36224215888001 496.80337853283584, 94.90135143337034 476.3656561492506, 97.60526139978919 459.80479156232974 M97.14598030764463 521.298720687689 C98.65386028842622 497.34755167308356, 96.80354083023593 475.232300092723, 97.48774448085014 461.5024190106276 M96.70153358053939 462.6298803575255 C61.29018097872831 461.6515264075376, 26.460092369433553 460.2210803855788, 5.076786057547179 461.3314493989295 M98.41415199601033 463.0954133190844 C65.79432171403404 462.12428794481065, 34.81621458787777 461.42448352060825, 4.472575512182812 463.66225763430407 M4.197343666239976 460.279622965843 C2.3609773302986756 404.0252017876912, 0.5606994364138989 342.688387041595, 4.14262244993879 291.9255727467695 M5.561291148315649 461.70358864840017 C3.8668154752665083 425.08289228976105, 3.494494499268063 385.47390334674213, 3.5796787227754976 288.4702321410514 M4.5 289.6 C4.5 289.6, 4.5 289.6, 4.5 289.6 M4.5 289.6 C4.5 289.6, 4.5 289.6, 4.5 289.6"/>
    <defs xmlns="http://www.w3.org/2000/svg">
        <marker id="iPointer-76fvqpsf9hc" fill="#000" markerHeight="7" markerUnits="strokeWidth" markerWidth="8" orient="auto" refX="5" refY="5" viewBox="0 0 10 10">
            <path d="M 10 0 L 10 10 L 0 5 z"/>
        </marker>
        <marker id="Pointer-76fvqpsf9hc" fill="#000" markerHeight="7" markerUnits="strokeWidth" markerWidth="8" orient="auto" refX="5" refY="5" viewBox="0 0 10 10">
            <path d="M 0 0 L 10 5 L 0 10 z"/>
        </marker>
        <filter id="dsFilterNoBlur" width="150%" height="150%">
            <feOffset dx="3" dy="3" in="SourceGraphic" result="offOut"/>
            <feColorMatrix in="offOut" result="matrixOut" type="matrix" values="0.2 0 0 0 0 0 0.2 0 0 0 0 0 0.2 0 0 0 0 0 1 0"/>
            <feBlend in="SourceGraphic" in2="matrixOut" mode="normal"/>
        </filter>
        <filter id="dsFilter" width="150%" height="150%">
            <feOffset dx="3" dy="3" in="SourceGraphic" result="offOut"/>
            <feColorMatrix in="offOut" result="matrixOut" type="matrix" values="0.2 0 0 0 0 0 0.2 0 0 0 0 0 0.2 0 0 0 0 0 1 0"/>
            <feGaussianBlur in="matrixOut" result="blurOut" stdDeviation="3"/>
            <feBlend in="SourceGraphic" in2="blurOut" mode="normal"/>
        </filter>
    </defs>
    ??
    <text id="text0" x="17.1" y="44.8" fill="#fff" stroke="none" font-family="xkcd Script" font-size="120%">
        open source - Apache
    </text>
    <text id="text1" x="17.1" y="108.8" fill="#fff" stroke="none" font-family="xkcd Script" font-size="120%">
        neutral IP ownership - CNCF
    </text>
    <text id="text2" x="17.1" y="172.8" fill="#000" stroke="none" font-family="xkcd Script" font-size="120%">
        extensibility
    </text>
    <text id="text3" x="17.1" y="316.8" fill="#fff" stroke="none" font-family="xkcd Script" font-size="120%">
        K8s would *not* be what it is today without
    </text>
    <text id="text4" x="17.1" y="348.8" fill="#fff" stroke="none" font-family="xkcd Script" font-size="120%">
        neutral IP ownership... K8s has spawned an entire
    </text>
    <text id="text5" x="17.1" y="380.8" fill="#fff" stroke="none" font-family="xkcd Script" font-size="120%">
        ecosystem *because* it can be used by consuming
    </text>
    <text id="text6" x="17.1" y="412.8" fill="#fff" stroke="none" font-family="xkcd Script" font-size="120%">
        projects/products without fear.
    </text>
    <text id="text7" x="269.1" y="444.8" fill="#fff" stroke="none" font-family="xkcd Script" font-size="120%">
        -
    </text>
    <text id="text8" x="287.1" y="444.8" fill="#fff" stroke="none" font-family="xkcd Script" font-size="120%">
        Matt Klein
    </text>
</svg>
