<svg xmlns="http://www.w3.org/2000/svg" width="487" height="256" version="1.1">
    <path fill="#ef5ba1" d="M6.093316724512261 34.5957914116676 L9.040671371267672 27.23964502605377 L17.085388500020052 25.808597413579992 L471.1891141920205 23.14569993796249 L474.7454656627651 85.35096877573596 L2.614603014671593 85.42002298401785 L2.7106466209326303 31.80407681281067"/>
    <path fill="none" stroke="#000" stroke-width="2" d="M5.775712982661207 33.51729007959311 M4.5 34 C3.85730170811089 29.69378289187419, 8.461229722069886 26.554039287015076, 13.015554322092793 24.909467129811674 M4.932018022313423 34.69805514611435 C2.2251553341574257 25.56039830079449, 5.126267945071644 21.81047807428349, 11.952788136839317 26.781335975842012 M13.88280513851183 24.579012759041387 C112.08404474085917 23.76282093265571, 212.05763415485274 23.29889386912145, 471.32529508626624 23.655228533865255 M14.337814766022367 24.5063200953135 C184.80322371450455 26.820201997591845, 354.0687467150562 27.022393041458432, 472.20408710498907 24.34291629824734 M474.20176761345357 22.95619890505477 C473.4698869347776 37.616097149145936, 469.459521003245 50.91890908987323, 472.34758511215625 85.22245578113052 M473.3171366204639 23.84313040615016 C473.6187123273048 45.90475141843344, 473.63523127378284 67.31718698566401, 471.38166252807713 88.05857883884892 M473.01997641439465 88.46007465191573 C318.9934925673081 86.27714592467058, 162.76063750369255 84.81971012399046, 4.216169137992332 88.67025790801468 M472.6129518270247 87.93958109408196 C362.9054278115294 86.64236403981243, 253.79006490942567 86.65831459669418, 5.037711696462254 88.59391655412348 M3.113365241977135 89.70585921732727 C1.5431883054977957 69.57118978041798, 2.0598636177091687 58.34622295322842, 5.730179136811057 31.322592586374594 M3.2806397278992336 88.1647855319352 C4.80850861348139 75.82860209078791, 3.3083670766642532 62.29850980249611, 4.854199846991833 34.89570097552278"/>
    <path fill="#f99c41" d="M7.010426895282944 89.98199803669559 L471.26760582268327 87.60018132248224 L473.4473569992275 153.87668671610808 L6.559295851350907 149.51912171088625 L5.4252142360346625 85.41881130846613"/>
    <path fill="none" stroke="#000" stroke-width="2" d="M3.130790423307917 90.0316452777187 M4.832809494429278 87.86117553782574 C102.45971271493642 90.26849152046057, 203.26392297567435 89.44079547278628, 472.61848445349824 89.094148211849 M4.328124594731855 87.59324822171864 C146.88420727057462 89.0782591042628, 288.92155451564105 89.52008229361562, 472.5277897073716 87.9992595500402 M474.45349452303924 86.41766153117933 C471.19102482116784 109.88209616555105, 474.5477406318142 130.74374987022603, 470.80357504816277 154.70263720902585 M472.02350836083133 89.1884750846752 C471.42613959819937 113.60126438760562, 471.31508281160603 138.0661192126181, 473.4089759922084 151.4430778192691 M473.68002635682313 152.47318120140204 C323.4629926591411 152.88593094360587, 171.92587254236665 151.2614793659173, 5.059746184877087 152.3567912241383 M471.8658134926873 151.98753800559174 C288.19850866217206 152.67758950144938, 104.48507587079658 153.32586675468335, 4.121412437043795 152.2142750980447 M7.1964149883235216 151.47517198824926 C6.434032548029034 133.01872526144288, 5.9343242779060965 106.79731803724427, 6.697429034275411 86.62451723430277 M5.769053015978716 153.30839860862415 C3.0674923921975426 137.14917334134154, 3.771980238347547 123.70539497422705, 3.89901277008355 89.04035994151855"/>
    <path fill="#27bdce" d="M2.4806578139032354 152.80140475445805 L474.02593314844705 150.40629448121035 L475.23908979549486 205.4898931672862 L469.64542825458483 214.95410810303147 L461.68366795353575 214.87193720118958 L2.14803312145159 217.77371662884542 L5.990507166282623 154.17565174426272"/>
    <path fill="none" stroke="#000" stroke-width="2" d="M3.5503241918821002 150.3097322620904 M5.703242196908874 151.46519506248043 C130.72069880221676 154.07189447570192, 256.8347020907101 153.7124274567395, 472.95101968694854 152.1737522939961 M4.896246573091912 152.36471973073526 C106.02399062004662 151.73804532349033, 207.437312108132 151.86516743885136, 472.6153181516476 151.52862797397634 M471.23412525458696 151.2017881435012 C469.7182239054107 172.23993315647823, 473.68264881699935 188.2391417426348, 470.4727964764781 208.67468602286863 M472.4726052872029 151.38241054481188 C472.8058463151955 172.59181250197085, 473.980194556986 191.01867978203956, 472.6054360784772 206.61964555096114 M472.5 206 C474.96193220578135 213.3030797656373, 469.7619106822044 217.75063871641032, 462.41559669798806 214.34320522311629 M474.7618903040173 203.7107159070816 C470.5812118734299 210.97798602432647, 470.18458062988043 218.88829328416276, 464.64340471225614 215.58881181030335 M463.0843827555984 214.9973491914553 C339.1620926288108 215.22807635438386, 217.82222912121722 215.10247199468623, 3.9524611502677907 215.3419670660874 M462.82710059943184 216.05395734821994 C316.8120941469736 214.6743697137447, 170.6476016142497 214.9700763259624, 3.8687537567925916 216.34700061327234 M2.767074682418388 214.24048267823963 C3.1783412718594777 194.56204058981257, 1.893688936800987 168.77188778497074, 3.6000933793235164 150.2892659848716 M3.7875192015642822 215.12109179369654 C3.7095190737472152 200.19332784379367, 3.7853704551219565 182.22918747359435, 5.418688103897876 151.2685841570088"/>
    <defs xmlns="http://www.w3.org/2000/svg">
        <marker id="iPointer-ixncichl6x" fill="#000" markerHeight="7" markerUnits="strokeWidth" markerWidth="8" orient="auto" refX="5" refY="5" viewBox="0 0 10 10">
            <path d="M 10 0 L 10 10 L 0 5 z"/>
        </marker>
        <marker id="Pointer-ixncichl6x" fill="#000" markerHeight="7" markerUnits="strokeWidth" markerWidth="8" orient="auto" refX="5" refY="5" viewBox="0 0 10 10">
            <path d="M 0 0 L 10 5 L 0 10 z"/>
        </marker>
        <filter id="dsFilterNoBlur" width="150%" height="150%">
            <feOffset dx="3" dy="3" in="SourceGraphic" result="offOut"/>
            <feColorMatrix in="offOut" result="matrixOut" type="matrix" values="0.2 0 0 0 0 0 0.2 0 0 0 0 0 0.2 0 0 0 0 0 1 0"/>
            <feBlend in="SourceGraphic" in2="matrixOut" mode="normal"/>
        </filter>
        <filter id="dsFilter" width="150%" height="150%">
            <feOffset dx="3" dy="3" in="SourceGraphic" result="offOut"/>
            <feColorMatrix in="offOut" result="matrixOut" type="matrix" values="0.2 0 0 0 0 0 0.2 0 0 0 0 0 0.2 0 0 0 0 0 1 0"/>
            <feGaussianBlur in="matrixOut" result="blurOut" stdDeviation="3"/>
            <feBlend in="SourceGraphic" in2="blurOut" mode="normal"/>
        </filter>
    </defs>
    ??
    <text id="text0" x="17.1" y="60.8" fill="#fff" stroke="none" font-family="xkcd Script" font-size="120%">
        open source - Apache
    </text>
    <text id="text1" x="17.1" y="124.8" fill="#fff" stroke="none" font-family="xkcd Script" font-size="120%">
        neutral IP ownership - CNCF
    </text>
    <text id="text2" x="17.1" y="188.8" fill="#fff" stroke="none" font-family="xkcd Script" font-size="120%">
        extensibility - controllers and operators
    </text>
</svg>
