<svg xmlns="http://www.w3.org/2000/svg" width="802" height="464" version="1.1">
    <path fill="#ef5ba1" d="M6.093316724512261 56.5957914116676 L636.5406713712676 56.739645026053765 L637.08538850002 153.80859741358 L192.1891141920205 151.1456999379625 L132.74546566276513 181.35096877573596 L128.6146030146716 149.42002298401786 L2.7106466209326303 149.80407681281068 L5.775712982661207 55.51729007959311"/>
    <path fill="none" stroke="#000" stroke-width="2" d="M3.015554322092794 56.909467129811674 M5.52161571480603 56.17280720892537 C179.31851049094078 54.32286381517953, 354.54599807397864 54.417600231638, 633.8833269452039 55.0584120388655 M4.5985899572574995 55.73733013285615 C150.9079476160331 53.643917219892565, 296.9478858481844 54.11992601155838, 634.4273896225217 55.5000613211852 M632.2493705585046 55.30976136517275 C637.6144012038815 83.15098393208173, 637.1540898466717 105.88565260172145, 637.0550171623705 150.74063434955937 M634.1137495783885 56.85088380672678 C632.6660770814294 90.4268468173439, 633.5198889918036 122.22534101588681, 635.0071801215937 151.92379255607813 M633.3123081641818 152.81431782597792 C545.7899929906954 154.00013009726743, 458.0805407753694 154.0165920599877, 194.38517820351908 150.8855203450203 M633.8360687100112 152.2858014398848 C500.607643426693 154.13038474477875, 366.8161775442777 153.0790767895765, 193.30557488390696 151.84399432974288 M191.96202989070736 152.49838475220895 C170.70670486178238 160.49651851948997, 149.95350833299702 171.72784718802842, 131.7776936372 186.37258057404105 M193.25233865704757 151.30668262098857 C169.53289643691792 163.71047225376105, 142.62621764552 176.56375499859996, 131.58701961761471 184.61508956840552 M128.54617107847588 181.56127945579846 C131.05375027942083 178.81655548014132, 133.37706302224998 169.2761665935075, 133.0883788552397 152.70839969398367 M129.88380291134163 183.80009066124111 C130.5720101963685 173.29102684257342, 131.1279796224302 159.46492782448183, 130.96260711801733 150.70940565423308 M129.10626064750105 150.9597155685413 C99.59568167178513 150.13800805319156, 64.6502822933642 153.01472155801136, 5.630273718462559 152.74439259645368 M130.69087158992315 151.33327592205623 C91.14451881386304 151.16377157668967, 53.34630978845561 151.3197083337366, 5.332553465246747 152.23331070033274 M2.667875354204898 153.35357027621504 C6.455062748274242 121.19725576694182, 3.778872933057239 94.32431063818949, 7.134020518468605 56.509801872452954 M3.1452343445995212 151.27942001907687 C2.7262425004989197 130.20478920526006, 2.995923757323253 106.4431657914225, 4.182132831062336 55.68466553791241 M4.5 56 C4.5 56, 4.5 56, 4.5 56 M4.5 56 C4.5 56, 4.5 56, 4.5 56"/>
    <path fill="#6a2469" d="M110.82953327340074 255.34546006431773 L743.6001190963565 254.1864316412757 L740.9903242047251 372.29641498832353 L615.9751719882493 371.4656906732373 L619.233283195972 409.36598240311434 L551.7264339063025 371.7974290342754 L111.12451723430277 367.46049949847077 L113.6419955301346 252.87604361196574"/>
    <path fill="none" stroke="#000" stroke-width="2" d="M115.03810603195743 257.0167972172483 M112.75985700236036 253.91921021606686 C254.31418123604234 254.50596772942492, 394.78434846743824 255.92407786324247, 741.8625177924841 255.49563591819796 M112.33673359070715 254.17438744023792 C289.55220288823 252.92256711594945, 467.84329396113594 253.0029541390329, 742.3100648383764 254.06194645241808 M745.1545722187511 253.22012255451355 C741.3444513600352 284.2799602199024, 740.6412230131438 314.60881961961616, 743.4950318681967 369.98332931954286 M743.3741923674281 255.2046383906145 C742.4876230538446 278.5760714153627, 742.6676736952357 303.79971610428055, 742.7544129207469 368.56006715173936 M741.234125254587 368.8017881435012 C696.096455844791 370.71733071362956, 655.8969084793237 367.7891226096193, 614.4727964764782 372.27468602286865 M742.4726052872029 368.9824105448119 C695.7721405366055 370.80041882953304, 650.6514848323262 369.38657013271467, 616.6054360784772 370.21964555096116 M617.1364130989707 370.19524401553775 C617.9325341192487 383.26613720411524, 613.89261130992 394.2723239847664, 616.1424450524377 406.3314885855912 M616.0316533012968 368.9885253981935 C616.0392837712221 379.72793335456174, 615.6031604849395 387.27223617755834, 617.1229187384466 407.4456454529301 M617.018457899012 409.80749788443245 C594.7519027080275 396.08899270475433, 574.7498202944056 382.65448347332136, 551.8430869964293 369.2109349088962 M617.4333072887235 408.4513956575644 C598.41441893526 396.62513739656777, 580.1289629302136 386.00162909380634, 554.5142940977029 368.4412910788211 M553.0540754022621 369.68226886846213 C424.8310132601296 367.01039895988214, 297.31715929649334 366.9853199771217, 113.84310977326201 368.94048771701574 M553.5362233443894 369.06792409768224 C403.6810404224056 368.6542297304453, 254.68410812235237 368.3064776338405, 111.90149548225182 369.1495884701952 M113.68258470706932 369.54354090879133 C110.7483932371555 329.7404508314387, 109.75580902783385 291.0449484654979, 115.09509884437429 252.32809058621135 M111.72886234792604 370.8190239663822 C111.7860700668626 331.0316630766588, 111.62223806468546 291.23612999051403, 111.28433440945591 253.2714747810198 M112.5 254.4 C112.5 254.4, 112.5 254.4, 112.5 254.4 M112.5 254.4 C112.5 254.4, 112.5 254.4, 112.5 254.4"/>
    <defs xmlns="http://www.w3.org/2000/svg">
        <marker id="iPointer-1ia80hc1gcjj" fill="#000" markerHeight="7" markerUnits="strokeWidth" markerWidth="8" orient="auto" refX="5" refY="5" viewBox="0 0 10 10">
            <path d="M 10 0 L 10 10 L 0 5 z"/>
        </marker>
        <marker id="Pointer-1ia80hc1gcjj" fill="#000" markerHeight="7" markerUnits="strokeWidth" markerWidth="8" orient="auto" refX="5" refY="5" viewBox="0 0 10 10">
            <path d="M 0 0 L 10 5 L 0 10 z"/>
        </marker>
        <filter id="dsFilterNoBlur" width="150%" height="150%">
            <feOffset dx="3" dy="3" in="SourceGraphic" result="offOut"/>
            <feColorMatrix in="offOut" result="matrixOut" type="matrix" values="0.2 0 0 0 0 0 0.2 0 0 0 0 0 0.2 0 0 0 0 0 1 0"/>
            <feBlend in="SourceGraphic" in2="matrixOut" mode="normal"/>
        </filter>
        <filter id="dsFilter" width="150%" height="150%">
            <feOffset dx="3" dy="3" in="SourceGraphic" result="offOut"/>
            <feColorMatrix in="offOut" result="matrixOut" type="matrix" values="0.2 0 0 0 0 0 0.2 0 0 0 0 0 0.2 0 0 0 0 0 1 0"/>
            <feGaussianBlur in="matrixOut" result="blurOut" stdDeviation="3"/>
            <feBlend in="SourceGraphic" in2="blurOut" mode="normal"/>
        </filter>
    </defs>
    ??
    <text id="text0" x="26.1" y="92.8" fill="#fff" stroke="none" font-family="xkcd Script" font-size="120%">
        Can I trust custom resources to create and manage the lifecycle
    </text>
    <text id="text1" x="26.1" y="124.8" fill="#fff" stroke="none" font-family="xkcd Script" font-size="120%">
        of objects native to the platform?
    </text>
    <text id="text2" x="134.1" y="284.8" fill="#fff" stroke="none" font-family="xkcd Script" font-size="120%">
        Yes, this is something resources like PersistentVolumeClaim and
    </text>
    <text id="text3" x="134.1" y="316.8" fill="#fff" stroke="none" font-family="xkcd Script" font-size="120%">
        Service have done for a long time, dynamically creating storage
    </text>
    <text id="text4" x="134.1" y="348.8" fill="#fff" stroke="none" font-family="xkcd Script" font-size="120%">
        volumes and load balancers respectively.
    </text>
</svg>
