<svg xmlns="http://www.w3.org/2000/svg" width="802" height="464" version="1.1">
    <path fill="#ef5ba1" d="M6.093316724512261 56.5957914116676 L636.5406713712676 56.739645026053765 L637.08538850002 153.80859741358 L192.1891141920205 151.1456999379625 L132.74546566276513 181.35096877573596 L128.6146030146716 149.42002298401786 L2.7106466209326303 149.80407681281068 L5.775712982661207 55.51729007959311"/>
    <path fill="none" stroke="#000" stroke-width="2" d="M3.015554322092794 56.909467129811674 M5.52161571480603 56.17280720892537 C179.31851049094078 54.32286381517953, 354.54599807397864 54.417600231638, 633.8833269452039 55.0584120388655 M4.5985899572574995 55.73733013285615 C150.9079476160331 53.643917219892565, 296.9478858481844 54.11992601155838, 634.4273896225217 55.5000613211852 M632.2493705585046 55.30976136517275 C637.6144012038815 83.15098393208173, 637.1540898466717 105.88565260172145, 637.0550171623705 150.74063434955937 M634.1137495783885 56.85088380672678 C632.6660770814294 90.4268468173439, 633.5198889918036 122.22534101588681, 635.0071801215937 151.92379255607813 M633.3123081641818 152.81431782597792 C545.7899929906954 154.00013009726743, 458.0805407753694 154.0165920599877, 194.38517820351908 150.8855203450203 M633.8360687100112 152.2858014398848 C500.607643426693 154.13038474477875, 366.8161775442777 153.0790767895765, 193.30557488390696 151.84399432974288 M191.96202989070736 152.49838475220895 C170.70670486178238 160.49651851948997, 149.95350833299702 171.72784718802842, 131.7776936372 186.37258057404105 M193.25233865704757 151.30668262098857 C169.53289643691792 163.71047225376105, 142.62621764552 176.56375499859996, 131.58701961761471 184.61508956840552 M128.54617107847588 181.56127945579846 C131.05375027942083 178.81655548014132, 133.37706302224998 169.2761665935075, 133.0883788552397 152.70839969398367 M129.88380291134163 183.80009066124111 C130.5720101963685 173.29102684257342, 131.1279796224302 159.46492782448183, 130.96260711801733 150.70940565423308 M129.10626064750105 150.9597155685413 C99.59568167178513 150.13800805319156, 64.6502822933642 153.01472155801136, 5.630273718462559 152.74439259645368 M130.69087158992315 151.33327592205623 C91.14451881386304 151.16377157668967, 53.34630978845561 151.3197083337366, 5.332553465246747 152.23331070033274 M2.667875354204898 153.35357027621504 C6.455062748274242 121.19725576694182, 3.778872933057239 94.32431063818949, 7.134020518468605 56.509801872452954 M3.1452343445995212 151.27942001907687 C2.7262425004989197 130.20478920526006, 2.995923757323253 106.4431657914225, 4.182132831062336 55.68466553791241 M4.5 56 C4.5 56, 4.5 56, 4.5 56 M4.5 56 C4.5 56, 4.5 56, 4.5 56"/>
    <path fill="#6a2469" d="M110.82953327340074 258.54546006431775 L743.6001190963565 257.38643164127575 L740.9903242047251 385.0964149883235 L615.9751719882493 384.26569067323726 L619.233283195972 425.36598240311434 L551.7264339063025 384.59742903427536 L111.12451723430277 380.2604994984707 L113.6419955301346 256.07604361196576"/>
    <path fill="none" stroke="#000" stroke-width="2" d="M115.03810603195743 260.2167972172483 M112.75985700236036 257.11921021606685 C254.31418123604234 257.70596772942497, 394.78434846743824 259.1240778632425, 741.8625177924841 258.695635918198 M112.33673359070715 257.3743874402379 C289.55220288823 256.1225671159495, 467.84329396113594 256.20295413903295, 742.3100648383764 257.2619464524181 M745.1545722187511 256.42012255451357 C741.2871421851614 290.07345266557326, 740.58391383827 322.99580451095784, 743.4950318681967 382.7833293195428 M743.3741923674281 258.40463839061454 C742.4512410604193 283.8546705875839, 742.6312917018105 311.15691444872283, 742.7544129207469 381.3600671517393 M741.234125254587 381.60178814350115 C696.096455844791 383.5173307136295, 655.8969084793237 380.58912260961927, 614.4727964764782 385.0746860228686 M742.4726052872029 381.78241054481185 C695.7721405366055 383.600418829533, 650.6514848323262 382.1865701327146, 616.6054360784772 383.0196455509611 M617.1364130989707 382.9952440155377 C617.9060254028185 397.0164911124567, 613.8661025934898 408.9730318014494, 616.1424450524377 422.3314885855912 M616.0316533012968 381.7885253981934 C616.0534460524494 393.32011416029184, 615.6173227661668 401.6565977890187, 617.1229187384466 423.4456454529301 M617.018457899012 425.80749788443245 C594.7705447241414 411.01715729785553, 574.7684623105195 396.5108126595239, 551.8430869964293 382.01093490889616 M617.4333072887235 424.4513956575644 C598.4574029267828 411.71067171257585, 580.1719469217364 400.1726977258226, 554.5142940977029 381.24129107882106 M553.0540754022621 382.4822688684621 C424.8310132601296 379.8103989598821, 297.31715929649334 379.7853199771217, 113.84310977326201 381.7404877170157 M553.5362233443894 381.8679240976822 C403.6810404224056 381.45422973044526, 254.68410812235237 381.1064776338404, 111.90149548225182 381.9495884701952 M113.68258470706932 382.3435409087913 C110.7024784829052 339.2327476230683, 109.70989427358356 297.22954204875714, 115.09509884437429 255.52809058621136 M111.72886234792604 383.61902396638214 C111.80229941060895 340.599947589935, 111.63846740843181 297.57269901706667, 111.28433440945591 256.4714747810198 M112.5 257.6 C112.5 257.6, 112.5 257.6, 112.5 257.6 M112.5 257.6 C112.5 257.6, 112.5 257.6, 112.5 257.6"/>
    <defs xmlns="http://www.w3.org/2000/svg">
        <marker id="iPointer-1ia80hc1gcjj" fill="#000" markerHeight="7" markerUnits="strokeWidth" markerWidth="8" orient="auto" refX="5" refY="5" viewBox="0 0 10 10">
            <path d="M 10 0 L 10 10 L 0 5 z"/>
        </marker>
        <marker id="Pointer-1ia80hc1gcjj" fill="#000" markerHeight="7" markerUnits="strokeWidth" markerWidth="8" orient="auto" refX="5" refY="5" viewBox="0 0 10 10">
            <path d="M 0 0 L 10 5 L 0 10 z"/>
        </marker>
        <filter id="dsFilterNoBlur" width="150%" height="150%">
            <feOffset dx="3" dy="3" in="SourceGraphic" result="offOut"/>
            <feColorMatrix in="offOut" result="matrixOut" type="matrix" values="0.2 0 0 0 0 0 0.2 0 0 0 0 0 0.2 0 0 0 0 0 1 0"/>
            <feBlend in="SourceGraphic" in2="matrixOut" mode="normal"/>
        </filter>
        <filter id="dsFilter" width="150%" height="150%">
            <feOffset dx="3" dy="3" in="SourceGraphic" result="offOut"/>
            <feColorMatrix in="offOut" result="matrixOut" type="matrix" values="0.2 0 0 0 0 0 0.2 0 0 0 0 0 0.2 0 0 0 0 0 1 0"/>
            <feGaussianBlur in="matrixOut" result="blurOut" stdDeviation="3"/>
            <feBlend in="SourceGraphic" in2="blurOut" mode="normal"/>
        </filter>
    </defs>
    ??
    <text id="text0" x="26.1" y="92.8" fill="#fff" stroke="none" font-family="xkcd Script" font-size="120%">
        Can the PostgreSQL operator match the availability and durability
    </text>
    <text id="text1" x="26.1" y="124.8" fill="#fff" stroke="none" font-family="xkcd Script" font-size="120%">
        guarantees of RDS?
    </text>
    <text id="text2" x="134.1" y="284.8" fill="#fff" stroke="none" font-family="xkcd Script" font-size="120%">
        Not today, no. It is worth considering, though, that:
    </text>
    <text id="text3" x="134.1" y="316.8" fill="#fff" stroke="none" font-family="xkcd Script" font-size="120%">
        *
    </text>
    <text id="text4" x="152.1" y="316.8" fill="#fff" stroke="none" font-family="xkcd Script" font-size="120%">
        RDS and the operator use the same AWS storage primitives
    </text>
    <text id="text5" x="134.1" y="348.8" fill="#fff" stroke="none" font-family="xkcd Script" font-size="120%">
        *
    </text>
    <text id="text6" x="152.1" y="348.8" fill="#fff" stroke="none" font-family="xkcd Script" font-size="120%">
        Until this improves, there&apos;s Microsoft&apos;s Azure Service Operator
    </text>
    <text id="text7" x="152.1" y="364.8" fill="#fff" stroke="none" font-family="xkcd Script" font-size="120%">
        for Kubernetes (EventHub, Azure SQL, CosmosDB, Storage Accounts)
    </text>
</svg>
