<svg xmlns="http://www.w3.org/2000/svg" width="946" height="656" version="1.1">
    <path fill="#fff" d="M51.09331672451226 8.595791411667596 L591.5406713712676 8.739645026053768 L592.08538850002 297.80859741358 L48.1891141920205 295.1456999379625 L51.74546566276513 5.350968775735964"/>
    <path fill="none" stroke="#000" stroke-width="2" d="M47.614603014671594 5.4200229840178515 M49.30691603183725 7.406221728837117 C177.35482882705395 6.365150661970252, 305.4262637736749 6.873388534220517, 590.521615714806 8.17280720892537 M49.10437484072303 7.69166347260194 C224.4916981230666 5.007176313867239, 399.95369300649503 5.676079142293165, 589.5985899572574 7.73733013285615 M589.2554025567222 7.726514610656375 C584.683029282648 106.52037670125691, 588.071954770416 204.69061432932875, 587.804610744491 295.4800462734346 M588.4892277846322 8.96234159316909 C589.9654401241319 117.11365301766149, 589.4102558848808 224.80255085820838, 589.209039256902 296.64096702771855 M587.334943472328 296.7945463497682 C518.4458385672965 294.5263160366407, 448.3207950097265 297.5912081081947, 317.6329260625198 297.2801229610722 M590.1046652694909 296.6957584046528 C510.64935066202185 297.5057590627748, 433.8768610487153 298.0598703268249, 318.45628750621023 296.4492852469055 M317.60069378677264 295.38872011055156 C228.22192766980766 299.7331440356889, 136.45808536655565 297.0322387751858, 48.29531108933128 296.3903837796358 M318.62595648858627 296.50040743531576 C241.9999109880395 298.3030232553842, 162.58328560697174 297.7935952909613, 49.30600736538806 295.4569258836551 M47.93030027472708 297.63769419012567 C53.2475174399817 190.03714025482807, 51.26537130472523 89.13983640342799, 48.02818927026314 6.16292254442338 M48.88093347234507 296.97490720139257 C48.29518473100844 206.8848538039673, 48.973914311917966 117.16676760050626, 49.03582144438084 7.849409174714026"/>
    <path fill="#ef5ba1" d="M68.44735699922748 41.87668671610809 L303.5592958513509 37.519121710886246 L302.42521423603466 101.41881130846613 L66.13079042330791 106.0316452777187 L65.03060347859864 38.60626064750104"/>
    <path fill="none" stroke="#000" stroke-width="2" d="M66.45971556854128 40.73423857667076 M68.45316299154588 40.62774836088867 C135.36087795691418 39.49947832477018, 202.86272096698252 37.78576242257285, 300.3754994364852 39.36045845134016 M68.20209466839228 40.196751566860556 C122.75282418101892 41.46171136859207, 178.25587292796763 40.6905710391469, 302.0707348019645 40.823693700531834 M304.1340205184686 40.509801872452954 C299.57231255466587 58.28586356600717, 303.88968049784495 68.45692140316169, 300.05884003815373 103.04701672166266 M301.18213283106235 39.68466553791241 C302.276617347508 64.0761067777843, 301.64445810521363 88.02675757652688, 301.56205771722523 105.3016769160291 M299.1428638519765 102.3810765127735 C223.61717281110205 106.30570653910173, 145.85207674913403 105.60779291319481, 68.05269093931085 101.64021722367339 M301.5260288762079 105.17345193864513 C231.05517853583464 104.32224185471617, 162.48293309666278 103.8335358975007, 66.8634430873762 105.1369471548076 M68.86598240311432 102.22643390630256 C69.10040801883949 84.62412411830447, 64.76347848303482 69.14120929813798, 65.97604361196572 42.53810603195743 M67.13741880799061 104.32482125295046 C67.58193695450555 79.85910915923668, 67.17325309137362 54.0382008126653, 68.26296657422354 39.203147240605176"/>
    <path fill="#f99c41" d="M340.23908979549486 39.48989316728621 L571.1454282545849 41.454108103031466 L570.6836679535357 102.87193720118958 L335.1480331214516 105.77371662884543 L338.9905071662826 42.17565174426272"/>
    <path fill="none" stroke="#000" stroke-width="2" d="M336.5503241918821 38.30973226209039 M339.73860818487503 39.005006046564425 C400.3218488112508 41.403689651040004, 462.945192740505 40.734908409067934, 572.3391131605396 40.32326268849256 M338.2372088711907 40.678553807792696 C388.5235897526433 39.432862612943126, 439.34128178556085 39.66937078117138, 571.7145471284219 39.12302171724982 M570.234125254587 39.2017881435012 C568.6178157171818 63.74501032132393, 572.5822406287705 83.24929607232625, 569.4727964764782 106.67468602286863 M571.4726052872029 39.38241054481186 C571.9426429508474 64.26601916435736, 573.1169911926379 86.36709310681255, 571.6054360784772 104.61964555096115 M572.0366889483187 104.5019709449862 C503.48168898386547 108.33655898404896, 430.5801812195029 108.00087377075118, 337.19847291156685 102.5929396523971 M571.1050419176129 103.48434175616765 C513.039938198287 107.00240097203762, 454.7439327908012 105.34795316777655, 338.02530911630447 103.53251125826318 M338.018457899012 105.80749788443245 C337.0027984102571 83.95538820560542, 338.1024755699545 61.94619571898245, 335.84308699642935 39.61093490889616 M338.43330728872354 104.45139565756435 C337.7618340210326 84.84422366137169, 337.47992116957624 66.90498988667532, 338.5142940977029 38.84129107882109"/>
    <path fill="#fff" d="M157.20498299615718 119.10009337932351 L470.7892659848716 119.1050636320293 L472.6651072910354 181.96196047807607 L156.07503840312856 182.24218358739307 L156.02470681375706 122.69551800543559"/>
    <path fill="none" stroke="#000" stroke-width="2" d="M156.17640957650656 121.07609958288522 M155.9873214440354 118.37839215598643 C274.5509348196316 118.93159066002886, 388.7327665963247 118.13626978693856, 471.2194912238518 120.8835713858506 M157.4800052386848 119.5748017900704 C262.7020889527433 117.90403798511619, 368.3164204244475 119.59979979778, 471.7662415687444 120.36329601222032 M474.93804793276433 118.18263588381305 C472.33402125269777 136.28214598677587, 470.3041267617772 154.42301703354605, 470.2429495620396 183.4523643396893 M473.3618399903511 121.37922468546586 C471.10695320638547 141.40699177746683, 472.42587918193436 162.39531593725505, 473.75843926068956 185.17486341308032 M473.2535814028518 183.4106215587924 C351.249624151629 182.01071234896918, 226.77116105095223 181.953169605057, 156.21017112993832 182.18291960174307 M473.375085915647 183.9803231628401 C353.57100783554574 186.43542516979468, 233.9220578780368 185.9362127734453, 156.57929935070314 183.14709725505656 M156.43143007527834 183.80541313100403 C156.08057112741716 162.8966015526015, 159.117107093752 147.53519403892133, 158.22524760571574 118.3658520897654 M158.32080423495572 183.92239445332453 C158.98742603149287 167.11288178769246, 156.81686642502166 151.56215844567487, 157.8361092068335 120.13212490871592"/>
    <path fill="#27bdce" d="M66.26441305716871 197.2024937968992 L303.7592604928559 197.62215373390646 L303.8020232483017 264.4225492354282 L66.33012052695412 263.00021635862356 L65.67777600075642 197.24637408274856"/>
    <path fill="none" stroke="#000" stroke-width="2" d="M66.10005415237974 198.78513911706978 M67.07983245848956 197.75825820884876 C126.23508805200964 204.2188094517441, 185.60160785263025 204.21302559202303, 303.3560394215362 199.43440360830036 M66.98952607572899 198.91855503047384 C160.67535540385637 200.8805653152782, 252.47174591166188 202.07143369361575, 301.86151534309397 199.53604625028646 M300.33956823209957 197.900932357095 C301.0847111974317 213.6142560823615, 300.53601926137617 232.27562426961595, 300.39898745592507 264.7876237911907 M300.9414592366302 200.94508999358368 C300.29979794005897 216.29189835572078, 301.03928641387296 232.51805832407626, 300.363991102824 263.24795383463623 M302.22220984015763 263.51029744789304 C225.59108956036326 262.35740267505577, 152.72727835660038 263.6792142545719, 69.82993630723614 264.9110036162418 M302.68059852097525 263.34552088706914 C234.94160084150747 264.0941000161985, 167.13926544018042 263.3048121104887, 67.99050978071907 263.54751913910104 M69.03016976396756 263.99918249269393 C66.42228032739902 238.1077407675366, 65.68616754712664 213.43324419438105, 66.86824954780022 199.93698897948707 M68.80334881693416 262.78925957850277 C66.84787013573195 243.83666759185905, 68.9977582860004 220.50002000172955, 68.01567909529595 199.17667404529965"/>
    <path fill="#00aa5b" d="M337.3230809674375 199.20131361210662 L574.0350153910018 199.59906399412284 L570.2113973566331 263.01514293300204 L335.40958321595537 263.0129262413262 L335.81672105759935 198.9532977353374"/>
    <path fill="none" stroke="#000" stroke-width="2" d="M339.4489759529479 198.74587368571375 M336.5022024362245 202.15185571077893 C394.0800721318443 202.61303863701198, 449.30011646351267 202.08706056135028, 572.4015893779791 201.05536257641992 M336.63012030163037 199.268988585829 C396.1252971204233 200.58911459667308, 455.0986240863767 201.76803872536226, 572.6061482762378 200.14335550291744 M572.046253085928 197.57477066613174 C569.859687766967 220.28060106365447, 569.621302181835 244.09121226287024, 572.563405751044 262.13998098435985 M570.3029950126027 199.7887635931278 C571.5921615286765 216.69994071587135, 570.9451583510471 232.0293628515923, 570.6342246630899 264.20450151176226 M570.6373186233069 265.9073322842607 C501.5750669346182 266.2193148861362, 430.34168111149455 266.6079569362471, 336.9351151597688 261.8352700640142 M570.9862087625656 264.7394875736857 C493.3987248188289 263.2535393751456, 417.88334802104026 264.1886627816728, 337.4631501802126 264.4710002440197 M339.1253270700996 265.89054121499646 C338.7322925563308 243.3783437849619, 339.99511215525007 223.46396220878088, 340.0802199952632 198.5732548220214 M338.0418224267094 264.3656435777508 C336.61767443978783 238.87333256562343, 338.4664647013189 213.16756591487064, 337.05106220476443 200.68851533916313"/>
    <path fill="#fff" d="M46.73737025747105 394.7433812912168 L590.4928198914902 393.9955299058929 L586.8602232371013 617.8968088601799 L48.51068736736052 617.6318503549453 L49.886200129011925 392.48040227634556"/>
    <path fill="none" stroke="#000" stroke-width="2" d="M51.41075290126319 393.66212010752497 M51.581170536514904 393.37793236206596 C106.16327932369303 389.14541938292484, 164.40034687007548 388.71780638719673, 318.6180775055714 391.37740497427484 M50.23162822144092 391.823732571852 C124.91421322314471 389.03922895433516, 200.8481624788197 390.38301834685166, 318.58801488498034 392.3954893319629 M321.175744708007 392.8547901578061 C388.06137646757674 393.70065670683255, 458.09391910352906 392.3868743781806, 587.5243461746935 392.78352777814075 M320.39769174033 392.77920370857436 C400.89498252362057 390.4809360398476, 482.7688202151526 391.5123484489517, 588.4719193388303 391.05561345841613 M588.5155348907319 393.1951628365877 C586.1532134828295 445.1657361238204, 589.034570559933 500.26217399773725, 587.1845688830507 615.2367606190195 M588.4893694612865 392.87116164720635 C587.9528387848427 439.2112351334916, 587.2201252803868 485.89893493932, 588.5966779959026 615.0778272736064 M588.9204084970019 615.1645094321202 C374.198076726984 616.0530588849914, 159.64768006539737 615.9958982896457, 48.45555957068398 614.9572621659131 M589.6777755853763 615.8398421894276 C373.8741424526881 616.8190422333956, 159.68008577079104 616.1126333160939, 48.982416496442745 616.0516361559482 M48.10814209064741 616.6715772509309 C51.53717065102577 560.288681783461, 51.59335326124982 509.3817161673257, 48.836413104471035 393.27667541112703 M48.79453277416334 616.274642525888 C50.99882813654361 542.6729173430857, 51.669524659261796 466.8806566796251, 49.79520440075172 391.6609064242754"/>
    <path fill="#ef5ba1" d="M69.9867158446992 426.1099114893426 L301.7792037381063 424.6653278355967 L299.68209468470013 485.9281066914984 L70.12478124272675 485.2065331092428 L66.9479525493094 423.07024789628196"/>
    <path fill="none" stroke="#000" stroke-width="2" d="M66.31629382013634 424.09754796762064 M65.68667550468112 422.2092976134431 C152.75917986773047 425.4083310377256, 242.80315828471387 424.19817970839955, 300.9747531818625 424.31908805462604 M68.24434602118926 423.48547114775374 C135.81965075591924 423.93237771311453, 202.3164665187282 422.6753859647614, 300.6188236346549 423.87981449105314 M301.4032448137135 423.15832345954476 C302.20471467520406 439.92913419185203, 302.55997493492436 457.45568259516745, 302.09806268464456 488.7541275881158 M301.88809504652835 423.4041977312721 C301.62810126033287 440.78968054014695, 300.1993473395616 459.93553521649375, 300.17131369727724 489.31841029667703 M300.88097156760864 488.4442763773356 C228.53754192411773 488.1740640595824, 154.4876713806361 487.63938724894, 67.18569632637261 488.30257154564936 M300.90017525495733 489.0129936811518 C235.25818002465633 485.28587928073506, 171.5526921623399 486.9904475165157, 66.51426464773486 487.6727391736959 M65.29214971080364 488.1881884494422 C66.76273287258023 466.213113995747, 66.7620683888204 440.56099179914526, 68.94462953170004 426.1296687738621 M67.97996918126009 487.79299462744274 C67.28549994802991 473.1528894435549, 65.89334043582124 457.59095758850344, 67.32513593887052 425.04462023977686"/>
    <path fill="#f99c41" d="M338.5484377466331 423.8008324960101 L570.5697360108956 425.86459549685316 L573.7193575524027 486.3641152408847 L336.54047200536735 487.6758460547291 L337.104211041292 421.5086735694655"/>
    <path fill="none" stroke="#000" stroke-width="2" d="M336.4833725460638 421.40979111563064 M335.15152717228693 426.1752993303344 C412.47066472842243 423.3283725967881, 487.6381683119342 420.4613795439197, 573.8316985274853 426.2507737840814 M337.7823859535248 424.74606053999474 C403.7334940550849 423.1619664542141, 469.87865351792436 422.998322471176, 570.7137147803127 423.31473369630555 M572.1782918524332 424.60965424496897 C574.1344072800649 446.9198904746514, 570.0348284210045 473.603708733189, 569.3631241864452 490.23698704065174 M570.2770834885814 423.65041389824785 C571.1841154473559 438.02996337997683, 571.0698845588549 451.552019497857, 570.1926163200357 488.6439584087981 M570.2932983152385 489.7976248212783 C499.70329568193836 489.96494513296744, 430.61995978477 486.10107225243155, 337.29991037605276 486.3178652636956 M572.2260345377118 488.45503214073545 C509.3858229226971 488.12687281378044, 444.8556333900295 488.99768593258915, 337.8373663759217 487.0830854943486 M339.2774450730976 488.3298559245304 C340.6997378282938 462.00905710120566, 339.8870478997783 440.99710104243275, 337.8477292953088 422.11989968452946 M337.00147648722776 489.03966408629714 C338.6583428660568 463.0465624356308, 336.9854134062549 438.2863946475002, 337.693254166694 423.97660729262134"/>
    <path fill="#27bdce" d="M66.45664575693081 522.5717412546597 L299.5287627810423 522.425801378866 L298.9872504635114 585.7978547977403 L66.9432453551548 582.7256338984196 L68.57078124397376 519.193135497038"/>
    <path fill="none" stroke="#000" stroke-width="2" d="M69.16385139232588 519.6038103902796 M68.55444363848704 518.1226195064296 C126.12054668914784 520.939246286672, 183.13468586633923 523.5777496423224, 302.08628845188275 519.405516799035 M66.60442448306912 518.9138435314427 C159.30267996874923 519.1635785373555, 252.481271072903 519.9986044181079, 301.94355250347934 518.964653628504 M299.7544890280507 521.1277646586866 C300.22430629754894 541.1349975997946, 303.45418366330637 561.9631480740078, 303.58482886518357 581.3732436659229 M301.760783371632 520.8494209361099 C302.8033470441109 545.2871883978493, 300.6160766063592 567.8704833371178, 302.8908436847852 583.4143182024516 M302.0549554035616 581.9771298986838 C221.13068956474842 581.7311991424981, 140.01307434803536 584.4529323911324, 66.05385472890659 585.4331445672748 M302.3455934362003 584.0397994321804 C231.6677080078779 584.6675089139608, 162.5911233113264 585.405456814222, 67.1068839416611 583.4819560441684 M65.85933465618291 581.762779178338 C65.10536616997811 569.2450487603427, 64.9959098922696 558.4726346407566, 67.76795673923479 518.1925117824837 M67.3772363082804 584.4440410936201 C67.07795671970824 568.8786283808975, 68.28698858198412 554.0318082397071, 68.61504903985443 520.025006612688"/>
    <path fill="#00aa5b" d="M335.9918380743999 521.0643658332268 L570.2281073046076 522.2322297719948 L573.0999736074889 583.9755348548948 L337.43171961250084 582.3730340818423 L340.18590002566924 520.6694539102216"/>
    <path fill="none" stroke="#000" stroke-width="2" d="M335.82581572364916 518.3148814153008C414.3870594177428 519.5512494522148 489.94042786849644 519.9481591586986 570.297039331111 521.89826639456M336.4080853867551 519.719749663203C391.39744772855533 517.1430285459503 444.5541481331273 518.5140031901993 571.3799791948933 519.8900266684068M570.1490015220886 520.7508296889057C574.2421470800474 535.7401497119637 573.6611008146342 558.3616650153825 569.7012224631355 585.4082886346664M572.7357935808038 519.0328738537628C572.1769859016949 540.0894545026582 571.7261300761015 561.0718555062077 570.2692460085848 584.7037054922469M571.0280811348099 583.6082549497816C518.5989540932914 586.6306714056043 468.1749115373821 587.8479965251623 337.7785462100695 584.6646518335139M570.6556117207002 583.3233642352918C506.9855834401717 586.4611904945507 442.53648754681035 586.8684343286267 338.6592669717974 583.0732956680532M340.26026432632716 583.512415280753C338.5058757515555 561.7448992643928 337.99095895789975 543.0512728390364 339.05631259640506 520.1974064278414M336.7341384792791 584.4483647962516C338.9316171262211 567.9314731596436 336.7155621272568 550.848696802999 337.58085369524525 518.9848853146359M318.6900395658089 293.4887163065878C322.36840020251145 317.0933691689279 321.1242505249003 342.08315881987437 321.23989793689543 378.530837390232M320.09814769813494 296.8212352449991C319.64641640686153 324.48079870968434 319.30767894799686 354.7316012594914 320.67484028737744 376.3797411079966M643.3923898292718 103.72317233306656C645.6655870510735 104.03964853684285 648.1432757105666 103.56584210504026 651.9142750026398 103.02336188457456M643.9107259577694 103.64267209509555C645.5118383551074 104.46898456548392 647.7592153934286 104.41560472718801 652.8437977784754 103.58177177671332M652.3391718747362 102.42036535436418C648.970624107424 134.95851335647714 651.274069093545 167.50475651204619 651.2499384916388 199.93892167248123M653.2351506573632 102.97343564327056C651.1041786545937 139.45383344501278 651.9775467755856 176.57257464271677 651.7178543644204 200.11790238109825M653.1850660194093 200.24261747214447C650.3640048207933 200.46057239012313 647.7768093284442 200.17885462817839 643.2725497548064 200.71913755597677M652.7434788910094 199.44663235073193C649.1964623769376 200.39937076591195 645.9294360046034 200.46086685815894 643.316454620993 199.57173177450812M642.7049826672314 408.4841689630349C646.4002168322014 406.8876319961629 651.3508572156904 408.10925330482706 651.3938192531112 407.9259403816029M643.4967061288282 408.47183580565985C644.7075433448201 408.2331655193743 647.4423802420253 407.78783118455686 653.0174362234039 408.4378533545324M650.7654873208754 407.3169094107458C651.6474667453865 480.08195020871426 654.238675194218 549.6348766092008 653.8334031311897 602.5295652169705M653.475079410286 409.0299253792538C650.1838334199682 452.6821869691783 652.2534498250363 496.38045619272236 652.1272571846748 600.6989973598099M652.4297067259976 600.6174222903363C650.2891172206776 599.8177516558837 647.0989703362363 598.9929852977781 642.4687898699458 601.118271482431M651.92105780051 599.4330887173684C649.0885955844968 599.5287352909432 646.4298663833464 599.6573747430305 643.0225627195572 599.4559563322263M778.3575110329466 24.550932063649405C780.964117822461 24.748459556418723 782.4419206702769 24.46332360501806 786.737869495315 24.550997563114723M778.903694434647 23.63144102860435C780.0644796928927 24.181071628211715 782.637990979238 24.28120239125351 787.7221229636274 24.208301256237718M787.4369496682289 24.334843055106226C789.1405392774051 107.71732003780313 790.9864582266242 187.313725548144 789.3485139563071 281.85861114898836M787.9967870779217 24.273069894052174C789.2431832394703 121.32749483217601 788.1763551341802 219.5604437708644 787.7527310604197 279.6258048276195M786.4448018754179 281.04208438964537C786.1517703770979 281.23786883344184 782.0609500123974 280.81341970774315 777.7843078496326 280.94073218964434M787.7678882909069 280.1465122267046C785.5142962187025 279.4945709907425 782.7250858949252 279.5364072318712 778.4333448980776 279.3836402392235M779.3533474668278 391.6319548682155C781.1963862440762 391.99615581661857 782.5600394685281 391.85305622693005 788.1144974458016 392.6376267796471M778.3942540094694 392.3135786673867C780.7752545476112 391.8244541394299 782.8473513958648 392.41263349848504 787.169618426727 391.7335931127017M786.0726321027265 393.955837369884C787.068858703958 450.38700952132393 784.3703702813623 513.1005039441903 787.1951547453339 617.5081138391081M787.3033633073455 391.6217687327084C786.4949801102296 452.8452603722714 787.2993009291204 514.7617678552326 787.6930955446868 616.1777055447927M786.3832780490787 616.7913695551231C785.9746061642277 616.2810826359013 783.6859435825588 616.8354415703899 779.7410977189791 617.1279982815199M787.2951981507216 615.597066054797C785.3467933732776 615.724517401404 783.0119153038621 615.9626133932212 778.3365000765184 616.1110599765714M923.4933319457085 7.6003347991798C924.3656885840696 7.86831007285085 927.3426423290794 7.523242147926517 931.7921868105959 8.56617264329263M922.9068126749996 7.813336018523505C924.5976125570711 8.463291262330198 926.427328979376 7.530266552321719 931.3859773089617 8.575365190605735M930.5188830833479 8.852710648459173C932.1781748089712 114.5913013421336 929.8098509486488 223.31221354373528 933.5149004163264 296.6269451530417M931.578103831709 7.974890836098791C929.0606060661871 84.55386697807062 929.5439934012027 160.64172392524904 930.5064081331491 295.87688772144537M932.7186479277856 295.11342011238156C928.7934778610266 297.1346060834476 926.1820038742113 296.62570831245034 921.8737499551664 295.54779563648214M931.6322865924737 296.2190325207915C928.529928666312 295.9520441024131 925.8241826324894 295.86525415920147 922.1912632865078 295.3960183406877"/>
    <defs xmlns="http://www.w3.org/2000/svg">
        <marker id="iPointer-2uh2ej7fze2" fill="#000" markerHeight="7" markerUnits="strokeWidth" markerWidth="8" orient="auto" refX="5" refY="5" viewBox="0 0 10 10">
            <path d="M 10 0 L 10 10 L 0 5 z"/>
        </marker>
        <marker id="Pointer-2uh2ej7fze2" fill="#000" markerHeight="7" markerUnits="strokeWidth" markerWidth="8" orient="auto" refX="5" refY="5" viewBox="0 0 10 10">
            <path d="M 0 0 L 10 5 L 0 10 z"/>
        </marker>
        <filter id="dsFilterNoBlur" width="150%" height="150%">
            <feOffset dx="3" dy="3" in="SourceGraphic" result="offOut"/>
            <feColorMatrix in="offOut" result="matrixOut" type="matrix" values="0.2 0 0 0 0 0 0.2 0 0 0 0 0 0.2 0 0 0 0 0 1 0"/>
            <feBlend in="SourceGraphic" in2="matrixOut" mode="normal"/>
        </filter>
        <filter id="dsFilter" width="150%" height="150%">
            <feOffset dx="3" dy="3" in="SourceGraphic" result="offOut"/>
            <feColorMatrix in="offOut" result="matrixOut" type="matrix" values="0.2 0 0 0 0 0 0.2 0 0 0 0 0 0.2 0 0 0 0 0 1 0"/>
            <feGaussianBlur in="matrixOut" result="blurOut" stdDeviation="3"/>
            <feBlend in="SourceGraphic" in2="blurOut" mode="normal"/>
        </filter>
    </defs>
    <g xmlns="http://www.w3.org/2000/svg" id="lines-2uh2ej7fze2" fill="none" stroke="#000" stroke-width="2">
        <g id="group1511">
            <path id="path1511" marker-end="url(#Pointer-2uh2ej7fze2)" d="M 319.5 296 L 319.5 376"/>
        </g>
        <g id="group2976">
            <path id="path2976" d="M 643.5 104 L 652.5 104 L 652.5 200 L 643.5 200"/>
        </g>
        <g id="group2995">
            <path id="path2995" d="M 643.5 408 L 652.5 408 L 652.5 600 L 643.5 600"/>
        </g>
        <g id="group3586">
            <path id="path3586" d="M 778.5 24 L 787.5 24 L 787.5 280 L 778.5 280"/>
        </g>
        <g id="group3609">
            <path id="path3609" d="M 778.5 392 L 787.5 392 L 787.5 616 L 778.5 616"/>
        </g>
        <g id="group4241">
            <path id="path4241" d="M 922.5 8 L 931.5 8 L 931.5 296 L 922.5 296"/>
        </g>
    </g>
    <text id="text13" x="305.1" y="284.8" fill="#000" stroke="none" font-family="xkcd Script" font-size="120%">
        AWS
    </text>
    <text id="text0" x="116.1" y="76.8" fill="#fff" stroke="none" font-family="xkcd Script" font-size="120%">
        Secrets Manager
    </text>
    <text id="text1" x="440.1" y="76.8" fill="#fff" stroke="none" font-family="xkcd Script" font-size="120%">
        RDS
    </text>
    <text id="text4" x="287.1" y="156.8" fill="#000" stroke="none" font-family="xkcd Script" font-size="120%">
        EKS
    </text>
    <text id="text11" x="125.1" y="236.8" fill="#fff" stroke="none" font-family="xkcd Script" font-size="120%">
        CodeDeploy
    </text>
    <text id="text12" x="458.1" y="236.8" fill="#fff" stroke="none" font-family="xkcd Script" font-size="120%">
        SQS
    </text>
    <text id="text25" x="197.1" y="604.8" fill="#000" stroke="none" font-family="xkcd Script" font-size="120%">
        Any managed Kubernetes service
    </text>
    <text id="text16" x="116.1" y="460.8" fill="#fff" stroke="none" font-family="xkcd Script" font-size="120%">
        Vault operator
    </text>
    <text id="text17" x="368.1" y="460.8" fill="#fff" stroke="none" font-family="xkcd Script" font-size="120%">
        PostgreSQL operator
    </text>
    <text id="text23" x="134.1" y="556.8" fill="#fff" stroke="none" font-family="xkcd Script" font-size="120%">
        Jenkins X
    </text>
    <text id="text24" x="386.1" y="556.8" fill="#fff" stroke="none" font-family="xkcd Script" font-size="120%">
        Kafka operator
    </text>
    <text id="text2" x="602.1" y="140.8" fill="#000" font-family="xkcd Script" font-size="120%">
        RBAC
    </text>
    <text id="text3" x="674.1" y="140.8" fill="#000" font-family="xkcd Script" font-size="120%">
        IAM
    </text>
    <text id="text5" x="602.1" y="156.8" fill="#000" font-family="xkcd Script" font-size="120%">
        CNI
    </text>
    <text id="text6" x="674.1" y="156.8" fill="#000" font-family="xkcd Script" font-size="120%">
        SGs &amp; NACLs
    </text>
    <text id="text7" x="809.1" y="156.8" fill="#000" font-family="xkcd Script" font-size="120%">
        Terraform
    </text>
    <text id="text8" x="602.1" y="172.8" fill="#000" font-family="xkcd Script" font-size="120%">
        CSI
    </text>
    <text id="text9" x="674.1" y="172.8" fill="#000" font-family="xkcd Script" font-size="120%">
        S3/EBS/EFS
    </text>
    <text id="text10" x="809.1" y="172.8" fill="#000" font-family="xkcd Script" font-size="120%">
        (1000+ lines)
    </text>
    <text id="text14" x="107.1" y="316.8" fill="#000" font-family="xkcd Script" font-size="120%">
        Infrastructure as CODE
    </text>
    <text id="text15" x="332.1" y="380.8" fill="#000" font-family="xkcd Script" font-size="120%">
        Infrastructure as DATA
    </text>
    <text id="text18" x="602.1" y="492.8" fill="#000" font-family="xkcd Script" font-size="120%">
        RBAC
    </text>
    <text id="text19" x="602.1" y="508.8" fill="#000" font-family="xkcd Script" font-size="120%">
        CNI
    </text>
    <text id="text20" x="674.1" y="508.8" fill="#000" font-family="xkcd Script" font-size="120%">
        Terraform
    </text>
    <text id="text21" x="602.1" y="524.8" fill="#000" font-family="xkcd Script" font-size="120%">
        CSI
    </text>
    <text id="text22" x="674.1" y="524.8" fill="#000" font-family="xkcd Script" font-size="120%">
        (100+ lines)
    </text>
</svg>
