<svg xmlns="http://www.w3.org/2000/svg" width="892" height="672" version="1.1">
    <path fill="#fff" d="M51.09331672451226 8.595791411667596 L591.5406713712676 8.739645026053768 L592.08538850002 297.80859741358 L48.1891141920205 295.1456999379625 L51.74546566276513 5.350968775735964"/>
    <path fill="none" stroke="#000" stroke-width="2" d="M47.614603014671594 5.4200229840178515 M49.30691603183725 7.406221728837117 C177.35482882705395 6.365150661970252, 305.4262637736749 6.873388534220517, 590.521615714806 8.17280720892537 M49.10437484072303 7.69166347260194 C224.4916981230666 5.007176313867239, 399.95369300649503 5.676079142293165, 589.5985899572574 7.73733013285615 M589.2554025567222 7.726514610656375 C584.683029282648 106.52037670125691, 588.071954770416 204.69061432932875, 587.804610744491 295.4800462734346 M588.4892277846322 8.96234159316909 C589.9654401241319 117.11365301766149, 589.4102558848808 224.80255085820838, 589.209039256902 296.64096702771855 M587.334943472328 296.7945463497682 C518.4458385672965 294.5263160366407, 448.3207950097265 297.5912081081947, 317.6329260625198 297.2801229610722 M590.1046652694909 296.6957584046528 C510.64935066202185 297.5057590627748, 433.8768610487153 298.0598703268249, 318.45628750621023 296.4492852469055 M317.60069378677264 295.38872011055156 C228.22192766980766 299.7331440356889, 136.45808536655565 297.0322387751858, 48.29531108933128 296.3903837796358 M318.62595648858627 296.50040743531576 C241.9999109880395 298.3030232553842, 162.58328560697174 297.7935952909613, 49.30600736538806 295.4569258836551 M47.93030027472708 297.63769419012567 C53.2475174399817 190.03714025482807, 51.26537130472523 89.13983640342799, 48.02818927026314 6.16292254442338 M48.88093347234507 296.97490720139257 C48.29518473100844 206.8848538039673, 48.973914311917966 117.16676760050626, 49.03582144438084 7.849409174714026"/>
    <path fill="#ef5ba1" d="M68.44735699922748 41.87668671610809 L303.5592958513509 37.519121710886246 L302.42521423603466 101.41881130846613 L66.13079042330791 106.0316452777187 L65.03060347859864 38.60626064750104"/>
    <path fill="none" stroke="#000" stroke-width="2" d="M66.45971556854128 40.73423857667076 M68.45316299154588 40.62774836088867 C135.36087795691418 39.49947832477018, 202.86272096698252 37.78576242257285, 300.3754994364852 39.36045845134016 M68.20209466839228 40.196751566860556 C122.75282418101892 41.46171136859207, 178.25587292796763 40.6905710391469, 302.0707348019645 40.823693700531834 M304.1340205184686 40.509801872452954 C299.57231255466587 58.28586356600717, 303.88968049784495 68.45692140316169, 300.05884003815373 103.04701672166266 M301.18213283106235 39.68466553791241 C302.276617347508 64.0761067777843, 301.64445810521363 88.02675757652688, 301.56205771722523 105.3016769160291 M299.1428638519765 102.3810765127735 C223.61717281110205 106.30570653910173, 145.85207674913403 105.60779291319481, 68.05269093931085 101.64021722367339 M301.5260288762079 105.17345193864513 C231.05517853583464 104.32224185471617, 162.48293309666278 103.8335358975007, 66.8634430873762 105.1369471548076 M68.86598240311432 102.22643390630256 C69.10040801883949 84.62412411830447, 64.76347848303482 69.14120929813798, 65.97604361196572 42.53810603195743 M67.13741880799061 104.32482125295046 C67.58193695450555 79.85910915923668, 67.17325309137362 54.0382008126653, 68.26296657422354 39.203147240605176"/>
    <path fill="#f99c41" d="M340.23908979549486 39.48989316728621 L571.1454282545849 41.454108103031466 L570.6836679535357 102.87193720118958 L335.1480331214516 105.77371662884543 L338.9905071662826 42.17565174426272"/>
    <path fill="none" stroke="#000" stroke-width="2" d="M336.5503241918821 38.30973226209039 M339.73860818487503 39.005006046564425 C400.3218488112508 41.403689651040004, 462.945192740505 40.734908409067934, 572.3391131605396 40.32326268849256 M338.2372088711907 40.678553807792696 C388.5235897526433 39.432862612943126, 439.34128178556085 39.66937078117138, 571.7145471284219 39.12302171724982 M570.234125254587 39.2017881435012 C568.6178157171818 63.74501032132393, 572.5822406287705 83.24929607232625, 569.4727964764782 106.67468602286863 M571.4726052872029 39.38241054481186 C571.9426429508474 64.26601916435736, 573.1169911926379 86.36709310681255, 571.6054360784772 104.61964555096115 M572.0366889483187 104.5019709449862 C503.48168898386547 108.33655898404896, 430.5801812195029 108.00087377075118, 337.19847291156685 102.5929396523971 M571.1050419176129 103.48434175616765 C513.039938198287 107.00240097203762, 454.7439327908012 105.34795316777655, 338.02530911630447 103.53251125826318 M338.018457899012 105.80749788443245 C337.0027984102571 83.95538820560542, 338.1024755699545 61.94619571898245, 335.84308699642935 39.61093490889616 M338.43330728872354 104.45139565756435 C337.7618340210326 84.84422366137169, 337.47992116957624 66.90498988667532, 338.5142940977029 38.84129107882109"/>
    <path fill="#fff" d="M157.20498299615718 119.10009337932351 L470.7892659848716 119.1050636320293 L472.6651072910354 181.96196047807607 L156.07503840312856 182.24218358739307 L156.02470681375706 122.69551800543559"/>
    <path fill="none" stroke="#000" stroke-width="2" d="M156.17640957650656 121.07609958288522 M155.9873214440354 118.37839215598643 C274.5509348196316 118.93159066002886, 388.7327665963247 118.13626978693856, 471.2194912238518 120.8835713858506 M157.4800052386848 119.5748017900704 C262.7020889527433 117.90403798511619, 368.3164204244475 119.59979979778, 471.7662415687444 120.36329601222032 M474.93804793276433 118.18263588381305 C472.33402125269777 136.28214598677587, 470.3041267617772 154.42301703354605, 470.2429495620396 183.4523643396893 M473.3618399903511 121.37922468546586 C471.10695320638547 141.40699177746683, 472.42587918193436 162.39531593725505, 473.75843926068956 185.17486341308032 M473.2535814028518 183.4106215587924 C351.249624151629 182.01071234896918, 226.77116105095223 181.953169605057, 156.21017112993832 182.18291960174307 M473.375085915647 183.9803231628401 C353.57100783554574 186.43542516979468, 233.9220578780368 185.9362127734453, 156.57929935070314 183.14709725505656 M156.43143007527834 183.80541313100403 C156.08057112741716 162.8966015526015, 159.117107093752 147.53519403892133, 158.22524760571574 118.3658520897654 M158.32080423495572 183.92239445332453 C158.98742603149287 167.11288178769246, 156.81686642502166 151.56215844567487, 157.8361092068335 120.13212490871592"/>
    <path fill="#27bdce" d="M66.26441305716871 197.2024937968992 L303.7592604928559 197.62215373390646 L303.8020232483017 264.4225492354282 L66.33012052695412 263.00021635862356 L65.67777600075642 197.24637408274856"/>
    <path fill="none" stroke="#000" stroke-width="2" d="M66.10005415237974 198.78513911706978 M67.07983245848956 197.75825820884876 C126.23508805200964 204.2188094517441, 185.60160785263025 204.21302559202303, 303.3560394215362 199.43440360830036 M66.98952607572899 198.91855503047384 C160.67535540385637 200.8805653152782, 252.47174591166188 202.07143369361575, 301.86151534309397 199.53604625028646 M300.33956823209957 197.900932357095 C301.0847111974317 213.6142560823615, 300.53601926137617 232.27562426961595, 300.39898745592507 264.7876237911907 M300.9414592366302 200.94508999358368 C300.29979794005897 216.29189835572078, 301.03928641387296 232.51805832407626, 300.363991102824 263.24795383463623 M302.22220984015763 263.51029744789304 C225.59108956036326 262.35740267505577, 152.72727835660038 263.6792142545719, 69.82993630723614 264.9110036162418 M302.68059852097525 263.34552088706914 C234.94160084150747 264.0941000161985, 167.13926544018042 263.3048121104887, 67.99050978071907 263.54751913910104 M69.03016976396756 263.99918249269393 C66.42228032739902 238.1077407675366, 65.68616754712664 213.43324419438105, 66.86824954780022 199.93698897948707 M68.80334881693416 262.78925957850277 C66.84787013573195 243.83666759185905, 68.9977582860004 220.50002000172955, 68.01567909529595 199.17667404529965"/>
    <path fill="#00aa5b" d="M337.3230809674375 199.20131361210662 L574.0350153910018 199.59906399412284 L570.2113973566331 263.01514293300204 L335.40958321595537 263.0129262413262 L335.81672105759935 198.9532977353374"/>
    <path fill="none" stroke="#000" stroke-width="2" d="M339.4489759529479 198.74587368571375 M336.5022024362245 202.15185571077893 C394.0800721318443 202.61303863701198, 449.30011646351267 202.08706056135028, 572.4015893779791 201.05536257641992 M336.63012030163037 199.268988585829 C396.1252971204233 200.58911459667308, 455.0986240863767 201.76803872536226, 572.6061482762378 200.14335550291744 M572.046253085928 197.57477066613174 C569.859687766967 220.28060106365447, 569.621302181835 244.09121226287024, 572.563405751044 262.13998098435985 M570.3029950126027 199.7887635931278 C571.5921615286765 216.69994071587135, 570.9451583510471 232.0293628515923, 570.6342246630899 264.20450151176226 M570.6373186233069 265.9073322842607 C501.5750669346182 266.2193148861362, 430.34168111149455 266.6079569362471, 336.9351151597688 261.8352700640142 M570.9862087625656 264.7394875736857 C493.3987248188289 263.2535393751456, 417.88334802104026 264.1886627816728, 337.4631501802126 264.4710002440197 M339.1253270700996 265.89054121499646 C338.7322925563308 243.3783437849619, 339.99511215525007 223.46396220878088, 340.0802199952632 198.5732548220214 M338.0418224267094 264.3656435777508 C336.61767443978783 238.87333256562343, 338.4664647013189 213.16756591487064, 337.05106220476443 200.68851533916313"/>
    <path fill="#fff" d="M46.73737025747105 394.7433812912168 L590.4928198914902 393.9955299058929 L586.8602232371013 617.8968088601799 L48.51068736736052 617.6318503549453 L49.886200129011925 392.48040227634556"/>
    <path fill="none" stroke="#000" stroke-width="2" d="M51.41075290126319 393.66212010752497 M51.581170536514904 393.37793236206596 C106.16327932369303 389.14541938292484, 164.40034687007548 388.71780638719673, 318.6180775055714 391.37740497427484 M50.23162822144092 391.823732571852 C124.91421322314471 389.03922895433516, 200.8481624788197 390.38301834685166, 318.58801488498034 392.3954893319629 M321.175744708007 392.8547901578061 C388.06137646757674 393.70065670683255, 458.09391910352906 392.3868743781806, 587.5243461746935 392.78352777814075 M320.39769174033 392.77920370857436 C400.89498252362057 390.4809360398476, 482.7688202151526 391.5123484489517, 588.4719193388303 391.05561345841613 M588.5155348907319 393.1951628365877 C586.1532134828295 445.1657361238204, 589.034570559933 500.26217399773725, 587.1845688830507 615.2367606190195 M588.4893694612865 392.87116164720635 C587.9528387848427 439.2112351334916, 587.2201252803868 485.89893493932, 588.5966779959026 615.0778272736064 M588.9204084970019 615.1645094321202 C374.198076726984 616.0530588849914, 159.64768006539737 615.9958982896457, 48.45555957068398 614.9572621659131 M589.6777755853763 615.8398421894276 C373.8741424526881 616.8190422333956, 159.68008577079104 616.1126333160939, 48.982416496442745 616.0516361559482 M48.10814209064741 616.6715772509309 C51.53717065102577 560.288681783461, 51.59335326124982 509.3817161673257, 48.836413104471035 393.27667541112703 M48.79453277416334 616.274642525888 C50.99882813654361 542.6729173430857, 51.669524659261796 466.8806566796251, 49.79520440075172 391.6609064242754"/>
    <path fill="#ef5ba1" d="M69.9867158446992 426.1099114893426 L301.7792037381063 424.6653278355967 L299.68209468470013 485.9281066914984 L70.12478124272675 485.2065331092428 L66.9479525493094 423.07024789628196"/>
    <path fill="none" stroke="#000" stroke-width="2" d="M66.31629382013634 424.09754796762064 M65.68667550468112 422.2092976134431 C152.75917986773047 425.4083310377256, 242.80315828471387 424.19817970839955, 300.9747531818625 424.31908805462604 M68.24434602118926 423.48547114775374 C135.81965075591924 423.93237771311453, 202.3164665187282 422.6753859647614, 300.6188236346549 423.87981449105314 M301.4032448137135 423.15832345954476 C302.20471467520406 439.92913419185203, 302.55997493492436 457.45568259516745, 302.09806268464456 488.7541275881158 M301.88809504652835 423.4041977312721 C301.62810126033287 440.78968054014695, 300.1993473395616 459.93553521649375, 300.17131369727724 489.31841029667703 M300.88097156760864 488.4442763773356 C228.53754192411773 488.1740640595824, 154.4876713806361 487.63938724894, 67.18569632637261 488.30257154564936 M300.90017525495733 489.0129936811518 C235.25818002465633 485.28587928073506, 171.5526921623399 486.9904475165157, 66.51426464773486 487.6727391736959 M65.29214971080364 488.1881884494422 C66.76273287258023 466.213113995747, 66.7620683888204 440.56099179914526, 68.94462953170004 426.1296687738621 M67.97996918126009 487.79299462744274 C67.28549994802991 473.1528894435549, 65.89334043582124 457.59095758850344, 67.32513593887052 425.04462023977686"/>
    <path fill="#f99c41" d="M338.5484377466331 423.8008324960101 L570.5697360108956 425.86459549685316 L573.7193575524027 486.3641152408847 L336.54047200536735 487.6758460547291 L337.104211041292 421.5086735694655"/>
    <path fill="none" stroke="#000" stroke-width="2" d="M336.4833725460638 421.40979111563064 M335.15152717228693 426.1752993303344 C412.47066472842243 423.3283725967881, 487.6381683119342 420.4613795439197, 573.8316985274853 426.2507737840814 M337.7823859535248 424.74606053999474 C403.7334940550849 423.1619664542141, 469.87865351792436 422.998322471176, 570.7137147803127 423.31473369630555 M572.1782918524332 424.60965424496897 C574.1344072800649 446.9198904746514, 570.0348284210045 473.603708733189, 569.3631241864452 490.23698704065174 M570.2770834885814 423.65041389824785 C571.1841154473559 438.02996337997683, 571.0698845588549 451.552019497857, 570.1926163200357 488.6439584087981 M570.2932983152385 489.7976248212783 C499.70329568193836 489.96494513296744, 430.61995978477 486.10107225243155, 337.29991037605276 486.3178652636956 M572.2260345377118 488.45503214073545 C509.3858229226971 488.12687281378044, 444.8556333900295 488.99768593258915, 337.8373663759217 487.0830854943486 M339.2774450730976 488.3298559245304 C340.6997378282938 462.00905710120566, 339.8870478997783 440.99710104243275, 337.8477292953088 422.11989968452946 M337.00147648722776 489.03966408629714 C338.6583428660568 463.0465624356308, 336.9854134062549 438.2863946475002, 337.693254166694 423.97660729262134"/>
    <path fill="#27bdce" d="M66.45664575693081 522.5717412546597 L299.5287627810423 522.425801378866 L298.9872504635114 585.7978547977403 L66.9432453551548 582.7256338984196 L68.57078124397376 519.193135497038"/>
    <path fill="none" stroke="#000" stroke-width="2" d="M69.16385139232588 519.6038103902796 M68.55444363848704 518.1226195064296 C126.12054668914784 520.939246286672, 183.13468586633923 523.5777496423224, 302.08628845188275 519.405516799035 M66.60442448306912 518.9138435314427 C159.30267996874923 519.1635785373555, 252.481271072903 519.9986044181079, 301.94355250347934 518.964653628504 M299.7544890280507 521.1277646586866 C300.22430629754894 541.1349975997946, 303.45418366330637 561.9631480740078, 303.58482886518357 581.3732436659229 M301.760783371632 520.8494209361099 C302.8033470441109 545.2871883978493, 300.6160766063592 567.8704833371178, 302.8908436847852 583.4143182024516 M302.0549554035616 581.9771298986838 C221.13068956474842 581.7311991424981, 140.01307434803536 584.4529323911324, 66.05385472890659 585.4331445672748 M302.3455934362003 584.0397994321804 C231.6677080078779 584.6675089139608, 162.5911233113264 585.405456814222, 67.1068839416611 583.4819560441684 M65.85933465618291 581.762779178338 C65.10536616997811 569.2450487603427, 64.9959098922696 558.4726346407566, 67.76795673923479 518.1925117824837 M67.3772363082804 584.4440410936201 C67.07795671970824 568.8786283808975, 68.28698858198412 554.0318082397071, 68.61504903985443 520.025006612688"/>
    <path fill="#00aa5b" d="M335.9918380743999 521.0643658332268 L570.2281073046076 522.2322297719948 L573.0999736074889 583.9755348548948 L337.43171961250084 582.3730340818423 L340.18590002566924 520.6694539102216"/>
    <path fill="none" stroke="#000" stroke-width="2" d="M335.82581572364916 518.3148814153008C414.3870594177428 519.5512494522148 489.94042786849644 519.9481591586986 570.297039331111 521.89826639456M336.4080853867551 519.719749663203C391.39744772855533 517.1430285459503 444.5541481331273 518.5140031901993 571.3799791948933 519.8900266684068M570.1490015220886 520.7508296889057C574.2421470800474 535.7401497119637 573.6611008146342 558.3616650153825 569.7012224631355 585.4082886346664M572.7357935808038 519.0328738537628C572.1769859016949 540.0894545026582 571.7261300761015 561.0718555062077 570.2692460085848 584.7037054922469M571.0280811348099 583.6082549497816C518.5989540932914 586.6306714056043 468.1749115373821 587.8479965251623 337.7785462100695 584.6646518335139M570.6556117207002 583.3233642352918C506.9855834401717 586.4611904945507 442.53648754681035 586.8684343286267 338.6592669717974 583.0732956680532M340.26026432632716 583.512415280753C338.5058757515555 561.7448992643928 337.99095895789975 543.0512728390364 339.05631259640506 520.1974064278414M336.7341384792791 584.4483647962516C338.9316171262211 567.9314731596436 336.7155621272568 550.848696802999 337.58085369524525 518.9848853146359M318.6900395658089 293.4887163065878C322.36840020251145 317.0933691689279 321.1242505249003 342.08315881987437 321.23989793689543 378.530837390232M320.09814769813494 296.8212352449991C319.64641640686153 324.48079870968434 319.30767894799686 354.7316012594914 320.67484028737744 376.3797411079966M724.3923898292718 119.72317233306656C726.6655870510735 120.03964853684285 729.1432757105666 119.56584210504026 732.9142750026398 119.02336188457456M724.9107259577694 119.64267209509555C726.5118383551074 120.46898456548392 728.7592153934286 120.41560472718801 733.8437977784754 119.58177177671332M733.3391718747362 118.42036535436418C730.344556643181 140.17319013724008 732.648001629302 161.9341100735721 732.2499384916388 183.93892167248123M734.2351506573632 118.97343564327056C732.3722333551915 143.30909811640413 733.2456014761833 168.28310398549948 732.7178543644204 184.11790238109825M734.1850660194093 184.24261747214447C731.3640048207933 184.46057239012313 728.7768093284442 184.17885462817839 724.2725497548064 184.71913755597677M733.7434788910094 183.44663235073193C730.1964623769376 184.39937076591195 726.9294360046034 184.46086685815894 724.316454620993 183.57173177450812M723.7049826672314 424.4841689630349C727.4002168322014 422.8876319961629 732.3508572156904 424.10925330482706 732.3938192531112 423.9259403816029M724.4967061288282 424.47183580565985C725.7075433448201 424.2331655193743 728.4423802420253 423.78783118455686 734.0174362234039 424.4378533545324M731.7654873208754 423.3169094107458C732.3426597510261 484.0957167241933 734.9338681998576 541.6624096401589 734.8334031311897 586.5295652169705M734.475079410286 425.0299253792538C731.4012230213676 461.2600451125654 733.4708394264358 497.5361724794966 733.1272571846748 584.6989973598099M733.4297067259976 584.6174222903363C731.2891172206776 583.8177516558837 728.0989703362363 582.9929852977781 723.4687898699458 585.118271482431M732.92105780051 583.4330887173684C730.0885955844968 583.5287352909432 727.4298663833464 583.6573747430305 724.0225627195572 583.4559563322263M760.3575110329466 8.550932063649407C762.964117822461 8.748459556418723 764.4419206702769 8.463323605018061 768.737869495315 8.550997563114725M760.903694434647 7.63144102860435C762.0644796928927 8.181071628211713 764.637990979238 8.281202391253512 769.7221229636274 8.20830125623772M769.4218351888179 8.415111918411275C769.6334351723638 25.18168216804443 771.9218593894914 37.254580656639156 771.7916413015322 58.30415900187145M770.1158773007628 8.338530442402043C770.4595723782788 26.132510655296393 769.137003327947 45.3875316492602 769.8133159661909 55.5361024411337M767.1551152787063 58.31574308810086C771.8067720907264 70.06018340814481 767.506139682698 80.61315396128248 767.9095729991834 106.09051597698745M770.0953073131262 56.32558272601018C770.1268525101749 68.78245586185002 769.6118860011312 82.51529405835427 769.3518775512836 102.63031164271888M768.9382835747545 103.93867255996273C767.1817110352644 103.5600443047376 763.6667602629341 103.91811250913699 760.1873332324977 103.84692348292636M769.3432495690319 103.79596822170198C766.2553272624683 104.22301133628882 763.4443105614508 103.6930804526725 760.7411704115486 104.37182714282545M759.7530960891078 201.0234380242304C763.6510909748232 199.6055881593883 764.6237606783153 201.36406364679695 769.3404825319653 200.78915612902048M760.397105213695 199.80208157034957C763.0768844824333 200.02602416960124 765.9446007675831 200.55843774324268 769.6010417971274 200.09298861677252M767.0183956646193 201.75859901138466C771.3180763393482 212.61779051063058 771.2229159846863 225.82751483831706 772.2579949310646 250.506662847822M769.0448847793814 199.1045912328822C769.6161763767279 212.4052780230304 769.8366215138652 225.91613159308073 769.1366668367075 248.2467999479364M768.7388116252362 247.87365703496033C771.1094195195585 262.3024688371783 766.3827845712925 278.075948876722 766.9310168864838 294.9279038099994M768.4495277737609 247.1513525534665C770.7059869097551 263.0982837640686 769.9121324958761 279.8859918727931 769.1250227616486 294.78641840474154M769.4975454683937 295.90738096302783C766.3767947872063 296.60339267633765 764.8344383561406 295.32012563820683 759.4938816440837 295.7244184666364M769.0536137713439 295.5295251724295C765.9869063909022 295.939408976575 762.2088574750882 296.2977597156299 760.6171227902423 296.4083195342719"/>
    <path fill="none" stroke="#000" stroke-width="2" d="M772.2081065061902 54.02982247195905C791.7892781698142 59.806535696408076 814.2897744555357 58.67565176085872 857.1083332337032 54.99510141440478M769.7939702054973 56.48673893509222C797.2033303331821 55.40077726840365 825.4940502216203 55.207910727933374 857.8139184144618 54.657818534861505M858.5 56C865.1913039537476 56.25855319470793 869.2642206303244 62.02681562570409 866.142789221328 68.49440349823708M857.6572440022829 55.46036542782058C866.9373660379393 56.90140639431178 868.5743169380632 59.498327929874485 867.1773785454282 65.2154380729823M869.1409314736345 66.9637548689072C868.8802793084614 128.28248282020277 871.6692875247543 195.41533726266263 869.9561313646076 240.22314515313047M868.853395425179 67.13017069170583C866.6228129008612 114.95409456944618 868.8102299143812 166.66651459850584 867.2359736498761 237.3345088727023M868.5 238C871.0883529463943 246.6539842408966 865.7208393738316 245.64179867262283 858.6883893646394 249.75510464756007M868.5227124835191 238.4705670104071C866.6682209185561 241.65120509922863 866.0610604762594 247.28682345692985 857.2511035121919 247.0794229531345M857.4521213080297 246.4925903117501C837.5724087615716 246.84426976795075 818.5766334624603 246.44815916134303 772.1409274001489 246.43877344444917M858.1149023014416 247.3275697951798C835.1014170286384 248.4816371878268 811.7838825209433 248.40407639011764 769.7451277871944 247.16142441720586M769.3685470378542 376.0049410691219C770.963686658947 377.18487774667153 774.3994774318593 376.3563583123764 777.3369410726988 376.57564533466103M770.0727930239115 375.584029151986C773.0033527822638 375.6896635907479 775.5342842442581 376.07400178933625 778.8450412607345 376.1387584517537M777.7815348082444 377.2721337108151C777.250743065513 378.9215757904027 778.3535675941245 384.12063144935877 777.4606532036735 391.81066344108314M778.458988687481 376.89010298101755C777.67924951788 379.2748273702437 778.5025386317974 383.21684463114116 777.823375773885 391.3719326326966M779.2004471733916 390.187785770715C779.3794425024926 397.4984151578543 780.4197209312517 397.32801985603527 780.0724788756343 407.2917917183402M777.8344309658627 391.43699737229036C779.379542920735 395.70348411384185 778.7694510588805 397.6226329914777 779.5422830834391 408.3386161608116M778.6021547549265 408.9989399094458C777.4991802698491 408.34103781435323 775.2195389424026 406.8660884190425 769.1207783527144 406.9335235591948M778.4889071663089 407.4189426411016C774.6033180567762 407.9213372341854 771.1208983385444 408.50156366927814 770.105917504427 407.7508073195856M769.5281788929329 599.3594665756741C773.2790973325847 599.08858582103 774.0972072318189 599.6720319333913 777.9345646563906 599.0832770961295M769.3015669659649 599.6932452450651C773.2865755456967 600.1328066469697 776.9147957393935 599.6714867771199 778.0869083566027 600.2645891619259M776.471217734147 597.9780130607751C777.8528793395877 606.2218149652284 778.50558016082 608.5785888007001 779.0888351061486 614.0977651571607M778.7971687849972 600.3261509960711C778.3997291511355 604.0911238288717 777.9618980402086 608.0956153476104 778.9940538692381 615.325008277552M778.5419890190457 616.6607056630362C780.1155762699623 620.009107447149 778.2325579369534 624.5271007725026 777.7075342963379 631.7609347387647M778.542013586949 616.8790637744643C777.770374974828 621.821963044309 777.8268841724283 628.7276754421491 778.0218224219143 631.1496216151514M778.9770553180045 631.979899072095C777.7161181419756 631.7790298891093 774.6770693104285 632.9872874746997 770.5653060198338 631.5443935320998M779.0344704428501 632.0872883092192C775.3746541606095 631.706340688113 772.2218097481109 632.3789724353617 769.0050094855333 631.8713939531953"/>
    <path fill="none" stroke="#000" stroke-width="2" d="M780.8374358704896 394.5772790367315 M780.0134921709993 391.9206598814373 C801.1403478754103 390.09745126076433, 824.1012242545497 389.7892866426524, 858.8468821032744 391.0252206788922 M778.6436708523531 392.71282246235097 C807.0713597131639 390.15559283124924, 833.7620747192472 391.5090393856578, 857.6716437842206 392.04870319517033 M858.5 392 C865.8089365591483 390.8732415865481, 871.179583713844 396.5228612766438, 866.4983091844812 403.0693122555298 M856.0869626618063 389.371137852886 C867.2207639442094 389.53236722475276, 871.5940635103899 398.14569214454235, 870.9760285555195 404.1428711675008 M870.4437270955833 400.1647893162771 C866.9221661759607 445.7195007047734, 867.1359279048688 483.58868555911613, 867.9396667324343 606.1311445616676 M867.4416649850868 403.0246973436844 C867.6976703095703 481.4558661471786, 866.7807616881562 559.5133688928767, 869.7281445403207 607.0757982130622 M868.5 606 C868.8051304406945 612.5291124699108, 862.9655135315896 615.0834301383948, 859.6917865647913 616.7011061253404 M870.6384645443483 606.2107799766527 C871.1373952232252 614.9334580288488, 865.0441319833573 614.5340199117911, 860.6517826595018 616.2271744868245 M860.4579179339329 615.6901896542556 C826.0282105755116 617.4903681807306, 793.3101403730601 613.1420677541033, 779.3551547721669 618.0972516099838 M858.7165681497397 617.3881698253535 C834.8630231668758 616.2933651725638, 808.5343091798902 614.6408303961756, 777.6433733004669 615.599566853282 M779.1618119233498 613.8399500856339 C779.7424205610863 612.884339377745, 777.0891423833792 607.279831829663, 776.4312100319971 600.9094784942118 M777.9781205265708 615.8930413289636 C779.3145741975381 609.8233151791562, 778.2737760151779 603.837858228769, 778.981967784973 600.8920758790756"/>
    <defs xmlns="http://www.w3.org/2000/svg">
        <marker id="iPointer-socpij08llr" fill="#000" markerHeight="7" markerUnits="strokeWidth" markerWidth="8" orient="auto" refX="5" refY="5" viewBox="0 0 10 10">
            <path d="M 10 0 L 10 10 L 0 5 z"/>
        </marker>
        <marker id="Pointer-socpij08llr" fill="#000" markerHeight="7" markerUnits="strokeWidth" markerWidth="8" orient="auto" refX="5" refY="5" viewBox="0 0 10 10">
            <path d="M 0 0 L 10 5 L 0 10 z"/>
        </marker>
        <filter id="dsFilterNoBlur" width="150%" height="150%">
            <feOffset dx="3" dy="3" in="SourceGraphic" result="offOut"/>
            <feColorMatrix in="offOut" result="matrixOut" type="matrix" values="0.2 0 0 0 0 0 0.2 0 0 0 0 0 0.2 0 0 0 0 0 1 0"/>
            <feBlend in="SourceGraphic" in2="matrixOut" mode="normal"/>
        </filter>
        <filter id="dsFilter" width="150%" height="150%">
            <feOffset dx="3" dy="3" in="SourceGraphic" result="offOut"/>
            <feColorMatrix in="offOut" result="matrixOut" type="matrix" values="0.2 0 0 0 0 0 0.2 0 0 0 0 0 0.2 0 0 0 0 0 1 0"/>
            <feGaussianBlur in="matrixOut" result="blurOut" stdDeviation="3"/>
            <feBlend in="SourceGraphic" in2="blurOut" mode="normal"/>
        </filter>
    </defs>
    <g xmlns="http://www.w3.org/2000/svg" id="lines-socpij08llr" fill="none" stroke="#000" stroke-width="2">
        <g id="group1554">
            <path id="path1554" marker-end="url(#Pointer-socpij08llr)" d="M 319.5 296 L 319.5 376"/>
        </g>
        <g id="group3434">
            <path id="path3434" d="M 724.5 120 L 733.5 120 L 733.5 184 L 724.5 184"/>
        </g>
        <g id="group3453">
            <path id="path3453" d="M 724.5 424 L 733.5 424 L 733.5 584 L 724.5 584"/>
        </g>
        <g id="group3595">
            <path id="path3595" d="M 760.5 8 L 769.5 8 L 769.5 56 L 769.5 104 L 760.5 104"/>
        </g>
        <g id="group3607">
            <path id="path3607" d="M 760.5 200 L 769.5 200 L 769.5 248 L 769.5 296 L 760.5 296"/>
        </g>
        <g id="group3640">
            <path id="path3640" d="M 769.5 56 L 858.5 56 Q 868.5 56 868.5 66 L 868.5 238 Q 868.5 248 858.5 248 L 769.5 248"/>
        </g>
        <g id="group3661">
            <path id="path3661" d="M 769.5 376 L 778.5 376 L 778.5 392 L 778.5 408 L 769.5 408"/>
        </g>
        <g id="group3675">
            <path id="path3675" d="M 769.5 600 L 778.5 600 L 778.5 616 L 778.5 632 L 769.5 632"/>
        </g>
        <g id="group3704">
            <path id="path3704" d="M 778.5 392 L 858.5 392 Q 868.5 392 868.5 402 L 868.5 606 Q 868.5 616 858.5 616 L 778.5 616 L 778.5 600"/>
        </g>
    </g>
    <text id="text10" x="305.1" y="284.8" fill="#000" stroke="none" font-family="xkcd Script" font-size="120%">
        AWS
    </text>
    <text id="text0" x="116.1" y="76.8" fill="#fff" stroke="none" font-family="xkcd Script" font-size="120%">
        Secrets Manager
    </text>
    <text id="text1" x="440.1" y="76.8" fill="#fff" stroke="none" font-family="xkcd Script" font-size="120%">
        RDS
    </text>
    <text id="text3" x="287.1" y="156.8" fill="#000" stroke="none" font-family="xkcd Script" font-size="120%">
        EKS
    </text>
    <text id="text8" x="125.1" y="236.8" fill="#fff" stroke="none" font-family="xkcd Script" font-size="120%">
        CodeDeploy
    </text>
    <text id="text9" x="458.1" y="236.8" fill="#fff" stroke="none" font-family="xkcd Script" font-size="120%">
        SQS
    </text>
    <text id="text22" x="197.1" y="604.8" fill="#000" stroke="none" font-family="xkcd Script" font-size="120%">
        Any managed Kubernetes service
    </text>
    <text id="text13" x="116.1" y="460.8" fill="#fff" stroke="none" font-family="xkcd Script" font-size="120%">
        Vault operator
    </text>
    <text id="text14" x="368.1" y="460.8" fill="#fff" stroke="none" font-family="xkcd Script" font-size="120%">
        PostgreSQL operator
    </text>
    <text id="text20" x="134.1" y="556.8" fill="#fff" stroke="none" font-family="xkcd Script" font-size="120%">
        Jenkins X
    </text>
    <text id="text21" x="386.1" y="556.8" fill="#fff" stroke="none" font-family="xkcd Script" font-size="120%">
        Kafka operator
    </text>
    <text id="text2" x="809.1" y="140.8" fill="#000" font-family="xkcd Script" font-size="120%">
        plan,
    </text>
    <text id="text4" x="602.1" y="156.8" fill="#000" font-family="xkcd Script" font-size="120%">
        reconciliation
    </text>
    <text id="text5" x="800.1" y="156.8" fill="#000" font-family="xkcd Script" font-size="120%">
        apply,
    </text>
    <text id="text6" x="638.1" y="172.8" fill="#000" font-family="xkcd Script" font-size="120%">
        loop
    </text>
    <text id="text7" x="764.1" y="172.8" fill="#000" font-family="xkcd Script" font-size="120%">
        save state
    </text>
    <text id="text11" x="107.1" y="316.8" fill="#000" font-family="xkcd Script" font-size="120%">
        Infrastructure as CODE
    </text>
    <text id="text12" x="332.1" y="380.8" fill="#000" font-family="xkcd Script" font-size="120%">
        Infrastructure as DATA
    </text>
    <text id="text15" x="809.1" y="492.8" fill="#000" font-family="xkcd Script" font-size="120%">
        plan,
    </text>
    <text id="text16" x="602.1" y="508.8" fill="#000" font-family="xkcd Script" font-size="120%">
        reconciliation
    </text>
    <text id="text17" x="800.1" y="508.8" fill="#000" font-family="xkcd Script" font-size="120%">
        apply,
    </text>
    <text id="text18" x="638.1" y="524.8" fill="#000" font-family="xkcd Script" font-size="120%">
        loop
    </text>
    <text id="text19" x="764.1" y="524.8" fill="#000" font-family="xkcd Script" font-size="120%">
        save state
    </text>
</svg>
