<svg xmlns="http://www.w3.org/2000/svg" width="658" height="288" version="1.1">
    <path fill="#fff" d="M51.09331672451226 24.595791411667598 L591.5406713712676 24.73964502605377 L592.08538850002 249.80859741358 L48.1891141920205 247.1456999379625 L51.74546566276513 21.350968775735964"/>
    <path fill="none" stroke="#000" stroke-width="2" d="M47.614603014671594 21.42002298401785 M49.121894284765126 22.83723666938664 C113.95790477141188 22.147570085704892, 178.83997739343522 23.142824357849612, 321.50057386544034 24.338398852842058 M48.72526900997167 23.396201536905387 C136.309316093341 20.696822437033198, 224.03958846617675 22.006698056284122, 319.6930632908497 23.48562804601489 M319.2456606833697 23.715622182710103 C410.4229630995341 22.76532004678102, 506.8278312899773 21.82656852613093, 587.7370864597356 23.45933745781708 M318.4489705571715 25.00066991662524 C420.78549353256375 22.7797016561051, 521.9869201403485 21.869775897297732, 589.1974508172526 24.66649558404147 M587.1230178116791 24.87232018982209 C590.5693609062945 80.46098431650161, 591.4583527464225 142.6754733183128, 587.450168304178 249.4054272664192 M590.1638526787203 24.763862427653287 C589.9934714119101 88.7404625893105, 591.313313369294 154.038899303128, 588.354124141445 248.49326334703971 M588.5300977593573 247.68784299745516 C407.67435764396157 251.22126002854512, 225.60065134645527 249.84201215072437, 48.88481195628294 248.19935390088358 M589.0536597762723 248.25553872744 C433.115900472402 249.82801445572093, 275.75309992980976 249.56786929287213, 49.400935462819035 247.72267304839542 M47.708012991841805 249.86961026035164 C53.06258834893648 164.85063406596046, 50.799747841633085 87.48416418814594, 47.81976417929378 21.902771542626574 M48.79326663126583 249.1129651174218 C48.497909736475094 178.93370817351797, 49.272755123436646 109.1790931966815, 48.97008849670879 23.828083806020054"/>
    <path fill="#ef5ba1" d="M68.44735699922748 57.87668671610809 L303.5592958513509 53.519121710886246 L302.42521423603466 117.41881130846613 L66.13079042330791 122.0316452777187 L65.03060347859864 54.60626064750104"/>
    <path fill="none" stroke="#000" stroke-width="2" d="M66.45971556854128 56.73423857667076 M68.45316299154588 56.62774836088867 C135.36087795691418 55.49947832477018, 202.86272096698252 53.78576242257285, 300.3754994364852 55.36045845134016 M68.20209466839228 56.196751566860556 C122.75282418101892 57.46171136859207, 178.25587292796763 56.6905710391469, 302.0707348019645 56.823693700531834 M304.1340205184686 56.509801872452954 C299.57231255466587 74.28586356600718, 303.88968049784495 84.45692140316169, 300.05884003815373 119.04701672166266 M301.18213283106235 55.68466553791241 C302.276617347508 80.0761067777843, 301.64445810521363 104.02675757652688, 301.56205771722523 121.3016769160291 M299.1428638519765 118.3810765127735 C223.61717281110205 122.30570653910173, 145.85207674913403 121.60779291319481, 68.05269093931085 117.64021722367339 M301.5260288762079 121.17345193864513 C231.05517853583464 120.32224185471617, 162.48293309666278 119.8335358975007, 66.8634430873762 121.1369471548076 M68.86598240311432 118.22643390630256 C69.10040801883949 100.62412411830447, 64.76347848303482 85.14120929813798, 65.97604361196572 58.53810603195743 M67.13741880799061 120.32482125295046 C67.58193695450555 95.85910915923668, 67.17325309137362 70.0382008126653, 68.26296657422354 55.203147240605176"/>
    <path fill="#f99c41" d="M340.23908979549486 55.48989316728621 L571.1454282545849 57.454108103031466 L570.6836679535357 118.87193720118958 L335.1480331214516 121.77371662884543 L338.9905071662826 58.17565174426272"/>
    <path fill="none" stroke="#000" stroke-width="2" d="M336.5503241918821 54.30973226209039 M339.73860818487503 55.005006046564425 C400.3218488112508 57.403689651040004, 462.945192740505 56.734908409067934, 572.3391131605396 56.32326268849256 M338.2372088711907 56.678553807792696 C388.5235897526433 55.432862612943126, 439.34128178556085 55.66937078117138, 571.7145471284219 55.12302171724982 M570.234125254587 55.2017881435012 C568.6178157171818 79.74501032132393, 572.5822406287705 99.24929607232625, 569.4727964764782 122.67468602286863 M571.4726052872029 55.38241054481186 C571.9426429508474 80.26601916435736, 573.1169911926379 102.36709310681255, 571.6054360784772 120.61964555096115 M572.0366889483187 120.5019709449862 C503.48168898386547 124.33655898404896, 430.5801812195029 124.00087377075118, 337.19847291156685 118.5929396523971 M571.1050419176129 119.48434175616765 C513.039938198287 123.00240097203762, 454.7439327908012 121.34795316777655, 338.02530911630447 119.53251125826318 M338.018457899012 121.80749788443245 C337.0027984102571 99.95538820560542, 338.1024755699545 77.94619571898245, 335.84308699642935 55.61093490889616 M338.43330728872354 120.45139565756435 C337.7618340210326 100.84422366137169, 337.47992116957624 82.90498988667532, 338.5142940977029 54.84129107882109"/>
    <path fill="#27bdce" d="M67.2049829961572 151.1000933793235 L299.7892659848716 151.1050636320293 L301.6651072910354 213.96196047807607 L66.07503840312856 214.24218358739307 L66.02470681375708 154.6955180054356"/>
    <path fill="none" stroke="#000" stroke-width="2" d="M66.17640957650656 153.0760995828852 M65.69898281818105 150.06929001688766 C155.29410964037677 150.77759407645908, 239.67222329378973 149.83067342907708, 299.9754075489341 153.0519929967975 M67.47619394514913 151.4937528011207 C145.62362423034125 149.90841419583307, 224.23807042467303 151.92741297705956, 300.62637649500283 152.43254553818795 M303.93804793276433 150.18263588381305 C301.33402125269777 168.28214598677587, 299.3041267617772 186.42301703354605, 299.2429495620396 215.4523643396893 M302.3618399903511 153.37922468546586 C300.10695320638547 173.40699177746683, 301.42587918193436 194.39531593725505, 302.75843926068956 217.17486341308032 M302.39722502449956 215.29827741986355 C212.0267918444468 214.09663734280295, 118.71017585919381 214.02812611147348, 65.96431090899819 213.83655753887493 M302.5418900720405 215.97657247029179 C213.31258041980578 218.39519439190994, 124.26796857601859 217.80082482168163, 66.40380035986027 214.98452153499053 M66.43143007527833 215.80541313100403 C66.08057112741714 194.8966015526015, 69.117107093752 179.53519403892133, 68.22524760571574 150.36585208976538 M68.32080423495572 215.92239445332453 C68.98742603149289 199.11288178769246, 66.81686642502167 183.56215844567487, 67.8361092068335 152.13212490871592"/>
    <path fill="#00aa5b" d="M336.2644130571687 149.2024937968992 L573.7592604928559 149.62215373390646 L573.8020232483017 216.42254923542822 L336.33012052695415 215.0002163586236 L335.6777760007564 149.24637408274856"/>
    <path fill="none" stroke="#000" stroke-width="2" d="M336.10005415237976 150.78513911706978 M337.07983245848953 149.75825820884876 C396.23508805200964 156.2188094517441, 455.60160785263025 156.21302559202303, 573.3560394215363 151.43440360830036 M336.989526075729 150.91855503047384 C430.6753554038564 152.8805653152782, 522.4717459116619 154.07143369361575, 571.861515343094 151.53604625028646 M570.3395682320995 149.900932357095 C571.0847111974317 165.6142560823615, 570.5360192613762 184.27562426961595, 570.3989874559251 216.7876237911907 M570.9414592366302 152.94508999358368 C570.299797940059 168.29189835572078, 571.0392864138729 184.51805832407626, 570.363991102824 215.24795383463623 M572.2222098401577 215.51029744789304 C495.5910895603633 214.35740267505574, 422.7272783566003 215.6792142545719, 339.82993630723615 216.9110036162418 M572.6805985209752 215.34552088706914 C504.94160084150747 216.09410001619855, 437.1392654401804 215.30481211048874, 337.99050978071904 215.54751913910107 M339.0301697639676 215.99918249269393 C336.42228032739905 190.1077407675366, 335.6861675471267 165.43324419438105, 336.86824954780025 151.93698897948707 M338.80334881693415 214.7892595785028 C336.84787013573197 195.83666759185905, 338.9977582860004 172.50002000172955, 338.0156790952959 151.17667404529965"/>
    <defs xmlns="http://www.w3.org/2000/svg">
        <marker id="iPointer-gv20f6oj1qq" fill="#000" markerHeight="7" markerUnits="strokeWidth" markerWidth="8" orient="auto" refX="5" refY="5" viewBox="0 0 10 10">
            <path d="M 10 0 L 10 10 L 0 5 z"/>
        </marker>
        <marker id="Pointer-gv20f6oj1qq" fill="#000" markerHeight="7" markerUnits="strokeWidth" markerWidth="8" orient="auto" refX="5" refY="5" viewBox="0 0 10 10">
            <path d="M 0 0 L 10 5 L 0 10 z"/>
        </marker>
        <filter id="dsFilterNoBlur" width="150%" height="150%">
            <feOffset dx="3" dy="3" in="SourceGraphic" result="offOut"/>
            <feColorMatrix in="offOut" result="matrixOut" type="matrix" values="0.2 0 0 0 0 0 0.2 0 0 0 0 0 0.2 0 0 0 0 0 1 0"/>
            <feBlend in="SourceGraphic" in2="matrixOut" mode="normal"/>
        </filter>
        <filter id="dsFilter" width="150%" height="150%">
            <feOffset dx="3" dy="3" in="SourceGraphic" result="offOut"/>
            <feColorMatrix in="offOut" result="matrixOut" type="matrix" values="0.2 0 0 0 0 0 0.2 0 0 0 0 0 0.2 0 0 0 0 0 1 0"/>
            <feGaussianBlur in="matrixOut" result="blurOut" stdDeviation="3"/>
            <feBlend in="SourceGraphic" in2="blurOut" mode="normal"/>
        </filter>
    </defs>
    ??
    <text id="text4" x="197.1" y="236.8" fill="#000" stroke="none" font-family="xkcd Script" font-size="120%">
        Any managed Kubernetes service
    </text>
    <text id="text0" x="116.1" y="92.8" fill="#fff" stroke="none" font-family="xkcd Script" font-size="120%">
        Vault operator
    </text>
    <text id="text1" x="368.1" y="92.8" fill="#fff" stroke="none" font-family="xkcd Script" font-size="120%">
        PostgreSQL operator
    </text>
    <text id="text2" x="134.1" y="188.8" fill="#fff" stroke="none" font-family="xkcd Script" font-size="120%">
        Jenkins X
    </text>
    <text id="text3" x="386.1" y="188.8" fill="#fff" stroke="none" font-family="xkcd Script" font-size="120%">
        Kafka operator
    </text>
</svg>
