<svg xmlns="http://www.w3.org/2000/svg" width="658" height="336" version="1.1">
    <path fill="#fff" d="M51.09331672451226 8.595791411667596 L591.5406713712676 8.739645026053768 L592.08538850002 297.80859741358 L48.1891141920205 295.1456999379625 L51.74546566276513 5.350968775735964"/>
    <path fill="none" stroke="#000" stroke-width="2" d="M47.614603014671594 5.4200229840178515 M49.30691603183725 7.406221728837117 C177.35482882705395 6.365150661970252, 305.4262637736749 6.873388534220517, 590.521615714806 8.17280720892537 M49.10437484072303 7.69166347260194 C224.4916981230666 5.007176313867239, 399.95369300649503 5.676079142293165, 589.5985899572574 7.73733013285615 M589.2554025567222 7.726514610656375 C584.683029282648 106.52037670125691, 588.071954770416 204.69061432932875, 587.804610744491 295.4800462734346 M588.4892277846322 8.96234159316909 C589.9654401241319 117.11365301766149, 589.4102558848808 224.80255085820838, 589.209039256902 296.64096702771855 M587.334943472328 296.7945463497682 C518.4458385672965 294.5263160366407, 448.3207950097265 297.5912081081947, 317.6329260625198 297.2801229610722 M590.1046652694909 296.6957584046528 C510.64935066202185 297.5057590627748, 433.8768610487153 298.0598703268249, 318.45628750621023 296.4492852469055 M317.60069378677264 295.38872011055156 C228.22192766980766 299.7331440356889, 136.45808536655565 297.0322387751858, 48.29531108933128 296.3903837796358 M318.62595648858627 296.50040743531576 C241.9999109880395 298.3030232553842, 162.58328560697174 297.7935952909613, 49.30600736538806 295.4569258836551 M47.93030027472708 297.63769419012567 C53.2475174399817 190.03714025482807, 51.26537130472523 89.13983640342799, 48.02818927026314 6.16292254442338 M48.88093347234507 296.97490720139257 C48.29518473100844 206.8848538039673, 48.973914311917966 117.16676760050626, 49.03582144438084 7.849409174714026"/>
    <path fill="#ef5ba1" d="M68.44735699922748 41.87668671610809 L303.5592958513509 37.519121710886246 L302.42521423603466 101.41881130846613 L66.13079042330791 106.0316452777187 L65.03060347859864 38.60626064750104"/>
    <path fill="none" stroke="#000" stroke-width="2" d="M66.45971556854128 40.73423857667076 M68.45316299154588 40.62774836088867 C135.36087795691418 39.49947832477018, 202.86272096698252 37.78576242257285, 300.3754994364852 39.36045845134016 M68.20209466839228 40.196751566860556 C122.75282418101892 41.46171136859207, 178.25587292796763 40.6905710391469, 302.0707348019645 40.823693700531834 M304.1340205184686 40.509801872452954 C299.57231255466587 58.28586356600717, 303.88968049784495 68.45692140316169, 300.05884003815373 103.04701672166266 M301.18213283106235 39.68466553791241 C302.276617347508 64.0761067777843, 301.64445810521363 88.02675757652688, 301.56205771722523 105.3016769160291 M299.1428638519765 102.3810765127735 C223.61717281110205 106.30570653910173, 145.85207674913403 105.60779291319481, 68.05269093931085 101.64021722367339 M301.5260288762079 105.17345193864513 C231.05517853583464 104.32224185471617, 162.48293309666278 103.8335358975007, 66.8634430873762 105.1369471548076 M68.86598240311432 102.22643390630256 C69.10040801883949 84.62412411830447, 64.76347848303482 69.14120929813798, 65.97604361196572 42.53810603195743 M67.13741880799061 104.32482125295046 C67.58193695450555 79.85910915923668, 67.17325309137362 54.0382008126653, 68.26296657422354 39.203147240605176"/>
    <path fill="#f99c41" d="M340.23908979549486 39.48989316728621 L571.1454282545849 41.454108103031466 L570.6836679535357 102.87193720118958 L335.1480331214516 105.77371662884543 L338.9905071662826 42.17565174426272"/>
    <path fill="none" stroke="#000" stroke-width="2" d="M336.5503241918821 38.30973226209039 M339.73860818487503 39.005006046564425 C400.3218488112508 41.403689651040004, 462.945192740505 40.734908409067934, 572.3391131605396 40.32326268849256 M338.2372088711907 40.678553807792696 C388.5235897526433 39.432862612943126, 439.34128178556085 39.66937078117138, 571.7145471284219 39.12302171724982 M570.234125254587 39.2017881435012 C568.6178157171818 63.74501032132393, 572.5822406287705 83.24929607232625, 569.4727964764782 106.67468602286863 M571.4726052872029 39.38241054481186 C571.9426429508474 64.26601916435736, 573.1169911926379 86.36709310681255, 571.6054360784772 104.61964555096115 M572.0366889483187 104.5019709449862 C503.48168898386547 108.33655898404896, 430.5801812195029 108.00087377075118, 337.19847291156685 102.5929396523971 M571.1050419176129 103.48434175616765 C513.039938198287 107.00240097203762, 454.7439327908012 105.34795316777655, 338.02530911630447 103.53251125826318 M338.018457899012 105.80749788443245 C337.0027984102571 83.95538820560542, 338.1024755699545 61.94619571898245, 335.84308699642935 39.61093490889616 M338.43330728872354 104.45139565756435 C337.7618340210326 84.84422366137169, 337.47992116957624 66.90498988667532, 338.5142940977029 38.84129107882109"/>
    <path fill="#fff" d="M157.20498299615718 119.10009337932351 L470.7892659848716 119.1050636320293 L472.6651072910354 181.96196047807607 L156.07503840312856 182.24218358739307 L156.02470681375706 122.69551800543559"/>
    <path fill="none" stroke="#000" stroke-width="2" d="M156.17640957650656 121.07609958288522 M155.9873214440354 118.37839215598643 C274.5509348196316 118.93159066002886, 388.7327665963247 118.13626978693856, 471.2194912238518 120.8835713858506 M157.4800052386848 119.5748017900704 C262.7020889527433 117.90403798511619, 368.3164204244475 119.59979979778, 471.7662415687444 120.36329601222032 M474.93804793276433 118.18263588381305 C472.33402125269777 136.28214598677587, 470.3041267617772 154.42301703354605, 470.2429495620396 183.4523643396893 M473.3618399903511 121.37922468546586 C471.10695320638547 141.40699177746683, 472.42587918193436 162.39531593725505, 473.75843926068956 185.17486341308032 M473.2535814028518 183.4106215587924 C351.249624151629 182.01071234896918, 226.77116105095223 181.953169605057, 156.21017112993832 182.18291960174307 M473.375085915647 183.9803231628401 C353.57100783554574 186.43542516979468, 233.9220578780368 185.9362127734453, 156.57929935070314 183.14709725505656 M156.43143007527834 183.80541313100403 C156.08057112741716 162.8966015526015, 159.117107093752 147.53519403892133, 158.22524760571574 118.3658520897654 M158.32080423495572 183.92239445332453 C158.98742603149287 167.11288178769246, 156.81686642502166 151.56215844567487, 157.8361092068335 120.13212490871592"/>
    <path fill="#27bdce" d="M66.26441305716871 197.2024937968992 L303.7592604928559 197.62215373390646 L303.8020232483017 264.4225492354282 L66.33012052695412 263.00021635862356 L65.67777600075642 197.24637408274856"/>
    <path fill="none" stroke="#000" stroke-width="2" d="M66.10005415237974 198.78513911706978 M67.07983245848956 197.75825820884876 C126.23508805200964 204.2188094517441, 185.60160785263025 204.21302559202303, 303.3560394215362 199.43440360830036 M66.98952607572899 198.91855503047384 C160.67535540385637 200.8805653152782, 252.47174591166188 202.07143369361575, 301.86151534309397 199.53604625028646 M300.33956823209957 197.900932357095 C301.0847111974317 213.6142560823615, 300.53601926137617 232.27562426961595, 300.39898745592507 264.7876237911907 M300.9414592366302 200.94508999358368 C300.29979794005897 216.29189835572078, 301.03928641387296 232.51805832407626, 300.363991102824 263.24795383463623 M302.22220984015763 263.51029744789304 C225.59108956036326 262.35740267505577, 152.72727835660038 263.6792142545719, 69.82993630723614 264.9110036162418 M302.68059852097525 263.34552088706914 C234.94160084150747 264.0941000161985, 167.13926544018042 263.3048121104887, 67.99050978071907 263.54751913910104 M69.03016976396756 263.99918249269393 C66.42228032739902 238.1077407675366, 65.68616754712664 213.43324419438105, 66.86824954780022 199.93698897948707 M68.80334881693416 262.78925957850277 C66.84787013573195 243.83666759185905, 68.9977582860004 220.50002000172955, 68.01567909529595 199.17667404529965"/>
    <path fill="#00aa5b" d="M337.3230809674375 199.20131361210662 L574.0350153910018 199.59906399412284 L570.2113973566331 263.01514293300204 L335.40958321595537 263.0129262413262 L335.81672105759935 198.9532977353374"/>
    <path fill="none" stroke="#000" stroke-width="2" d="M339.4489759529479 198.74587368571375 M336.5022024362245 202.15185571077893 C394.0800721318443 202.61303863701198, 449.30011646351267 202.08706056135028, 572.4015893779791 201.05536257641992 M336.63012030163037 199.268988585829 C396.1252971204233 200.58911459667308, 455.0986240863767 201.76803872536226, 572.6061482762378 200.14335550291744 M572.046253085928 197.57477066613174 C569.859687766967 220.28060106365447, 569.621302181835 244.09121226287024, 572.563405751044 262.13998098435985 M570.3029950126027 199.7887635931278 C571.5921615286765 216.69994071587135, 570.9451583510471 232.0293628515923, 570.6342246630899 264.20450151176226 M570.6373186233069 265.9073322842607 C501.5750669346182 266.2193148861362, 430.34168111149455 266.6079569362471, 336.9351151597688 261.8352700640142 M570.9862087625656 264.7394875736857 C493.3987248188289 263.2535393751456, 417.88334802104026 264.1886627816728, 337.4631501802126 264.4710002440197 M339.1253270700996 265.89054121499646 C338.7322925563308 243.3783437849619, 339.99511215525007 223.46396220878088, 340.0802199952632 198.5732548220214 M338.0418224267094 264.3656435777508 C336.61767443978783 238.87333256562343, 338.4664647013189 213.16756591487064, 337.05106220476443 200.68851533916313"/>
    <defs xmlns="http://www.w3.org/2000/svg">
        <marker id="iPointer-08ncij2a3kce" fill="#000" markerHeight="7" markerUnits="strokeWidth" markerWidth="8" orient="auto" refX="5" refY="5" viewBox="0 0 10 10">
            <path d="M 10 0 L 10 10 L 0 5 z"/>
        </marker>
        <marker id="Pointer-08ncij2a3kce" fill="#000" markerHeight="7" markerUnits="strokeWidth" markerWidth="8" orient="auto" refX="5" refY="5" viewBox="0 0 10 10">
            <path d="M 0 0 L 10 5 L 0 10 z"/>
        </marker>
        <filter id="dsFilterNoBlur" width="150%" height="150%">
            <feOffset dx="3" dy="3" in="SourceGraphic" result="offOut"/>
            <feColorMatrix in="offOut" result="matrixOut" type="matrix" values="0.2 0 0 0 0 0 0.2 0 0 0 0 0 0.2 0 0 0 0 0 1 0"/>
            <feBlend in="SourceGraphic" in2="matrixOut" mode="normal"/>
        </filter>
        <filter id="dsFilter" width="150%" height="150%">
            <feOffset dx="3" dy="3" in="SourceGraphic" result="offOut"/>
            <feColorMatrix in="offOut" result="matrixOut" type="matrix" values="0.2 0 0 0 0 0 0.2 0 0 0 0 0 0.2 0 0 0 0 0 1 0"/>
            <feGaussianBlur in="matrixOut" result="blurOut" stdDeviation="3"/>
            <feBlend in="SourceGraphic" in2="blurOut" mode="normal"/>
        </filter>
    </defs>
    ??
    <text id="text5" x="296.1" y="284.8" fill="#000" stroke="none" font-family="xkcd Script" font-size="120%">
        Azure
    </text>
    <text id="text0" x="116.1" y="76.8" fill="#fff" stroke="none" font-family="xkcd Script" font-size="120%">
        Azure Key Vault
    </text>
    <text id="text1" x="404.1" y="76.8" fill="#fff" stroke="none" font-family="xkcd Script" font-size="120%">
        Cosmos DB
    </text>
    <text id="text2" x="287.1" y="156.8" fill="#000" stroke="none" font-family="xkcd Script" font-size="120%">
        AKS
    </text>
    <text id="text3" x="125.1" y="236.8" fill="#fff" stroke="none" font-family="xkcd Script" font-size="120%">
        Azure DevOps
    </text>
    <text id="text4" x="368.1" y="236.8" fill="#fff" stroke="none" font-family="xkcd Script" font-size="120%">
        Azure Queue Storage
    </text>
</svg>
