<svg xmlns="http://www.w3.org/2000/svg" width="703" height="544" version="1.1">
    <path fill="#fff" d="M237.76668892451224 15.206505011667597 L248.0921493697052 10.39641422605381 L259.03862371252 10.005512613580027 L280.00322749202047 12.84560393796249 L291.6123908412807 9.749431138235963 L302.07777845959345 11.68266357151785 L310.074946535044 16.48241289562317 L316.13532223007337 22.152015940530614 L313.36449952795215 30.431878267311674 L310.55769610811086 36.78000795854086 L318.7042214247961 43.64598534326507 L319.22272949360246 48.82425399611436 L314.40615017496896 54.88657542247132 L306.05227298017763 57.2940297630097 L294.52591699716373 58.016669490681295 L296.07410662074597 63.96439175781092 L297.9700079769125 64.01604926428075 L290.7212142785197 67.45482890617168 L276.403417972005 71.31014546450072 L258.8476671126086 64.47923780592602 L239.1454967931065 73.61900820032876 L225.0655582898872 68.2526361585046 L218.55860551048522 67.73009831572374 L216.18158969321644 60.47667595851387 L203.23258097164717 57.4668349717455 L202.04920690737188 52.36733565521518 L200.70872453521253 42.997913539713075 L207.36855690052707 36.52691981345356 L212.73106770505478 30.656758506069423 L208.46504856801496 20.893205462036843 L208.93831976523333 19.903125874656233 L207.7913693761745 17.791954190966628 L225.06553272661088 10.180501440555975 L237.8076454409277 14.296974412300315"/>
    <path fill="none" stroke="#000" stroke-width="2" d="M237.6842301665786 15.991271735305183 M236.1733722 14.6107136 C247.0346717561543 5.564376877697932, 262.94094787741926 8.506322458461355, 282.8580091595347 15.476388568204614 M233.50845413870073 15.757876613069076 C252.07157055430142 2.6587502581523497, 261.21066731768354 6.254238624756683, 282.48137339241055 15.764191721468354 M281.3141133 13.699904 C300.9054533623642 6.404308290707345, 325.79932665220895 21.01965609997662, 312.67910585691607 32.5470330241681 M279.141039463584 14.90721794925242 C305.6033292601472 10.955941895537803, 325.13034638407805 22.80407520915729, 308.6339381135654 35.88890608277999 M311.2003944 34.4195584 C331.5397321173273 42.70101371286516, 309.2807766214185 61.08276422507653, 296.3845642140951 58.53396684197713 M313.3744336352294 35.64973753681106 C331.4090408187126 43.05456234024727, 308.9911500741682 63.54554752345095, 293.8008683743308 58.30931348823133 M296.8798869 59.9206016 C303.0284417195066 68.8725516552397, 282.64377129398366 80.29958755104556, 260.56738029314084 69.63181500669954 M299.3903137952829 61.902599636695584 C305.7615240491116 68.4423625235243, 284.30356182905354 75.6551755675192, 257.7934656960857 66.51913972085458 M259.210719 66.9789312 C227.18048942330793 79.9019428777187, 216.13270507859863 66.82430864750104, 216.24044653603465 56.20096810846614 M258.1704345685413 67.71316977667077 C231.50570657146832 79.17011237623194, 219.45815308592174 68.51865611558229, 214.96301934092557 55.82366231860579 M215.3152323 58.7821568 C192.1722768798463 53.57611344411248, 206.9333340801092 30.863048059499498, 216.18875974716943 29.507467369745903 M216.9130223816775 57.2992927735934 C191.931544800088 54.90580439370787, 208.65618874318977 30.55084225733563, 215.6897417700675 29.94703381076528 M213.7748688 29.4104192 C193.91601883117934 18.47117990782226, 222.30572556666453 10.317662118468604, 237.52694247621503 16.56420812303926 M214.28467067245296 27.71399424816275 C192.3823962925789 17.53654124387678, 220.44467262991208 10.417134294752962, 239.2814049903797 17.624798040043153 M236.1733722 14.6107136 C236.1733722 14.6107136, 236.1733722 14.6107136, 236.1733722 14.6107136 M236.1733722 14.6107136 C236.1733722 14.6107136, 236.1733722 14.6107136, 236.1733722 14.6107136"/>
    <path fill="#f99c41" d="M201.23350075693307 119.92255450318189 L319.5617307951732 122.78299073273593 L317.8295332734007 184.94546006431773 L203.6001190963565 183.7864316412757 L200.99032420472503 122.69641498832353"/>
    <path fill="none" stroke="#000" stroke-width="2" d="M201.97517198824926 121.86569067323725 M204.69742903427542 118.62451723430277 C221.8318313764168 121.6208583754329, 243.91870736785788 123.01696887725574, 259.1167972172483 117.86586192368122 M201.89901277008354 121.04035994151855 C215.6031767610926 120.22529890063578, 231.48866228250552 119.02774376401193, 257.86954489774746 119.7449465836431 M255.37193720118958 117.64803312145159 C276.37593020166133 121.74765176091886, 294.8800788898945 119.30746878651833, 317.8097322620904 119.16435296654 M255.91006127725677 119.766080729261 C272.09265786371213 118.5782763069087, 287.90976531732986 119.66132568519177, 319.6916646597714 118.83129045948917 M321.10927678122897 120.84841394989526 C317.93988936353526 138.6760393552846, 318.50079860806346 155.44387408670735, 317.4201343034787 185.414216061568 M319.1008940717506 118.8802140609235 C320.05711626353946 135.47233791196632, 318.59301221153436 148.20622102873602, 320.8373430114343 184.94388932734108 M318.26482108962375 183.13428896535078 C295.9463444458337 185.46572677986967, 268.06279844786314 184.19361348789224, 257.7392911019223 183.91559669798806 M319.79762200776884 184.87531935820516 C305.458733399997 183.05582807971658, 290.0874915882621 184.0216926523946, 255.6657442927956 183.2657910250695 M255.2770507963869 182.73867279298867 C239.83646668794898 181.61351900312377, 218.005672312768 184.99293025959352, 201.3912909058601 184.9785598103641 M257.4037489422162 183.56497904399052 C243.24307689979358 184.25480125657245, 229.003863453473 183.31152713094792, 202.3054674544481 183.80078736746447 M203.4027913151287 182.80430838115245 C200.2945024784707 169.18105289578523, 200.99466228875298 159.90972863049703, 200.18258215764217 119.7049829961572 M202.5825536455177 182.98098023903805 C202.3349540864054 165.97802121238564, 202.30978829171963 151.061617840096, 201.83820478825328 120.5380497914426"/>
    <path fill="#fff" d="M537.3373762077957 166.5371683140176 L661.6453949319148 165.86432918067038 L659.2105376821797 234.65491136696363 L534.2205663987963 233.2590879480784 L533.0976949374635 166.19211740899482"/>
    <path fill="none" stroke="#000" stroke-width="2" d="M536.7474676910803 168.9565573802146 M534.2993702881591 167.83288933188305 C564.7439811473489 168.86539469384815, 600.9694889813971 165.9636598136728, 662.5258368362774 167.66188867195123 M534.5913179419065 168.2122489173431 C563.9239090055177 165.66133147424128, 593.2771805410324 165.33550458337828, 661.2261821698446 168.33642053079421 M664.2584493709317 165.3151697288136 C662.9253444512998 186.7913669797588, 663.4261479179007 208.19356912107395, 663.8497268261606 234.49662543411614 M661.0839438810493 168.94357996803265 C660.7323651647262 190.16021747046867, 660.6917443869169 212.19316009723406, 660.2172801625198 233.1015978976182 M661.4444386293792 233.0079473775084 C651.4981904853257 232.65011737554633, 637.8624792738302 230.06738618515482, 605.0916634807581 231.9888464658972 M661.4027065655021 230.9538828663499 C648.3904078215604 232.18363696984247, 638.1518111099798 232.07410992318302, 606.6829260448827 231.4179189690447 M607.344788906649 234.46294276501285 C587.260658293149 230.71280260123854, 569.694106326878 233.2631974628351, 535.7642498174318 230.76441305716872 M608.6510116241509 232.2112746177141 C592.508647642879 230.6440835235181, 577.7760627591823 229.7671623855806, 534.8000270761898 231.3925695585349 M535.001759579702 229.34171190804628 C534.1458518896841 226.06954730205615, 533.222917801165 217.83775433549744, 537.700916944111 199.32930805909854 M534.8946730352716 230.71760775663716 C535.2322024855806 219.03016784979565, 533.765802654413 207.7198530185786, 535.9286898408187 199.44983729484412 M534.3395682320995 197.900932357095 C533.8379393372503 191.3561054013697, 533.2892474011948 187.7593229076323, 534.3989874559251 168.7876237911907 M534.9414592366302 200.94508999358368 C534.1894553684467 192.28664036529997, 534.9289438422607 184.5075423432347, 534.363991102824 167.24795383463623"/>
    <path fill="#ef5ba1" d="M5.128303992020665 265.3908266381688 L231.25708084649995 265.48140631118224 L235.41930401261925 265.95679746277744 L238.44515102436563 276.52451526860824 L239.38757328303254 325.1378703559814 L237.08028055431788 325.19734366624 L226.379622965843 328.2480973178666 L7.299939762977738 326.44781942398185 L7.137862992168084 263.6426224499388"/>
    <path fill="none" stroke="#000" stroke-width="2" d="M6.825572746769467 261.7707256515176 M3.1071772968003644 264.74382444469086 C45.99112873421527 262.75747184916463, 82.89849500287055 260.9176468020217, 119.24046428210276 261.5364775504098 M3.6225442756045596 262.82246903585764 C38.263534427385096 262.3126578909898, 68.20666969302074 264.4222458799768, 122.43618662238732 262.624379952991 M120.7013136121066 266.5350153910018 C157.14032565102758 262.8060490390541, 192.59766624681154 262.00423489837635, 227.5129262413262 262.31672105759935 M120.69810488599401 264.3817652509115 C148.45946805641725 264.07935657564707, 178.97605409400205 264.54240125189244, 228.71474670206385 262.93651755946047 M228.5 264 C236.41813005137251 262.6135633677386, 239.9603243422942 265.81172422401335, 238.30578140452127 275.0691170217615 M226.4369695004698 262.26631332382385 C236.18103634540475 264.7274482699075, 241.51687725375382 267.72431704251835, 238.53258150310657 271.512084232239 M239.04625308592804 271.5747706661317 C236.77026215377956 287.3937944698249, 236.5318765686476 304.3175990752112, 239.56340575104406 316.13998098435985 M237.3029950126027 273.7887635931278 C238.40895914176858 285.68342104299734, 237.76195596413922 295.9963235058444, 237.63422466308984 318.20450151176226 M238.5 318 C239.18318157676185 323.6436872852474, 237.42840738928814 328.6511631231122, 228.53279359406005 328.11537869737305 M240.33237151628563 317.7507450612196 C235.54798866269186 325.65147919652657, 238.02289541090695 328.13321457158565, 231.13721286411007 327.22967460055173 M226.45861085946564 330.60113536459755 C201.23286746340125 326.9678890455886, 174.73002175015355 327.03811402242144, 121.94505161637426 329.55921799452335 M227.76955010473102 329.31876433624495 C189.0816662252957 330.02557935199184, 151.16448480382095 330.0969423389215, 121.71012027130273 327.85538434352856 M122.0944181329498 330.20188334990524 C81.90255040993289 326.2271415632322, 43.62085583189764 324.3623874111743, 7.243381291216792 328.9928198914902 M121.00534368368025 328.81592517747265 C78.25463581488201 329.34983432137807, 35.578447951383694 329.9406932369678, 3.3166528389804624 327.27279118991135 M2.5658377423751517 326.0997750212176 C1.7906388052294206 303.4009135358006, 2.523872056211869 282.89926612620326, 3.9518660640918823 264.23973681861463 M4.11673649397635 326.98008503277526 C3.7992129372543566 304.8226845892212, 2.7379283788011217 280.75899548021295, 3.9142867592578114 263.5537734015561"/>
    <path fill="#ef5ba1" d="M274.70961357506746 266.1393450615309 L503.96627070132456 263.1661359174802 L508.454127374127 265.4604410226457 L509.2768827894964 271.47777496520285 L509.5002933470285 328.0599572725885 L272.605559413596 328.51298490432816 L276.79208229902287 265.9895460184358"/>
    <path fill="none" stroke="#000" stroke-width="2" d="M274.03229322524567 261.5064231155824 M272.08869155395803 262.2220570745003 C308.56625863244847 265.11171577766413, 345.95582805682045 266.92539945757284, 390.11037849033016 264.220099947368 M274.0562411066861 262.71298351391886 C317.13336105434536 266.8071330410936, 359.9123920685157 266.58809816638154, 391.1802792949653 264.70176674695176 M389.3553394454939 266.7321143015855 C412.05256282974335 265.8306697873895, 428.98576591312064 262.8566426599109, 479.9721313581911 261.74233530147467 M390.1965777073914 265.3783230340774 C414.7040858624523 265.3606133100531, 438.37851982387076 264.7746009565495, 480.34507727489836 265.0452693172974 M481.71945366277987 262.63910199544955 C487.7902977713155 266.3957838601924, 493.40773179253796 264.8837637401528, 500.1199513610193 262.6955318477536 M482.1309365966019 264.36899208971516 C486.86239056007366 263.4012912289598, 493.3962587354535 264.3370475289681, 497.8884329444751 264.8091590750116 M498.5 264 C505.85321183948355 263.21138351273186, 510.98671584469923 269.4432448226759, 508.6208310091104 272.0746406425613 M498.7792037381063 264.6653278355967 C508.18516509580246 260.78751307562925, 507.8651454317058 266.2641184140576, 506.40940888740516 271.61732269522315 M510.67279222385406 272.99779177319795 C506.3760729511664 285.79369868773136, 506.3413705029536 302.331710754169, 509.803944698305 327.062420584754 M509.2387275904504 274.07818635208895 C509.48481802258726 288.3886638362232, 509.26861257528253 304.10036701082026, 507.67135782199887 326.6122106148767 M506.51657486972107 329.1467160249049 C482.03571524725953 326.2429918636156, 457.1043515839854 327.3901897839244, 393.1946709766136 330.2084569711705 M507.4039118437293 328.5390389646403 C471.28904739997796 326.92969338364844, 434.13150238724535 326.96916143354383, 390.90084375957485 329.2435056985349 M393.27824453445066 327.4164702659444 C366.7699688582652 328.725190490715, 343.59256419919836 329.08749881558157, 273.3795748374265 328.25511025401136 M391.07580149134697 326.98037346001183 C357.2460965687198 328.8684753162642, 323.4716280005821 326.834738161969, 275.6213654903884 329.1887849539351 M276.291760214838 329.4937501371227 C272.5405147450887 314.33172431012247, 274.5844611756134 302.1859235826189, 274.33543165756856 263.9324675301679 M275.53521298355884 328.47671006394955 C274.29847517362424 305.2909842692712, 274.2665422498717 283.1863648644874, 273.55587674529886 263.6659498630546"/>
    <path fill="#fff" d="M535.150271877741 282.0892404795537 L662.5484377466331 279.8008324960101 L660.5697360108956 345.86459549685316 L537.7193575524027 342.3641152408847 L534.5404720053673 279.6758460547291"/>
    <path fill="none" stroke="#000" stroke-width="2" d="M535.104211041292 277.5086735694655 M535.882709936364 282.0896462100078 C551.7009639028329 282.4188749689309, 574.7071010942979 281.48783635664023, 610.2043559227059 278.2487415063879 M534.8854685177503 280.6442772390095 C564.5447543243761 281.0638598628678, 593.1484457861882 280.6930281584796, 607.8525544180586 280.3198058186422 M607.9796500316127 278.6522597108327 C620.7819390135788 279.97741454817697, 635.1882135922402 277.7353570484033, 659.8813404108885 280.4991212742767 M607.5932406048221 278.8672635096617 C618.3559658481543 280.35531456761674, 631.2822061794155 281.50227712336834, 661.0102105717688 281.0868456459022 M659.4113626713527 280.4409311515759 C660.4812100113282 295.35503700337085, 661.1282401560078 308.26094716283154, 663.1497629519974 341.232336044652 M660.3570401502897 280.64950358623463 C661.722638205511 299.1972541640513, 662.1993505051832 315.94595077672983, 661.310367348804 343.66323123941476 M659.733815297345 344.9317705258771 C645.5343809363172 344.80309519616776, 628.6484304498834 341.6885547570745, 609.3218687949287 343.4096178108957 M660.2425274793543 345.18217563853614 C644.130855703418 345.6520658437417, 628.1123188852239 344.0433176952516, 606.1806309930416 343.0551016518526 M610.0717412546597 342.0287627810423 C587.3319228072969 341.1116429360065, 564.1100976546022 343.0676378276499, 534.2256338984196 345.0707812439738 M606.7523250403659 345.31866236388015 C586.7822750492626 344.48255858826576, 567.3364771326957 344.4013042318244, 534.6616378669908 344.135414977764 M538.1685979254496 345.22087470275585 C536.1604754803318 319.357059180428, 532.7015683551422 297.3038806890589, 535.5824199690971 279.94678753678744 M535.9693743340023 345.39141371128864 C535.4994857585976 319.21229548342745, 535.7272611272949 295.0870026999662, 535.3946431793207 280.5318394440408"/>
    <path fill="#fff" d="M3.771725591701397 330.08482886518357 L118.87324366592293 330.18535158187007 L122.66652951553843 391.451398741272 L5.021566743263975 393.69884187221976 L6.360115198277344 330.1841981357211"/>
    <path fill="none" stroke="#000" stroke-width="2" d="M1.985574322773755 326.9606093542807 M2.2292101132417885 327.3781988908784 C51.881553077260605 324.79112426666416, 99.61178957377005 325.2270035083336, 123.94231163505829 329.2646007250063 M4.599313095622892 328.66541822094393 C33.43705606674812 328.06176394826116, 60.55790706317176 327.2490318043273, 122.77458298254687 328.1095312855741 M122.13217865476545 330.67795293375605 C119.46618034466844 342.83175105774137, 118.91450902798859 361.36817616300175, 119.19820706179453 394.4430019284613 M121.18672309735084 329.2206946798527 C120.79884007867521 348.25651364044245, 120.2990632724076 367.93577914271555, 122.08649136428866 392.8962195760535 M122.56436583322684 390.7281073046077 C79.31360565321137 392.71769888101284, 32.63828661732804 391.04944488602473, 2.873034081842343 394.68590002566924 M121.89503760322096 393.22184660909005 C83.72566626700535 390.98375729699075, 44.706159697550895 392.0263675705319, 4.377874611199149 391.3091954231939 M2.5341295418140364 392.92130902935895 C6.922840360220348 369.69287642847195, 4.291826542554249 352.86501182001666, 2.3256211206666197 326.8432829785961 M4.219973643122648 392.9361125852367 C4.047726750235539 369.66264451460734, 4.9665011248117805 349.7478050198741, 3.4101351002729645 328.78099438004136"/>
    <path fill="#fff" d="M124.02190599254682 326.2012224631355 L234.2832886346664 328.9630413554645 L234.0685490329015 330.5005028013096 L240.97158716160774 336.0657477075256 L241.09010042233277 392.2335770946214 L123.18838877114612 394.2530471910257 L119.03849201716949 329.4074109844936"/>
    <path fill="none" stroke="#000" stroke-width="2" d="M119.22770798120806 330.702181420775 M119.49488994830972 328.0672494221726 C162.49619363188293 329.75929730986473, 205.96860244064518 329.0366803423168, 227.79890905534904 327.03760998517976 M121.29422131632236 328.35136845298985 C161.65065369830734 329.6928131894638, 203.84418048960828 327.75963074745033, 228.71989426729724 327.17494890103114 M228.5 328 C234.67908194741963 328.47784304821545, 236.4501302006087 331.296259587893, 238.97093119300334 340.76026432632716 M227.9617347114683 329.55631259640506 C234.3985139649512 326.6898144915505, 236.738518502342 332.3645723647119, 238.72701739201767 336.60258546588994 M237.88751408015406 338.1617073904905 C236.6609323994904 358.7716335752801, 235.95293625963896 379.74966541510804, 240.36860933350255 394.4485857528387 M237.11144736371352 338.4384033957496 C236.99305837121503 353.50788241679345, 239.0873720978947 368.1410174046574, 237.211670728844 390.9683310326939 M237.57416304261568 393.6766847298433 C200.08952800249227 395.7268639685849, 159.0618706900237 395.0850510261343, 120.39318305653724 391.85557425386435 M238.19241370340728 391.457788458146 C192.65836336673664 391.12246325925605, 146.3103138730984 391.2093012254308, 120.41484653841617 391.31294036497854 M119.91187597820245 390.9045313291102 C123.65558798851747 369.40725661320903, 123.41834426275786 350.63070085241344, 119.64120789650369 329.0371578168324 M120.71018267718209 390.7962108573476 C121.29737268854666 378.08982671836634, 121.39250943747562 363.6587559817359, 121.46946083624061 329.1133217062663"/>
    <path fill="#fff" d="M272.82465812126395 325.9840017850867 L392.9703013147264 325.9468712865411 L390.316685512774 390.0392549183736 L275.06342175475766 391.4083253421297 L272.93570872884084 328.2358047621965"/>
    <path fill="none" stroke="#000" stroke-width="2" d="M272.5145965043166 329.8237886741023 M274.33519869214797 329.2799325487431 C297.5522704607118 328.33849036396697, 322.76363588859056 329.28268074393833, 393.2696710556382 329.5008343213573 M274.4228560361109 328.93781763251974 C307.4238968036276 330.5132315033878, 340.0862186173374 328.4870487203372, 391.4119629836379 326.81842571190134 M389.73329481607 329.07593102896647 C390.33876696533827 349.3598592558381, 393.8543894088578 376.02913529397335, 389.04182056246935 391.8354230702287 M391.492680286285 329.0485240125774 C390.73218904833163 341.2267684563329, 392.7944989760272 353.08547387934885, 392.64985827423095 392.9730074545165 M389.7654873208754 391.3169094107458 C344.9939586014444 393.2562526680734, 303.7605008724962 390.89177816143433, 275.8334031311897 394.5295652169705 M392.47507941028596 393.0299253792538 C363.3509648651239 392.35534208163995, 338.28337510695127 391.5207601655068, 274.1272571846748 392.6989973598099 M274.34379272443914 393.3720495340807 C274.5063390481473 376.3671319748948, 272.2159194454458 359.17817161838906, 272.20842193321295 330.4850477387357 M273.213461778911 390.74019714970746 C272.9230153110667 370.9033121803277, 273.25974724795407 351.2051166676338, 273.4390282656826 326.791014071614"/>
    <path fill="#fff" d="M389.90642516029766 328.60083775181886 L506.23955845359524 330.50677048479554 L507.63927254988704 391.6833578509925 L392.72429347477646 393.09041848782147 L393.077170713697 327.98902592087614"/>
    <path fill="none" stroke="#000" stroke-width="2" d="M392.44353526614 326.30637665625545 M390.59119300966483 329.79419748732033 C430.0783660703386 326.94807574338887, 472.5558132804013 329.59368763512254, 509.56802700750416 328.9872131716773 M392.2607120219236 327.96091759440895 C430.67600786076326 326.7784822153399, 470.31152747582763 327.9226943239037, 507.6948555056999 329.1458206507661 M510.49300647234486 329.2317546015256 C509.89939483590103 353.83126087124583, 508.9480629285078 375.65277191771673, 510.1964786321565 392.6266319323819 M509.43413527096965 326.82755763935313 C509.1158271661111 345.97633228761117, 509.2399519098991 360.90534152877956, 509.3103861481733 391.2047864995917 M505.842373337959 393.1906146262525 C465.31579511960854 392.9720639249583, 419.11443351532887 391.94213090687083, 389.9711130296135 391.7037551025671 M507.70099373913473 391.3758706386161 C484.7785396715222 394.44486954134345, 460.78442350781114 394.0634091627137, 391.4889145251276 391.652592480553 M389.4873926422697 391.30333141791925 C390.1562161349944 373.1075493351586, 392.4567070047042 356.142458832603, 390.5384345945349 329.0718684957719 M391.00956040536147 391.01589442337536 C390.73601024651293 368.19281515601995, 393.10702937557767 346.89694297110765, 390.93837804466165 327.28258430158"/>
    <path fill="#fff" d="M7.284479394675873 391.64551673770075 L240.25368028671218 391.21238006679926 L237.19851510118315 454.7963131640587 L9.667689838644582 454.49536253488697 L7.577991255070083 453.3749256088173 L6.948568299990438 448.24120815833487 L4.949074653899515 392.41328274121116"/>
    <path fill="none" stroke="#000" stroke-width="2" d="M3.0870590908874878 392.9045163556302 M6.100992413996937 392.639974926252 C40.46455311748978 392.84310324789993, 76.175437047374 393.47788242616195, 120.67268829684035 389.8834038437286 M5.1241594542330855 391.4235266570184 C38.95242798203763 393.0002571185845, 71.35231361804182 393.29442820546427, 121.73059567063453 390.75419832450353 M123.7074043237968 391.11185510928846 C157.97222012158147 391.76863205549057, 196.91391837858504 391.0018144445476, 239.14930402354656 393.2581614295392 M122.40402816666574 391.58519115227443 C148.23462054090868 393.85272416164906, 174.37391633789247 391.77933591718573, 238.24661624213732 393.2785893124572 M237.19756717462298 393.13197348883915 C239.40638619727682 414.2551061081052, 236.26243598659923 439.3372708894167, 241.17478054607835 456.83226976639935 M238.60368284602882 391.9666675818879 C237.48371570748893 409.64724711504726, 238.12541245311658 426.6758658577899, 237.18100667672698 455.83656843534646 M241.20810650619023 454.02982247195905 C230.66783293871904 458.4388117887102, 223.04688399334518 457.30792785316083, 210.10833323370315 454.99510141440476 M238.79397020549732 456.4867389350922 C229.69686513236846 455.92506967348515, 221.48111981999318 455.7322031330149, 210.81391841446185 454.6578185348615 M211.75855319470793 456.7642206303244 C171.67814384231315 455.1815117300577, 125.92968852770535 454.8741621151036, 13.817772237375902 457.53973858371535 M212.59084624420151 456.91318649800377 C146.2243977995131 456.4617871955938, 82.75224639846473 455.54612072472395, 13.140328767149185 456.7993033740939 M14.5 456 C10.056478486463796 455.755782243087, 3.4814508516181375 455.45326253491976, 3.9116866908538213 447.4561313646076 M15.206790850357994 458.2603413834116 C10.561552351909679 457.0738796219046, 1.5927393947149735 451.13603707388194, 2.1971598874801206 443.3648655323968 M6.4873175742299285 446.554172707165 C1.6679204177816063 429.4593901374287, 4.496688755565883 411.7873583618992, 3.699498220116948 390.40714862483145 M3.517975558416765 444.80990015778445 C4.174955858556146 434.3330458913333, 3.5363070440576196 423.47874002324744, 3.973334817159139 392.4954470668796"/>
    <path fill="#fff" d="M273.05055902771056 394.64092740014894 L506.93877344444917 391.0652927393879 L511.14032881215536 455.223170992513 L279.3548046028833 454.0301395903596 L277.66076647195734 455.15465219231703 L275.9836298712477 447.4995305968987 L274.9902555743887 390.32284883441173"/>
    <path fill="none" stroke="#000" stroke-width="2" d="M273.8946797093537 391.18665276743707 M274.2078823063428 392.01098015360424 C299.93137627464057 395.67427432004746, 329.7452061358705 393.8331200216138, 388.9154246059974 393.27921185480227 M275.77287338647 391.07562033774667 C316.9436255361381 389.9653879763785, 357.2263148050101 390.81947286213045, 392.26675835718777 392.3083521150082 M390.6019185103054 393.5901671385189 C420.8383076079219 390.6003849167719, 453.28180183932056 391.7889543074525, 507.2008165045918 391.76332930135396 M391.4487358593513 393.11262872627196 C415.8861470793041 390.74151582052195, 442.20748712816425 391.34557950665, 507.65421971735634 391.2149157908708 M509.3755589667395 389.7347322133937 C509.9680564193701 409.0779292871375, 511.26840445531906 419.06984549968325, 510.4655985945428 455.1147396479253 M507.6680387073284 391.29624671536294 C509.3862383865296 405.8639325225216, 508.62362355921135 417.49744599978584, 509.80285385429886 456.4232702010146 M508.7270105665033 458.2198664654352 C504.64812145767235 456.8080991192338, 497.9544171435764 453.530433796321, 480.6572852282543 453.63005235376625 M508.4753492584641 454.70876142467023 C497.19859340336205 455.75726344096415, 486.8177695289287 457.04665551894806, 482.846483343171 455.446238487968 M484.02299139389436 458.2484061900759 C441.7636305367472 454.2825638039364, 404.5132343211426 453.9054471904018, 283.14245346947644 455.4960226932104 M480.125274332142 455.9457911449528 C430.799574423656 458.0285580651539, 381.43032296886605 458.9945194094879, 285.04659826946335 455.2591288448124 M284.5 456 C278.79116695629267 455.21254141337266, 276.74724850578787 450.13068883435045, 272.6640371404566 447.17595183078157 M281.9725163259689 455.2698450331474 C274.79147092519224 456.84645046508865, 271.7655374134184 452.05042897508537, 275.7570671079421 446.09857921864096 M275.3153774901777 445.42866617828986 C274.08237748315094 425.0420416553243, 272.8591189403474 408.6510411817988, 272.81252069387995 391.2920543852539 M274.91294103939765 447.02604114564747 C274.98375096070674 430.2780995116152, 275.0603345086049 414.3625985834078, 274.350584211728 392.97817631216384"/>
    <path fill="#00aa5b" d="M534.2790823389423 393.8118265585457 L661.6050339673726 394.19765943616073 L659.9201209692816 455.7601181474471 L534.0613939632825 458.22960967872206 L534.3045560547856 389.8740540378785"/>
    <path fill="none" stroke="#000" stroke-width="2" d="M538.0281506912077 391.7764992780227C550.2651171618359 394.4775968772142 567.3079425963509 391.00362192476797 609.2223780729444 391.1719420321973M535.7850570756797 391.4032856424459C556.1725575832548 392.75836156380336 574.7271238232337 391.57454749012777 608.6687179352448 393.28863951836576M609.0134921709993 391.9206598814373C623.1650232686633 390.1956456461612 639.1505750410557 389.8874810280493 661.8468821032744 391.0252206788922M607.6436708523531 392.71282246235097C627.1320628475028 390.4426485694257 644.8834809879248 391.7960951238343 660.6716437842206 392.04870319517033M660.3732415865481 394.67958371384395C663.0317078650801 404.2116693691918 659.2133177746556 423.4024817239184 663.3633662326095 457.7861715456893M660.1628013040142 392.26166855897935C662.9816302611365 407.3833275427038 661.333756134698 419.44073243851057 662.6218967487636 454.96960220530093M663.9406778272321 454.48965594706095C650.1665161937027 453.67016102622733 639.3455453570019 457.32442616687115 608.560743821691 455.2319465456723M662.0958932823957 456.3505530626702C647.399013882084 456.58153815171715 631.892320755935 456.1920303192924 608.5692322721741 456.10538998832635M609.4711229236367 455.89344810147014C579.8137952188205 459.4496663715994 552.9216763383353 456.54116697471306 537.4579179339329 455.6901896542557M606.1279243569544 456.42757738608344C589.4545145484918 455.31498558366985 569.262378663481 454.0333410136585 535.7165681497397 457.38816982535354M534.663819285303 454.28674660093384C533.9090892783787 431.18820297897327 532.877416640843 409.89716303613096 536.3272649041871 389.29993760704235M535.1915478177809 454.70700626999826C535.669359372027 434.78744456385175 535.7766085780449 412.16778951262455 534.8476506582135 391.8663016612045M123.73018969768891 249.66078465680692C122.10801671732328 240.0293489348238 120.0344289134416 231.7470702448176 120.13279203874845 217.35068823737237M122.27699395044093 247.3552389562843C120.18799144794183 236.95852651802417 121.33434666758265 223.49311835057088 121.25859630407285 215.9065366813571M118.98441960316923 215.7491992950665C162.39934252683307 216.5094989223935 201.41630490307725 219.86549632248696 257.0495287778409 216.14774997682252M122.15233474286943 215.09585739107789C151.80711814815078 214.72267648912495 182.5665694243231 215.03637705442273 256.76999453738244 217.2293219734085M253.9738416340635 214.14309038955835C304.982306894499 213.72049875484416 347.38891765430856 213.4058755956056 390.2215486316607 217.36761601975303M256.02706381405335 217.27069695634765C292.8627933323889 215.6782644608783 330.89766025722093 215.3363724065829 390.19885428675406 217.08115043522284M394.08359995395296 218.34305666477957C392.3193364649491 223.88791730130433 391.39257717314143 234.93820277275373 389.6789632025742 249.4511153193831M391.0400588204241 216.63304868378617C392.64120895985707 225.97344626866425 391.52336577484294 235.579789604104 390.5244574708275 248.7730523643172"/>
    <path fill="none" stroke="#000" stroke-width="2" d="M212.7103993857163 472.5043159908615C213.18894526848285 476.72509062222093 212.40782742459487 483.28898481285574 209.7228850613341 496.7062704386946M211.82132623958495 470.73539603646566C212.35543726158053 478.14255897522963 212.10423483835825 484.0872417645787 210.22310184712234 495.2499634888849M211.5 494C212.76017933247493 498.2326799647681 216.00341902460835 506.4817442833097 220.03793860715342 506.2671213107751M211.46020529228116 494.11828109495286C211.99930333410424 501.6651477020246 216.33695587581266 500.824452805653 218.99752987756318 503.100967296829M223.51353372388817 504.13190683958476C289.05106666240493 502.93503996371345 359.82337505264934 500.7295358721902 482.6748062227882 504.80482012663174M221.52077447245907 503.90551015471965C302.2016299627014 504.3650079437759 385.18113696808854 505.2465222371397 480.5812813728508 504.4551493298177M481.3232041196199 506.53741886976934C513.9011760657886 504.04626456038557 545.0474517974137 503.16008048190116 596.6368325400879 501.3548248440391M482.57882181629174 503.49546766402125C511.2571472989115 502.9258810632574 539.8793668227103 502.0017940685749 597.0508109436307 503.17038534941423M597.5 504C602.3527964724087 505.8592667760589 609.2858314190992 501.0652664751421 608.7715177414284 495.1789940249866M595.3973034468421 501.5067483396262C603.1488662114184 500.8847196150057 609.5311389324223 500.5936271130116 609.5599642520449 497.17262452467526M606.0004269756479 494.6432974756044C609.9027955384737 484.6338362838993 606.3159142439247 476.3619342164442 607.9257836617314 457.11186590000653M607.84415173991 493.95691580081547C607.0126160615989 485.9568405763788 605.749332145945 477.4226119321346 608.1633321235429 455.7751809041547M256.7584043034978 72.45222526769722C256.5402700196749 81.49713274216047 258.0121106438507 87.04449459566968 259.1029227195657 101.86809143612481M255.1802788814628 72.0412512681498C256.7665605415603 83.24610270716876 256.7140056487203 94.2179719299009 255.1190070838311 103.57061344545255M255.5648284345465 185.67114369764894C257.83176786295945 195.32642119990487 259.37807345960675 207.88304756467696 257.4838803969222 213.66712580846925M256.9431099758003 182.7126883534831C255.95110347164064 197.0468980979189 255.6843975206828 207.98918424554213 257.4980019623239 216.63158580266972M483.8894556703555 265.63376033497696C480.9011684864054 252.01833310209113 483.43528589369095 237.5932190363732 482.4313814072946 212.15696000142924M482.2584367661868 265.36238343290023C481.4178866085176 249.68121092323472 481.52596480658667 238.9021440328899 481.77054179721017 209.41372006393794M481.5 210C479.7651574415402 203.56199844671113 482.221796173525 198.16278595808544 490.1985520834467 197.35109245754066M482.53146125224447 208.59431504328967C480.05250360350806 204.18465047127845 484.0428664634784 199.69033034867778 490.09194118413177 200.65506519543675M493.4996216110609 200.4720927004969C502.0414584753071 197.7939991329736 513.4985669630441 202.3518136566102 526.990073949108 200.67647297303773M491.50656386974805 200.00225542518402C500.422525100856 199.21721242506413 509.2880884372398 201.4274660259593 526.5507306731567 199.22056113557557"/>
    <path fill="none" stroke="#000" stroke-width="2" d="M484.1746764408046 470.98374419672473C480.98625029715913 485.3085324988184 479.3511311298715 497.38714639789976 483.53985277157335 504.58803626678895M480.5492084034631 473.32547217303596C480.32844465126954 479.99612952986354 483.0864996831485 488.0991058121552 480.95851409110026 502.6697654036154M606.9011050670903 234.18386464476788C608.3784620553912 241.289479278418 607.6677888814198 253.44007026907784 607.1077948942329 265.0617066468083M606.1496935491738 232.17551324676023C607.3276447884812 240.1878708735983 607.2042708584567 246.1433664610502 608.4641775097513 263.8584646270971M605.323995968714 343.61138363487555C605.3150379445555 351.255455103195 607.654598428196 357.0906786226125 608.4615705374047 374.6079095951529M606.8866075038513 343.64937003606536C607.9320063265527 350.2310954012049 607.10893326461 357.72054137873965 608.5418220697677 377.3996942903912"/>
    <defs xmlns="http://www.w3.org/2000/svg">
        <marker id="iPointer-w8ubldovyxj" fill="#000" markerHeight="7" markerUnits="strokeWidth" markerWidth="8" orient="auto" refX="5" refY="5" viewBox="0 0 10 10">
            <path d="M 10 0 L 10 10 L 0 5 z"/>
        </marker>
        <marker id="Pointer-w8ubldovyxj" fill="#000" markerHeight="7" markerUnits="strokeWidth" markerWidth="8" orient="auto" refX="5" refY="5" viewBox="0 0 10 10">
            <path d="M 0 0 L 10 5 L 0 10 z"/>
        </marker>
        <filter id="dsFilterNoBlur" width="150%" height="150%">
            <feOffset dx="3" dy="3" in="SourceGraphic" result="offOut"/>
            <feColorMatrix in="offOut" result="matrixOut" type="matrix" values="0.2 0 0 0 0 0 0.2 0 0 0 0 0 0.2 0 0 0 0 0 1 0"/>
            <feBlend in="SourceGraphic" in2="matrixOut" mode="normal"/>
        </filter>
        <filter id="dsFilter" width="150%" height="150%">
            <feOffset dx="3" dy="3" in="SourceGraphic" result="offOut"/>
            <feColorMatrix in="offOut" result="matrixOut" type="matrix" values="0.2 0 0 0 0 0 0.2 0 0 0 0 0 0.2 0 0 0 0 0 1 0"/>
            <feGaussianBlur in="matrixOut" result="blurOut" stdDeviation="3"/>
            <feBlend in="SourceGraphic" in2="blurOut" mode="normal"/>
        </filter>
    </defs>
    <g xmlns="http://www.w3.org/2000/svg" id="lines-w8ubldovyxj" fill="none" stroke="#000" stroke-width="2">
        <g id="group518">
            <path id="path518" marker-end="url(#Pointer-w8ubldovyxj)" marker-start="url(#iPointer-w8ubldovyxj)" d="M 121.5 248 L 121.5 216 L 256.5 216 L 391.5 216 L 391.5 248"/>
        </g>
        <g id="group872">
            <path id="path872" marker-start="url(#iPointer-w8ubldovyxj)" d="M 211.5 472 L 211.5 494 Q 211.5 504 221.5 504 L 481.5 504 L 597.5 504 Q 607.5 504 607.5 494 L 607.5 456"/>
        </g>
        <g id="group1017">
            <path id="path1017" marker-end="url(#Pointer-w8ubldovyxj)" d="M 256.5 72 L 256.5 104"/>
        </g>
        <g id="group1025">
            <path id="path1025" d="M 256.5 184 L 256.5 216"/>
        </g>
        <g id="group1881">
            <path id="path1881" marker-end="url(#Pointer-w8ubldovyxj)" d="M 481.5 264 L 481.5 210 Q 481.5 200 491.5 200 L 526.5 200"/>
        </g>
        <g id="group1895">
            <path id="path1895" marker-start="url(#iPointer-w8ubldovyxj)" d="M 481.5 472 L 481.5 504"/>
        </g>
        <g id="group2356">
            <path id="path2356" marker-end="url(#Pointer-w8ubldovyxj)" d="M 607.5 232 L 607.5 264"/>
        </g>
        <g id="group2364">
            <path id="path2364" marker-end="url(#Pointer-w8ubldovyxj)" d="M 607.5 344 L 607.5 376"/>
        </g>
    </g>
    <text id="text0" x="224.1" y="44.8" fill="#000" stroke="none" font-family="xkcd Script" font-size="120%">
        Users
    </text>
    <text id="text1" x="215.1" y="156.8" fill="#fff" stroke="none" font-family="xkcd Script" font-size="120%">
        Service
    </text>
    <text id="text2" x="548.1" y="204.8" fill="#000" stroke="none" font-family="xkcd Script" font-size="120%">
        PVC
    </text>
    <text id="text3" x="548.1" y="220.8" fill="#000" stroke="none" font-family="xkcd Script" font-size="120%">
        (namespace)
    </text>
    <text id="text6" x="17.1" y="300.8" fill="#fff" stroke="none" font-family="xkcd Script" font-size="120%">
        Pod
    </text>
    <text id="text7" x="287.1" y="300.8" fill="#fff" stroke="none" font-family="xkcd Script" font-size="120%">
        Pod
    </text>
    <text id="text9" x="548.1" y="316.8" fill="#000" stroke="none" font-family="xkcd Script" font-size="120%">
        PV
    </text>
    <text id="text10" x="548.1" y="332.8" fill="#000" stroke="none" font-family="xkcd Script" font-size="120%">
        (cluster)
    </text>
    <text id="text12" x="17.1" y="364.8" fill="#000" stroke="none" font-family="xkcd Script" font-size="120%">
        Container
    </text>
    <text id="text13" x="134.1" y="364.8" fill="#000" stroke="none" font-family="xkcd Script" font-size="120%">
        Container
    </text>
    <text id="text14" x="287.1" y="364.8" fill="#000" stroke="none" font-family="xkcd Script" font-size="120%">
        Container
    </text>
    <text id="text15" x="404.1" y="364.8" fill="#000" stroke="none" font-family="xkcd Script" font-size="120%">
        Container
    </text>
    <text id="text18" x="17.1" y="428.8" fill="#000" stroke="none" font-family="xkcd Script" font-size="120%">
        Host
    </text>
    <text id="text21" x="17.1" y="444.8" fill="#000" stroke="none" font-family="xkcd Script" font-size="120%">
        [zone=a]
    </text>
    <text id="text19" x="287.1" y="428.8" fill="#000" stroke="none" font-family="xkcd Script" font-size="120%">
        Host
    </text>
    <text id="text23" x="287.1" y="444.8" fill="#000" stroke="none" font-family="xkcd Script" font-size="120%">
        [zone=b]
    </text>
    <text id="text20" x="548.1" y="428.8" fill="#fff" stroke="none" font-family="xkcd Script" font-size="120%">
        NFS
    </text>
    <text id="text4" x="251.1" y="252.8" fill="#000" font-family="xkcd Script" font-size="120%">
        |
    </text>
    <text id="text5" x="251.1" y="284.8" fill="#000" font-family="xkcd Script" font-size="120%">
        |
    </text>
    <text id="text8" x="251.1" y="316.8" fill="#000" font-family="xkcd Script" font-size="120%">
        |
    </text>
    <text id="text11" x="251.1" y="348.8" fill="#000" font-family="xkcd Script" font-size="120%">
        |
    </text>
    <text id="text16" x="251.1" y="380.8" fill="#000" font-family="xkcd Script" font-size="120%">
        |
    </text>
    <text id="text17" x="251.1" y="412.8" fill="#000" font-family="xkcd Script" font-size="120%">
        |
    </text>
    <text id="text22" x="251.1" y="444.8" fill="#000" font-family="xkcd Script" font-size="120%">
        |
    </text>
    <text id="text24" x="251.1" y="476.8" fill="#000" font-family="xkcd Script" font-size="120%">
        |
    </text>
    <text id="text25" x="-.9" y="492.8" fill="#000" font-family="xkcd Script" font-size="120%">
        Availability zone a
    </text>
    <text id="text26" x="269.1" y="492.8" fill="#000" font-family="xkcd Script" font-size="120%">
        Availability zone b
    </text>
    <text id="text27" x="404.1" y="524.8" fill="#000" font-family="xkcd Script" font-size="120%">
        mount RWX
    </text>
</svg>
