<svg xmlns="http://www.w3.org/2000/svg" width="613" height="480" version="1.1">
    <path fill="#ef5ba1" d="M6.093316724512261 8.595791411667596 L249.54067137126768 8.739645026053768 L250.08538850002006 153.80859741358 L3.1891141920204973 151.1456999379625 L6.7454656627651275 5.350968775735964"/>
    <path fill="none" stroke="#000" stroke-width="2" d="M2.614603014671593 5.4200229840178515 M4.1001706005911025 6.770431269876377 C62.624281967578604 6.183791724325937, 121.19710192367506 7.236227331239663, 249.61551482789744 8.357841219111044 M3.6807576189265783 7.361510902544358 C82.48322292819968 4.777486017869613, 161.44031475410563 6.162619225443913, 247.7041555483508 7.4560753219324045 M247.1752968645007 7.636948112608616 C243.05288869836963 56.80286563955597, 247.55168769277236 105.14092161716107, 245.2493705585046 151.30976136517273 M246.15819976199546 9.277508581185248 C247.49409449789556 63.011688429231434, 246.75708735322212 116.13201418872923, 247.11374957838854 152.85088380672678 M245.21055232368627 152.84019621240853 C183.5324568642384 150.36741787190698, 120.54741313810351 153.6084002396591, 2.525655204362659 153.35367114029762 M248.13940570534297 152.73573250510958 C176.39648723306001 153.43789593846975, 107.49053277087889 154.02384310875576, 3.396322052978467 152.47509847959296 M2.075244398393261 151.21960749363788 C2.581393621999538 105.05866632315447, 1.335051007248782 53.19050149484101, 2.9620298907073446 8.498384752208949 M3.3841494406806305 152.6388468186 C7.250903449240053 111.48132430501245, 5.99044119877521 69.00199722658216, 4.252338657047585 7.306682620988568"/>
    <path fill="#f99c41" d="M303.20585921732726 5.399548112865159 L532.9850979214185 5.916223425076533 L537.6740392352294 153.23017913681105 L298.8225925863746 150.59887990280987 L302.8697112336631 6.046171078475891"/>
    <path fill="none" stroke="#000" stroke-width="2" d="M299.06127945579846 8.32957106387039 M303.68278713608447 8.597395445455568 C384.54850651677657 11.738752924055778, 466.24704896500856 8.582421433633455, 535.162831789757 8.798908810048136 M301.89011787792396 6.911638174550579 C386.806409849712 11.304440056626014, 472.2262534688312 9.86012183175626, 535.0613626130772 8.309592723787233 M536.6302737184626 8.74439259645369 C533.9091235556334 52.03877709292356, 533.7447733640034 91.63151547135459, 534.1665518441125 151.24162288010922 M536.3325534652467 8.233310700332732 C536.7117180327591 41.968287652330034, 537.0697469210643 75.02378011766874, 536.1767851381076 152.97674726151962 M537.7212768784821 152.4299173464848 C477.09322872041287 155.03406023437927, 423.75790582781303 150.46996336753747, 300.28466576892714 151.19634653302495 M535.2319417264068 151.73407756518503 C446.202029869791 152.34047143518947, 355.6044160811469 151.76502002239437, 301.5523334466977 153.0977077879827 M298.70487570061016 150.08025837548922 C301.75549306942116 104.21839352529923, 303.13000264676447 54.82204486687988, 302.1553884788606 5.201737292551844 M301.5308653975866 153.39149536636796 C301.5766460917086 109.55551967508725, 302.96193900318644 66.05879510649464, 300.74516210236254 9.34820749416176"/>
    <path fill="#fff" d="M156.97517198824926 259.4656906732373 L160.23328319597204 425.36598240311434 L158.2959987256385 432.70010425486913 L166.00232485149027 434.30183398088496 L184.59719572544708 441.80430980150635 L220.78810603195743 453.6367898153228 L259.4536304783687 453.82980550891057 L292.12749874879376 455.6936086110129 L323.1528839386046 455.04013577794603 L363.0820676936887 446.8157721212224 L385.7480197082564 438.0062944812104 L400.8541710992012 429.64502592123654 L400.14542825458483 425.45410810303144 L399.68366795353575 256.4719372011896 L395.57846830211565 252.8710414082517 L392.1126995490951 247.33431726184858 L363.2427070043821 233.63934773789623 L325.1803441774775 227.63134994253582 L278.41428064149767 229.01270577722752 L248.15703661701355 226.84021663177447 L217.0080508718522 229.40894051355616 L180.4732979237391 239.63448918569367 L162.08910935961435 247.12195013622406 L156.7420418036405 257.5191458316171"/>
    <path fill="none" stroke="#000" stroke-width="2" d="M159.24838473485616 259.209276781229 M156.526671941946 258.1088258414937 C154.14364886773032 313.9762189638027, 154.21535079967282 367.2141871494188, 156.23412525458698 423.2017881435012 M156.69215418115056 256.5863982382391 C159.92935671140535 295.1544335943176, 159.95998005648966 331.1776935374842, 157.4726052872029 423.3824105448119 M157.5 424 C158.98298544893186 446.6922668548192, 258.96087215695445 464.268169299141, 338.8842889653508 452.52218564824204 M157.41559669798806 422.3432052231163 C158.18453061786838 450.0310057221603, 261.3511738496199 460.39620149036256, 342.58122203664857 451.75186766189074 M339.75 451.0199925980745 C375.67371941174935 443.97823144564614, 401.3851425767076 437.6582457826675, 402.36383018457053 423.64244505243767 M338.81330660259374 449.7970433944614 C374.8886209796451 442.36441212758615, 401.9327130984272 433.8716709468738, 399.04947371193697 425.43005647733924 M401.018457899012 425.80749788443245 C400.59934292589895 369.6566551848453, 401.6990200855963 313.34872967746225, 398.84308699642935 257.2109349088962 M401.43330728872354 424.4513956575644 C402.1373217497628 375.5813217736317, 401.85540889830645 328.37918611119534, 401.5142940977029 256.4412910788211 M400.5 257.6 C398.7892659848716 232.6872924337409, 299.4151072910354 216.5330822808574, 217.9549829961572 229.68010078124905 M399.0750384031286 255.8421835873931 C398.9778710129825 234.8197433220296, 301.3629826389651 216.8888653639016, 216.55341283582067 233.67985310817647 M218.25000000000003 230.58000740192554 C178.3683068560216 238.80826197145652, 156.22056639879628 247.7124015429437, 157.64539493191478 255.4643291806704 M215.84769493746356 228.77212481092036 C179.0317190246837 237.5133230176226, 157.43507204511002 245.0725894262483, 158.93458784474228 258.70004098724684 M157.5 257.6 C157.5 257.6, 157.5 257.6, 157.5 257.6 M157.5 257.6 C157.5 257.6, 157.5 257.6, 157.5 257.6"/>
    <path fill="none" stroke="#000" stroke-width="2" d="M157.5 257.6C160.0168785213791 283.96749802444907 261.24662543411614 298.0953083430108 339.7030216799114 286.4589347666335M156.13818148305435 258.6639417116836C156.73673830734202 280.71703861391677 257.8933105183807 294.53468088795796 338.7930709264135 286.7902265245496M339.75 284.61999259807453C375.28168390054367 280.52367076909877 402.97097500930977 268.69112503451385 397.93456032503974 259.80319579523643M340.7579473775084 286.8442711554295C374.3524871986955 276.27706239837903 400.4871734357818 266.32879201786915 400.4803972414876 258.5368537305721M248.4443016990346 73.88420645445149C256.1376102677553 70.6262525421159 262.1605632621686 71.46054217426783 272.1242766319259 73.64160846991145M246.5609117760352 72.6402747340835C255.78644136681652 72.22610112710379 262.7828708485504 70.69522311683747 275.62963024642795 70.81107686695323M273.50021635862356 70.17777600075642C282.0661822150395 70.75798788124094 293.9247553816516 70.9547513170969 299.5153350861156 69.68526470984798M275.64724084430566 70.70268570747176C283.2633654347308 73.326137229088 289.4037617904032 73.59175625395083 302.8643535210995 71.44805311939199M276.82955743755304 72.8573796816374C273.0830418855533 110.03523478518619 276.7808086712429 153.4881196132694 273.33956823209957 197.900932357095M275.79904501414677 71.44949372796255C274.11012483108357 104.0026180236906 273.83125311425096 137.3813148606394 273.9414592366302 200.94508999358368"/>
    <defs xmlns="http://www.w3.org/2000/svg">
        <marker id="iPointer-1mfgf8776es" fill="#000" markerHeight="7" markerUnits="strokeWidth" markerWidth="8" orient="auto" refX="5" refY="5" viewBox="0 0 10 10">
            <path d="M 10 0 L 10 10 L 0 5 z"/>
        </marker>
        <marker id="Pointer-1mfgf8776es" fill="#000" markerHeight="7" markerUnits="strokeWidth" markerWidth="8" orient="auto" refX="5" refY="5" viewBox="0 0 10 10">
            <path d="M 0 0 L 10 5 L 0 10 z"/>
        </marker>
        <filter id="dsFilterNoBlur" width="150%" height="150%">
            <feOffset dx="3" dy="3" in="SourceGraphic" result="offOut"/>
            <feColorMatrix in="offOut" result="matrixOut" type="matrix" values="0.2 0 0 0 0 0 0.2 0 0 0 0 0 0.2 0 0 0 0 0 1 0"/>
            <feBlend in="SourceGraphic" in2="matrixOut" mode="normal"/>
        </filter>
        <filter id="dsFilter" width="150%" height="150%">
            <feOffset dx="3" dy="3" in="SourceGraphic" result="offOut"/>
            <feColorMatrix in="offOut" result="matrixOut" type="matrix" values="0.2 0 0 0 0 0 0.2 0 0 0 0 0 0.2 0 0 0 0 0 1 0"/>
            <feGaussianBlur in="matrixOut" result="blurOut" stdDeviation="3"/>
            <feBlend in="SourceGraphic" in2="blurOut" mode="normal"/>
        </filter>
    </defs>
    <g xmlns="http://www.w3.org/2000/svg" id="lines-1mfgf8776es" fill="none" stroke="#000" stroke-width="2">
        <g id="group833">
            <path id="path833" d="M 247.5 72 L 274.5 72 L 301.5 72"/>
        </g>
        <g id="group924">
            <path id="path924" marker-end="url(#Pointer-1mfgf8776es)" d="M 274.5 72 L 274.5 200"/>
        </g>
    </g>
    <text id="text0" x="8.1" y="76.8" fill="#fff" stroke="none" font-family="xkcd Script" font-size="120%">
        Custom Resource Definition
    </text>
    <text id="text2" x="26.1" y="108.8" fill="#fff" stroke="none" font-family="xkcd Script" font-size="120%">
        (e.g. &quot;VaultService&quot;)
    </text>
    <text id="text1" x="377.1" y="76.8" fill="#fff" stroke="none" font-family="xkcd Script" font-size="120%">
        Controller
    </text>
    <text id="text3" x="314.1" y="108.8" fill="#fff" stroke="none" font-family="xkcd Script" font-size="120%">
        (backup, upgrade, etc.)
    </text>
    <text id="text4" x="188.1" y="316.8" fill="#000" stroke="none" font-family="xkcd Script" font-size="120%">
        Cluster state (etcd)
    </text>
    <text id="text5" x="197.1" y="348.8" fill="#000" stroke="none" font-family="xkcd Script" font-size="120%">
        PersistentVolumes
    </text>
    <text id="text6" x="233.1" y="380.8" fill="#000" stroke="none" font-family="xkcd Script" font-size="120%">
        ConfigMaps
    </text>
    <text id="text7" x="251.1" y="412.8" fill="#000" stroke="none" font-family="xkcd Script" font-size="120%">
        Secrets
    </text>
</svg>
