<svg xmlns="http://www.w3.org/2000/svg" width="613" height="288" version="1.1">
    <path fill="#ef5ba1" d="M6.093316724512261 56.5957914116676 L600.5406713712676 56.739645026053765 L601.08538850002 201.80859741358 L181.3891141920205 199.1456999379625 L125.54546566276512 245.35096877573596 L121.41460301467158 197.42002298401786 L2.7106466209326303 197.80407681281068 L5.775712982661207 55.51729007959311"/>
    <path fill="none" stroke="#000" stroke-width="2" d="M3.015554322092794 56.909467129811674 M5.52161571480603 56.17280720892537 C169.34483686622676 54.368072355168565, 334.5986508245506 54.46280877162703, 597.8833269452039 55.0584120388655 M4.5985899572574995 55.73733013285615 C142.55586032801432 53.74763912625495, 280.2437112721468 54.223647917920765, 598.4273896225217 55.5000613211852 M596.2493705585046 55.30976136517275 C602.0941865479604 96.29329720151436, 601.6338751907506 132.17027914058673, 601.0550171623705 198.74063434955937 M598.1137495783885 56.85088380672678 C596.0100658958804 107.3286853994985, 596.8638778062545 156.029018180196, 599.0071801215937 199.92379255607813 M597.2121886965684 200.88296279325496 C514.8370250936658 202.0914531225148, 432.2589492617625 202.10930278774651, 183.6597965243718 198.79157248215097 M597.7801009536616 200.30989379039312 C472.2944022261319 202.20568162206615, 346.1981999774524 201.06575102115883, 182.48918533021393 199.83084343977313 M181.16202989070734 200.49838475220895 C161.02702287617643 214.17694584314802, 141.54394639185173 231.05325248706708, 124.57769363719999 250.37258057404105 M182.45233865704756 199.30668262098857 C160.13796024524933 217.9841874776365, 134.6482127763339 237.13494276684202, 124.38701961761471 248.61508956840552 M121.34617107847589 245.56127945579846 C123.96583988719603 239.54650257364156, 126.28915263002517 226.73606078050798, 125.88837885523971 200.70839969398367 M122.68380291134163 247.80009066124111 C123.17117604474583 231.4673685848331, 123.72714547080754 211.81761130900122, 123.76260711801733 198.70940565423308 M121.90626064750104 198.9597155685413 C94.20359920920717 198.22690632796198, 61.06611736820828 201.1036198327818, 5.630273718462559 200.74439259645368 M123.49087158992315 199.33327592205623 C86.17173553535969 199.16027784257884, 50.60074323144893 199.31621459962577, 5.332553465246747 200.23331070033274 M2.667875354204898 201.35357027621504 C6.455846860891732 154.58705288482307, 3.7796570456747287 113.10390487395198, 7.134020518468605 56.509801872452954 M3.1452343445995212 199.27942001907687 C2.077609570332716 166.7129462655525, 2.347290827157049 131.45947991200737, 4.182132831062336 55.68466553791241 M4.5 56 C4.5 56, 4.5 56, 4.5 56 M4.5 56 C4.5 56, 4.5 56, 4.5 56"/>
    <defs xmlns="http://www.w3.org/2000/svg">
        <marker id="iPointer-79emj0ou077" fill="#000" markerHeight="7" markerUnits="strokeWidth" markerWidth="8" orient="auto" refX="5" refY="5" viewBox="0 0 10 10">
            <path d="M 10 0 L 10 10 L 0 5 z"/>
        </marker>
        <marker id="Pointer-79emj0ou077" fill="#000" markerHeight="7" markerUnits="strokeWidth" markerWidth="8" orient="auto" refX="5" refY="5" viewBox="0 0 10 10">
            <path d="M 0 0 L 10 5 L 0 10 z"/>
        </marker>
        <filter id="dsFilterNoBlur" width="150%" height="150%">
            <feOffset dx="3" dy="3" in="SourceGraphic" result="offOut"/>
            <feColorMatrix in="offOut" result="matrixOut" type="matrix" values="0.2 0 0 0 0 0 0.2 0 0 0 0 0 0.2 0 0 0 0 0 1 0"/>
            <feBlend in="SourceGraphic" in2="matrixOut" mode="normal"/>
        </filter>
        <filter id="dsFilter" width="150%" height="150%">
            <feOffset dx="3" dy="3" in="SourceGraphic" result="offOut"/>
            <feColorMatrix in="offOut" result="matrixOut" type="matrix" values="0.2 0 0 0 0 0 0.2 0 0 0 0 0 0.2 0 0 0 0 0 1 0"/>
            <feGaussianBlur in="matrixOut" result="blurOut" stdDeviation="3"/>
            <feBlend in="SourceGraphic" in2="blurOut" mode="normal"/>
        </filter>
    </defs>
    ??
    <text id="text0" x="26.1" y="92.8" fill="#fff" stroke="none" font-family="xkcd Script" font-size="120%">
        Declarative configuration is about treating infrastructure as
    </text>
    <text id="text1" x="26.1" y="124.8" fill="#fff" stroke="none" font-family="xkcd Script" font-size="120%">
        data, which is more portable than code, and enables workflows
    </text>
    <text id="text2" x="26.1" y="156.8" fill="#fff" stroke="none" font-family="xkcd Script" font-size="120%">
        that manipulate desired state based on policy.
    </text>
    <text id="text3" x="323.1" y="188.8" fill="#fff" stroke="none" font-family="xkcd Script" font-size="120%">
        -
    </text>
    <text id="text4" x="341.1" y="188.8" fill="#fff" stroke="none" font-family="xkcd Script" font-size="120%">
        Kelsey Hightower (2019)
    </text>
</svg>
