<svg xmlns="http://www.w3.org/2000/svg" width="676" height="544" version="1.1">
    <path fill="#fff" d="M237.76668892451224 15.206505011667597 L248.0921493697052 10.39641422605381 L259.03862371252 10.005512613580027 L280.00322749202047 12.84560393796249 L291.6123908412807 9.749431138235963 L302.07777845959345 11.68266357151785 L310.074946535044 16.48241289562317 L316.13532223007337 22.152015940530614 L313.36449952795215 30.431878267311674 L310.55769610811086 36.78000795854086 L318.7042214247961 43.64598534326507 L319.22272949360246 48.82425399611436 L314.40615017496896 54.88657542247132 L306.05227298017763 57.2940297630097 L294.52591699716373 58.016669490681295 L296.07410662074597 63.96439175781092 L297.9700079769125 64.01604926428075 L290.7212142785197 67.45482890617168 L276.403417972005 71.31014546450072 L258.8476671126086 64.47923780592602 L239.1454967931065 73.61900820032876 L225.0655582898872 68.2526361585046 L218.55860551048522 67.73009831572374 L216.18158969321644 60.47667595851387 L203.23258097164717 57.4668349717455 L202.04920690737188 52.36733565521518 L200.70872453521253 42.997913539713075 L207.36855690052707 36.52691981345356 L212.73106770505478 30.656758506069423 L208.46504856801496 20.893205462036843 L208.93831976523333 19.903125874656233 L207.7913693761745 17.791954190966628 L225.06553272661088 10.180501440555975 L237.8076454409277 14.296974412300315"/>
    <path fill="none" stroke="#000" stroke-width="2" d="M237.6842301665786 15.991271735305183 M236.1733722 14.6107136 C247.0346717561543 5.564376877697932, 262.94094787741926 8.506322458461355, 282.8580091595347 15.476388568204614 M233.50845413870073 15.757876613069076 C252.07157055430142 2.6587502581523497, 261.21066731768354 6.254238624756683, 282.48137339241055 15.764191721468354 M281.3141133 13.699904 C300.9054533623642 6.404308290707345, 325.79932665220895 21.01965609997662, 312.67910585691607 32.5470330241681 M279.141039463584 14.90721794925242 C305.6033292601472 10.955941895537803, 325.13034638407805 22.80407520915729, 308.6339381135654 35.88890608277999 M311.2003944 34.4195584 C331.5397321173273 42.70101371286516, 309.2807766214185 61.08276422507653, 296.3845642140951 58.53396684197713 M313.3744336352294 35.64973753681106 C331.4090408187126 43.05456234024727, 308.9911500741682 63.54554752345095, 293.8008683743308 58.30931348823133 M296.8798869 59.9206016 C303.0284417195066 68.8725516552397, 282.64377129398366 80.29958755104556, 260.56738029314084 69.63181500669954 M299.3903137952829 61.902599636695584 C305.7615240491116 68.4423625235243, 284.30356182905354 75.6551755675192, 257.7934656960857 66.51913972085458 M259.210719 66.9789312 C227.18048942330793 79.9019428777187, 216.13270507859863 66.82430864750104, 216.24044653603465 56.20096810846614 M258.1704345685413 67.71316977667077 C231.50570657146832 79.17011237623194, 219.45815308592174 68.51865611558229, 214.96301934092557 55.82366231860579 M215.3152323 58.7821568 C192.1722768798463 53.57611344411248, 206.9333340801092 30.863048059499498, 216.18875974716943 29.507467369745903 M216.9130223816775 57.2992927735934 C191.931544800088 54.90580439370787, 208.65618874318977 30.55084225733563, 215.6897417700675 29.94703381076528 M213.7748688 29.4104192 C193.91601883117934 18.47117990782226, 222.30572556666453 10.317662118468604, 237.52694247621503 16.56420812303926 M214.28467067245296 27.71399424816275 C192.3823962925789 17.53654124387678, 220.44467262991208 10.417134294752962, 239.2814049903797 17.624798040043153 M236.1733722 14.6107136 C236.1733722 14.6107136, 236.1733722 14.6107136, 236.1733722 14.6107136 M236.1733722 14.6107136 C236.1733722 14.6107136, 236.1733722 14.6107136, 236.1733722 14.6107136"/>
    <path fill="#f99c41" d="M201.23350075693307 119.92255450318189 L319.5617307951732 122.78299073273593 L317.8295332734007 184.94546006431773 L203.6001190963565 183.7864316412757 L200.99032420472503 122.69641498832353"/>
    <path fill="none" stroke="#000" stroke-width="2" d="M201.97517198824926 121.86569067323725 M204.69742903427542 118.62451723430277 C221.8318313764168 121.6208583754329, 243.91870736785788 123.01696887725574, 259.1167972172483 117.86586192368122 M201.89901277008354 121.04035994151855 C215.6031767610926 120.22529890063578, 231.48866228250552 119.02774376401193, 257.86954489774746 119.7449465836431 M255.37193720118958 117.64803312145159 C276.37593020166133 121.74765176091886, 294.8800788898945 119.30746878651833, 317.8097322620904 119.16435296654 M255.91006127725677 119.766080729261 C272.09265786371213 118.5782763069087, 287.90976531732986 119.66132568519177, 319.6916646597714 118.83129045948917 M321.10927678122897 120.84841394989526 C317.93988936353526 138.6760393552846, 318.50079860806346 155.44387408670735, 317.4201343034787 185.414216061568 M319.1008940717506 118.8802140609235 C320.05711626353946 135.47233791196632, 318.59301221153436 148.20622102873602, 320.8373430114343 184.94388932734108 M318.26482108962375 183.13428896535078 C295.9463444458337 185.46572677986967, 268.06279844786314 184.19361348789224, 257.7392911019223 183.91559669798806 M319.79762200776884 184.87531935820516 C305.458733399997 183.05582807971658, 290.0874915882621 184.0216926523946, 255.6657442927956 183.2657910250695 M255.2770507963869 182.73867279298867 C239.83646668794898 181.61351900312377, 218.005672312768 184.99293025959352, 201.3912909058601 184.9785598103641 M257.4037489422162 183.56497904399052 C243.24307689979358 184.25480125657245, 229.003863453473 183.31152713094792, 202.3054674544481 183.80078736746447 M203.4027913151287 182.80430838115245 C200.2945024784707 169.18105289578523, 200.99466228875298 159.90972863049703, 200.18258215764217 119.7049829961572 M202.5825536455177 182.98098023903805 C202.3349540864054 165.97802121238564, 202.30978829171963 151.061617840096, 201.83820478825328 120.5380497914426"/>
    <path fill="#fff" d="M537.3373762077957 166.5371683140176 L661.6453949319148 165.86432918067038 L659.2105376821797 234.65491136696363 L534.2205663987963 233.2590879480784 L533.0976949374635 166.19211740899482"/>
    <path fill="none" stroke="#000" stroke-width="2" d="M536.7474676910803 168.9565573802146 M534.2993702881591 167.83288933188305 C564.7439811473489 168.86539469384815, 600.9694889813971 165.9636598136728, 662.5258368362774 167.66188867195123 M534.5913179419065 168.2122489173431 C563.9239090055177 165.66133147424128, 593.2771805410324 165.33550458337828, 661.2261821698446 168.33642053079421 M664.2584493709317 165.3151697288136 C662.9253444512998 186.7913669797588, 663.4261479179007 208.19356912107395, 663.8497268261606 234.49662543411614 M661.0839438810493 168.94357996803265 C660.7323651647262 190.16021747046867, 660.6917443869169 212.19316009723406, 660.2172801625198 233.1015978976182 M661.4444386293792 233.0079473775084 C651.4981904853257 232.65011737554633, 637.8624792738302 230.06738618515482, 605.0916634807581 231.9888464658972 M661.4027065655021 230.9538828663499 C648.3904078215604 232.18363696984247, 638.1518111099798 232.07410992318302, 606.6829260448827 231.4179189690447 M607.344788906649 234.46294276501285 C587.260658293149 230.71280260123854, 569.694106326878 233.2631974628351, 535.7642498174318 230.76441305716872 M608.6510116241509 232.2112746177141 C592.508647642879 230.6440835235181, 577.7760627591823 229.7671623855806, 534.8000270761898 231.3925695585349 M535.001759579702 229.34171190804628 C534.1458518896841 226.06954730205615, 533.222917801165 217.83775433549744, 537.700916944111 199.32930805909854 M534.8946730352716 230.71760775663716 C535.2322024855806 219.03016784979565, 533.765802654413 207.7198530185786, 535.9286898408187 199.44983729484412 M534.3395682320995 197.900932357095 C533.8379393372503 191.3561054013697, 533.2892474011948 187.7593229076323, 534.3989874559251 168.7876237911907 M534.9414592366302 200.94508999358368 C534.1894553684467 192.28664036529997, 534.9289438422607 184.5075423432347, 534.363991102824 167.24795383463623"/>
    <path fill="#ef5ba1" d="M5.128303992020665 265.3908266381688 L231.25708084649995 265.48140631118224 L235.41930401261925 265.95679746277744 L238.44515102436563 276.52451526860824 L239.38757328303254 325.1378703559814 L237.08028055431788 325.19734366624 L226.379622965843 328.2480973178666 L7.299939762977738 326.44781942398185 L7.137862992168084 263.6426224499388"/>
    <path fill="none" stroke="#000" stroke-width="2" d="M6.825572746769467 261.7707256515176 M3.1071772968003644 264.74382444469086 C45.99112873421527 262.75747184916463, 82.89849500287055 260.9176468020217, 119.24046428210276 261.5364775504098 M3.6225442756045596 262.82246903585764 C38.263534427385096 262.3126578909898, 68.20666969302074 264.4222458799768, 122.43618662238732 262.624379952991 M120.7013136121066 266.5350153910018 C157.14032565102758 262.8060490390541, 192.59766624681154 262.00423489837635, 227.5129262413262 262.31672105759935 M120.69810488599401 264.3817652509115 C148.45946805641725 264.07935657564707, 178.97605409400205 264.54240125189244, 228.71474670206385 262.93651755946047 M228.5 264 C236.41813005137251 262.6135633677386, 239.9603243422942 265.81172422401335, 238.30578140452127 275.0691170217615 M226.4369695004698 262.26631332382385 C236.18103634540475 264.7274482699075, 241.51687725375382 267.72431704251835, 238.53258150310657 271.512084232239 M239.04625308592804 271.5747706661317 C236.77026215377956 287.3937944698249, 236.5318765686476 304.3175990752112, 239.56340575104406 316.13998098435985 M237.3029950126027 273.7887635931278 C238.40895914176858 285.68342104299734, 237.76195596413922 295.9963235058444, 237.63422466308984 318.20450151176226 M238.5 318 C239.18318157676185 323.6436872852474, 237.42840738928814 328.6511631231122, 228.53279359406005 328.11537869737305 M240.33237151628563 317.7507450612196 C235.54798866269186 325.65147919652657, 238.02289541090695 328.13321457158565, 231.13721286411007 327.22967460055173 M226.45861085946564 330.60113536459755 C201.23286746340125 326.9678890455886, 174.73002175015355 327.03811402242144, 121.94505161637426 329.55921799452335 M227.76955010473102 329.31876433624495 C189.0816662252957 330.02557935199184, 151.16448480382095 330.0969423389215, 121.71012027130273 327.85538434352856 M122.0944181329498 330.20188334990524 C81.90255040993289 326.2271415632322, 43.62085583189764 324.3623874111743, 7.243381291216792 328.9928198914902 M121.00534368368025 328.81592517747265 C78.25463581488201 329.34983432137807, 35.578447951383694 329.9406932369678, 3.3166528389804624 327.27279118991135 M2.5658377423751517 326.0997750212176 C1.7906388052294206 303.4009135358006, 2.523872056211869 282.89926612620326, 3.9518660640918823 264.23973681861463 M4.11673649397635 326.98008503277526 C3.7992129372543566 304.8226845892212, 2.7379283788011217 280.75899548021295, 3.9142867592578114 263.5537734015561"/>
    <path fill="#ef5ba1" d="M274.70961357506746 266.1393450615309 L503.96627070132456 263.1661359174802 L508.454127374127 265.4604410226457 L509.2768827894964 271.47777496520285 L509.5002933470285 328.0599572725885 L272.605559413596 328.51298490432816 L276.79208229902287 265.9895460184358"/>
    <path fill="none" stroke="#000" stroke-width="2" d="M274.03229322524567 261.5064231155824 M272.08869155395803 262.2220570745003 C308.56625863244847 265.11171577766413, 345.95582805682045 266.92539945757284, 390.11037849033016 264.220099947368 M274.0562411066861 262.71298351391886 C317.13336105434536 266.8071330410936, 359.9123920685157 266.58809816638154, 391.1802792949653 264.70176674695176 M389.3553394454939 266.7321143015855 C412.05256282974335 265.8306697873895, 428.98576591312064 262.8566426599109, 479.9721313581911 261.74233530147467 M390.1965777073914 265.3783230340774 C414.7040858624523 265.3606133100531, 438.37851982387076 264.7746009565495, 480.34507727489836 265.0452693172974 M481.71945366277987 262.63910199544955 C487.7902977713155 266.3957838601924, 493.40773179253796 264.8837637401528, 500.1199513610193 262.6955318477536 M482.1309365966019 264.36899208971516 C486.86239056007366 263.4012912289598, 493.3962587354535 264.3370475289681, 497.8884329444751 264.8091590750116 M498.5 264 C505.85321183948355 263.21138351273186, 510.98671584469923 269.4432448226759, 508.6208310091104 272.0746406425613 M498.7792037381063 264.6653278355967 C508.18516509580246 260.78751307562925, 507.8651454317058 266.2641184140576, 506.40940888740516 271.61732269522315 M510.67279222385406 272.99779177319795 C506.3760729511664 285.79369868773136, 506.3413705029536 302.331710754169, 509.803944698305 327.062420584754 M509.2387275904504 274.07818635208895 C509.48481802258726 288.3886638362232, 509.26861257528253 304.10036701082026, 507.67135782199887 326.6122106148767 M506.51657486972107 329.1467160249049 C482.03571524725953 326.2429918636156, 457.1043515839854 327.3901897839244, 393.1946709766136 330.2084569711705 M507.4039118437293 328.5390389646403 C471.28904739997796 326.92969338364844, 434.13150238724535 326.96916143354383, 390.90084375957485 329.2435056985349 M393.27824453445066 327.4164702659444 C366.7699688582652 328.725190490715, 343.59256419919836 329.08749881558157, 273.3795748374265 328.25511025401136 M391.07580149134697 326.98037346001183 C357.2460965687198 328.8684753162642, 323.4716280005821 326.834738161969, 275.6213654903884 329.1887849539351 M276.291760214838 329.4937501371227 C272.5405147450887 314.33172431012247, 274.5844611756134 302.1859235826189, 274.33543165756856 263.9324675301679 M275.53521298355884 328.47671006394955 C274.29847517362424 305.2909842692712, 274.2665422498717 283.1863648644874, 273.55587674529886 263.6659498630546"/>
    <path fill="#fff" d="M535.150271877741 282.0892404795537 L662.5484377466331 279.8008324960101 L660.5697360108956 345.86459549685316 L537.7193575524027 342.3641152408847 L534.5404720053673 279.6758460547291"/>
    <path fill="none" stroke="#000" stroke-width="2" d="M535.104211041292 277.5086735694655 M535.882709936364 282.0896462100078 C551.7009639028329 282.4188749689309, 574.7071010942979 281.48783635664023, 610.2043559227059 278.2487415063879 M534.8854685177503 280.6442772390095 C564.5447543243761 281.0638598628678, 593.1484457861882 280.6930281584796, 607.8525544180586 280.3198058186422 M607.9796500316127 278.6522597108327 C620.7819390135788 279.97741454817697, 635.1882135922402 277.7353570484033, 659.8813404108885 280.4991212742767 M607.5932406048221 278.8672635096617 C618.3559658481543 280.35531456761674, 631.2822061794155 281.50227712336834, 661.0102105717688 281.0868456459022 M659.4113626713527 280.4409311515759 C660.4812100113282 295.35503700337085, 661.1282401560078 308.26094716283154, 663.1497629519974 341.232336044652 M660.3570401502897 280.64950358623463 C661.722638205511 299.1972541640513, 662.1993505051832 315.94595077672983, 661.310367348804 343.66323123941476 M659.733815297345 344.9317705258771 C645.5343809363172 344.80309519616776, 628.6484304498834 341.6885547570745, 609.3218687949287 343.4096178108957 M660.2425274793543 345.18217563853614 C644.130855703418 345.6520658437417, 628.1123188852239 344.0433176952516, 606.1806309930416 343.0551016518526 M610.0717412546597 342.0287627810423 C587.3319228072969 341.1116429360065, 564.1100976546022 343.0676378276499, 534.2256338984196 345.0707812439738 M606.7523250403659 345.31866236388015 C586.7822750492626 344.48255858826576, 567.3364771326957 344.4013042318244, 534.6616378669908 344.135414977764 M538.1685979254496 345.22087470275585 C536.1604754803318 319.357059180428, 532.7015683551422 297.3038806890589, 535.5824199690971 279.94678753678744 M535.9693743340023 345.39141371128864 C535.4994857585976 319.21229548342745, 535.7272611272949 295.0870026999662, 535.3946431793207 280.5318394440408"/>
    <path fill="#fff" d="M3.771725591701397 330.08482886518357 L118.87324366592293 330.18535158187007 L122.66652951553843 391.451398741272 L5.021566743263975 393.69884187221976 L6.360115198277344 330.1841981357211"/>
    <path fill="none" stroke="#000" stroke-width="2" d="M1.985574322773755 326.9606093542807 M2.2292101132417885 327.3781988908784 C51.881553077260605 324.79112426666416, 99.61178957377005 325.2270035083336, 123.94231163505829 329.2646007250063 M4.599313095622892 328.66541822094393 C33.43705606674812 328.06176394826116, 60.55790706317176 327.2490318043273, 122.77458298254687 328.1095312855741 M122.13217865476545 330.67795293375605 C119.46618034466844 342.83175105774137, 118.91450902798859 361.36817616300175, 119.19820706179453 394.4430019284613 M121.18672309735084 329.2206946798527 C120.79884007867521 348.25651364044245, 120.2990632724076 367.93577914271555, 122.08649136428866 392.8962195760535 M122.56436583322684 390.7281073046077 C79.31360565321137 392.71769888101284, 32.63828661732804 391.04944488602473, 2.873034081842343 394.68590002566924 M121.89503760322096 393.22184660909005 C83.72566626700535 390.98375729699075, 44.706159697550895 392.0263675705319, 4.377874611199149 391.3091954231939 M2.5341295418140364 392.92130902935895 C6.922840360220348 369.69287642847195, 4.291826542554249 352.86501182001666, 2.3256211206666197 326.8432829785961 M4.219973643122648 392.9361125852367 C4.047726750235539 369.66264451460734, 4.9665011248117805 349.7478050198741, 3.4101351002729645 328.78099438004136"/>
    <path fill="#fff" d="M124.02190599254682 326.2012224631355 L234.2832886346664 328.9630413554645 L234.0685490329015 330.5005028013096 L240.97158716160774 336.0657477075256 L241.09010042233277 392.2335770946214 L123.18838877114612 394.2530471910257 L119.03849201716949 329.4074109844936"/>
    <path fill="none" stroke="#000" stroke-width="2" d="M119.22770798120806 330.702181420775 M119.49488994830972 328.0672494221726 C162.49619363188293 329.75929730986473, 205.96860244064518 329.0366803423168, 227.79890905534904 327.03760998517976 M121.29422131632236 328.35136845298985 C161.65065369830734 329.6928131894638, 203.84418048960828 327.75963074745033, 228.71989426729724 327.17494890103114 M228.5 328 C234.67908194741963 328.47784304821545, 236.4501302006087 331.296259587893, 238.97093119300334 340.76026432632716 M227.9617347114683 329.55631259640506 C234.3985139649512 326.6898144915505, 236.738518502342 332.3645723647119, 238.72701739201767 336.60258546588994 M237.88751408015406 338.1617073904905 C236.6609323994904 358.7716335752801, 235.95293625963896 379.74966541510804, 240.36860933350255 394.4485857528387 M237.11144736371352 338.4384033957496 C236.99305837121503 353.50788241679345, 239.0873720978947 368.1410174046574, 237.211670728844 390.9683310326939 M237.57416304261568 393.6766847298433 C200.08952800249227 395.7268639685849, 159.0618706900237 395.0850510261343, 120.39318305653724 391.85557425386435 M238.19241370340728 391.457788458146 C192.65836336673664 391.12246325925605, 146.3103138730984 391.2093012254308, 120.41484653841617 391.31294036497854 M119.91187597820245 390.9045313291102 C123.65558798851747 369.40725661320903, 123.41834426275786 350.63070085241344, 119.64120789650369 329.0371578168324 M120.71018267718209 390.7962108573476 C121.29737268854666 378.08982671836634, 121.39250943747562 363.6587559817359, 121.46946083624061 329.1133217062663"/>
    <path fill="#fff" d="M272.82465812126395 325.9840017850867 L392.9703013147264 325.9468712865411 L390.316685512774 390.0392549183736 L275.06342175475766 391.4083253421297 L272.93570872884084 328.2358047621965"/>
    <path fill="none" stroke="#000" stroke-width="2" d="M272.5145965043166 329.8237886741023 M274.33519869214797 329.2799325487431 C297.5522704607118 328.33849036396697, 322.76363588859056 329.28268074393833, 393.2696710556382 329.5008343213573 M274.4228560361109 328.93781763251974 C307.4238968036276 330.5132315033878, 340.0862186173374 328.4870487203372, 391.4119629836379 326.81842571190134 M389.73329481607 329.07593102896647 C390.33876696533827 349.3598592558381, 393.8543894088578 376.02913529397335, 389.04182056246935 391.8354230702287 M391.492680286285 329.0485240125774 C390.73218904833163 341.2267684563329, 392.7944989760272 353.08547387934885, 392.64985827423095 392.9730074545165 M389.7654873208754 391.3169094107458 C344.9939586014444 393.2562526680734, 303.7605008724962 390.89177816143433, 275.8334031311897 394.5295652169705 M392.47507941028596 393.0299253792538 C363.3509648651239 392.35534208163995, 338.28337510695127 391.5207601655068, 274.1272571846748 392.6989973598099 M274.34379272443914 393.3720495340807 C274.5063390481473 376.3671319748948, 272.2159194454458 359.17817161838906, 272.20842193321295 330.4850477387357 M273.213461778911 390.74019714970746 C272.9230153110667 370.9033121803277, 273.25974724795407 351.2051166676338, 273.4390282656826 326.791014071614"/>
    <path fill="#fff" d="M389.90642516029766 328.60083775181886 L506.23955845359524 330.50677048479554 L507.63927254988704 391.6833578509925 L392.72429347477646 393.09041848782147 L393.077170713697 327.98902592087614"/>
    <path fill="none" stroke="#000" stroke-width="2" d="M392.44353526614 326.30637665625545 M390.59119300966483 329.79419748732033 C430.0783660703386 326.94807574338887, 472.5558132804013 329.59368763512254, 509.56802700750416 328.9872131716773 M392.2607120219236 327.96091759440895 C430.67600786076326 326.7784822153399, 470.31152747582763 327.9226943239037, 507.6948555056999 329.1458206507661 M510.49300647234486 329.2317546015256 C509.89939483590103 353.83126087124583, 508.9480629285078 375.65277191771673, 510.1964786321565 392.6266319323819 M509.43413527096965 326.82755763935313 C509.1158271661111 345.97633228761117, 509.2399519098991 360.90534152877956, 509.3103861481733 391.2047864995917 M505.842373337959 393.1906146262525 C465.31579511960854 392.9720639249583, 419.11443351532887 391.94213090687083, 389.9711130296135 391.7037551025671 M507.70099373913473 391.3758706386161 C484.7785396715222 394.44486954134345, 460.78442350781114 394.0634091627137, 391.4889145251276 391.652592480553 M389.4873926422697 391.30333141791925 C390.1562161349944 373.1075493351586, 392.4567070047042 356.142458832603, 390.5384345945349 329.0718684957719 M391.00956040536147 391.01589442337536 C390.73601024651293 368.19281515601995, 393.10702937557767 346.89694297110765, 390.93837804466165 327.28258430158"/>
    <path fill="#fff" d="M7.284479394675873 391.64551673770075 L240.25368028671218 391.21238006679926 L237.19851510118315 422.7963131640587 L153.66768983864458 423.74536253488697 L149.7029912550701 429.4999256088173 L150.94856829999043 458.24120815833487 L14.949074653899515 456.41328274121116 L8.712059090887488 456.2795163556302 L4.971531535284885 447.89339566461933 L6.258599011384649 393.60099241399695"/>
    <path fill="none" stroke="#000" stroke-width="2" d="M5.139974926252035 393.5058320593351 M3.6726882968403514 389.8834038437286 C47.06469752469156 389.6233717927869, 88.55278170422989 391.78192114249026, 120.34705331403674 393.6892091827409 M4.730595670634534 390.75419832450353 C39.66975630355951 391.3306498735325, 73.84505376656998 392.8149462228128, 121.05592755464423 390.7403846877654 M122.14930402354658 393.2581614295392 C153.29603413100358 390.5262318186722, 187.4514484105228 394.4352326044818, 237.67038230454892 392.2203475055734 M121.24661624213732 393.2785893124572 C164.83002262314875 393.41716320911206, 205.9681439527723 392.76867405376385, 239.06598674441958 392.4540658209873 M241.17478054607835 392.83226976639935 C237.12912602290578 397.6506543027266, 236.0512697953607 407.47655188556524, 238.43333516377578 423.23715224315526 M237.18100667672698 391.83656843534646 C238.01863415574132 403.4121566677244, 237.4042149832834 416.04206494482315, 237.51491123597953 423.58942949194386 M237.10833323370315 422.99510141440476 C207.03430162487058 424.00794671250566, 175.64874488569586 425.238451364355, 159.47347787018444 423.38811923752945 M237.81391841446185 422.6578185348615 C214.44690263100492 424.93533739389454, 192.76333468422234 423.81741224213, 158.8821103151622 425.34674114618537 M158.5 424 C150.68322772066216 423.3177722373759, 150.03973858371538 428.117164980561, 147.6572440022829 433.4603654278206 M158.5646234244028 424.1434735622097 C150.31352396360066 424.73707119467974, 149.6083180992433 425.9643716450124, 151.0089463616635 436.1003289454087 M149.95613136460761 436.2231451531305 C148.43162898538768 437.4448246285669, 151.46244261055372 443.63353840425543, 150.76034138341166 453.99753033693923 M147.2359736498761 433.33450887270226 C148.85515476235744 439.67714989249833, 150.0551365532349 444.59285392455155, 148.7770863535825 454.8208993363114 M147.69949822011694 454.40714862483145 C105.5691640497343 456.05011579370546, 67.26245557060419 453.30833316306706, 12.119800315568863 455.76988794074714 M147.97333481715913 456.4954470668796 C112.59012753971292 457.0052548952126, 77.34908277393987 455.2174375648321, 15.820164406077675 455.6115854962565 M14.5 456 C8.494099805290656 457.65465219231703, 5.983629871247649 454.1661972635654, 3.7298046028832688 444.6551395903596 M14.990255574388721 454.32284883441173 C5.535760178727336 454.0263229148548, 2.0311452373320575 452.3307313189609, 3.803881665756708 445.0646506825526 M6.241855768721507 446.57722433799574 C2.2719053114095518 431.05803584427986, 6.460966475216315 411.50671223328663, 7.27314548168415 394.54574677294005 M3.617398014503851 446.44176296891567 C4.921608101109891 433.6738165265568, 3.672024872032202 421.5563527961167, 4.278918494202662 391.5509592551527"/>
    <path fill="#fff" d="M276.0901671385189 390.2733440372875 L506.84171955498897 391.6518746980517 L508.0302889456696 422.7008165045918 L423.88832930135396 422.27784104599124 L417.92643474509094 431.3832230808359 L418.3974717187026 458.2252574525439 L282.68783684568155 455.54015264562184 L280.3710596304751 456.1232800178779 L273.4334394347126 448.80483158174155 L272.5940338526125 393.6761513238833"/>
    <path fill="none" stroke="#000" stroke-width="2" d="M276.41173419192927 392.8755589667395 M276.7320360316764 389.3828336020262 C302.10001534336664 389.8076019950146, 323.2453827396053 389.7238156907748, 389.8736535049058 390.33607741465676 M274.933718489232 390.6332208936932 C305.02148711840346 391.91804083672844, 331.9929359233052 390.23381494299, 392.21767585085655 392.11350528325164 M393.5119990960899 389.33666131658975 C435.03315581596564 389.27067126965727, 482.4201947333182 391.95494609224863, 506.55913106339574 391.95069851692824 M390.1997871048701 393.30867282538964 C417.1554181064865 391.4236800135033, 438.7462240908673 391.9168132051931, 508.3507469104312 393.2614956969472 M511.11121277179444 390.19947577685235 C507.15247263140816 403.6656297675829, 507.2534961761331 414.3020521401437, 511.25150791709893 421.250548664284 M508.9492495258426 392.28428411114544 C508.90549033414953 400.7352228904188, 507.44091063491453 411.5401640066036, 508.9789168114797 423.60627070668636 M507.7698450331474 425.0931018329931 C478.165011043151 420.34390878417787, 448.39462384961223 420.6112129768383, 427.96414113775535 425.6032834977435 M508.21433308914493 423.4966611162643 C489.90043309596075 423.2111828409336, 473.58434512749665 423.48241134301105, 428.14602719262695 423.8369402307893 M428.5 424 C422.65921541212856 426.05208229129494, 418.01705974804065 427.03164270836726, 415.81399597523557 434.0524862738072 M428.170226843837 423.00941787042245 C420.429278023117 426.0836005423276, 418.6207890624785 429.86064168491816, 418.15634368697437 436.2498055179769 M420.72960967872206 432.8045560547856 C416.3476670340977 436.9368210018529, 418.7286209600723 442.04189326281886, 419.560122928899 455.9553312713222 M419.7307580674451 435.18367335537084 C417.9691855118044 443.44759315099253, 418.0613859366811 450.8934987736226, 419.68771209522237 456.1939740204871 M420.2960457171081 453.8000421579256 C375.00001413110874 459.0195041933896, 335.2204721594353 455.7939563609353, 282.2151096233254 456.7553414261296 M417.6997939156081 457.3380748757456 C370.10257050248435 456.96257416963743, 323.1263281313106 457.40260066104855, 284.97117601313187 457.104060531448 M284.5 456 C279.96499512482325 454.0776825128152, 275.0020341688185 453.45124228829906, 274.78734170470636 447.42564492470194 M282.84328756844116 456.0974063903406 C278.5719437096872 454.70422782453034, 277.5815212709205 454.0346238014738, 272.19805556215334 447.2297090938593 M276.3633662326094 447.7861715456893 C273.06402514907097 437.1442048755511, 277.6553221807721 420.23303234106135, 275.0233371179587 393.2413469164909 M275.62189674876356 444.96960220530093 C274.02395408668843 425.2900341346725, 275.12809234793576 406.42766454579066, 273.7448279735305 392.44541342530357"/>
    <path fill="#00aa5b" d="M146.13052287318715 436.29416667081097 L152.284788013831 427.560743821691 L157.73194654567232 422.9907303235439 L241.24965899805247 426.408575000352 L239.69178656479124 456.70110612534046 L148.80513044069448 455.8624458032442 L146.29884686492295 433.08343013839476"/>
    <path fill="none" stroke="#000" stroke-width="2" d="M150.63846454434824 434.2107799766527 M148.5 434 C150.7933871506306 429.30445625697, 151.72678143480348 422.72523470590534, 160.37111535608855 424.1975430320214 M151.12404699737235 432.244555312505 C148.14371810239402 426.2126442008236, 153.67810484494996 421.4753988403232, 158.17287974055893 426.25160562402283 M158.71059102383296 423.901202352962 C172.30686963783575 423.59423565548605, 193.59547515875784 425.0905229688036, 240.96888883807915 422.4753729178716 M157.89915704696904 423.08373053451413 C180.66960487675314 424.733978969468, 200.37179329096688 425.0052324215048, 239.12353857321142 423.0265870430634 M240.73670310832387 425.3513465298005 C239.74544899288932 431.59026775706917, 237.8188453288084 444.0966376810895, 238.25357810263876 455.7047093439047 M239.33039232840346 424.3028264291752 C239.33872406363236 432.849147820285, 239.82884720086048 442.4826266054755, 239.17534411868618 457.068997624403 M237.2104779125686 453.7868242503413 C209.37714464256132 456.7788292450198, 175.40641991416777 456.2164871635425, 148.3130733627142 456.0124093928345 M238.37459964753324 456.1697557628333 C209.27476700499975 454.2663102717983, 182.33460668752815 455.1427532103466, 148.57387498841126 454.9611677812027 M146.69171478215577 455.6488576588214 C147.30357028078197 448.4855327763333, 147.9309714113775 441.1062914800597, 150.95864394681703 435.2425520622252 M147.57154519477916 456.9957154400996 C147.44481787771497 450.142390172157, 147.28750629809568 445.7383890344354, 149.18380800987651 433.6953791883461"/>
    <path fill="#00aa5b" d="M416.0296807205585 435.29318919043146 L420.05412762810664 429.0413939126953 L426.1004166038168 425.10233432883905 L507.04498039251996 424.4185502202483 L505.8977085735081 458.1623008704457 L418.6874441633583 454.149757831054 L420.08068618597815 436.58359995395296"/>
    <path fill="none" stroke="#000" stroke-width="2" d="M418.5 434C417.8097589707919 425.5122965359075 423.28444865271643 423.72500633238405 426.5736954003234 424.18861592017277M419.8917609258453 431.4910725619804C420.61261258696015 428.9151002489944 421.37490659476106 426.3191970849059 427.44213528697543 425.4560119727082M426.6045454703227 423.32572271292156C444.69111268374 422.5649033556114 466.56134190945886 424.56621611823834 510.4347247120773 422.6548799192111M429.85313521934734 423.35385189306396C455.19277165262685 423.6829074008411 483.413365486381 423.44624201193204 509.4881518151502 424.55793457184336M510.9999269777698 422.5379386071534C511.0608790572731 436.544635085453 506.3597710445994 447.7389971972312 510.9817442833097 455.96020529228116M508.7170884061323 424.4341221892861C508.8055791753476 432.3545057010375 507.63129203815123 444.45831073593035 509.1713542585843 457.2585120641928M510.5721521461604 453.6572671617658C501.7095685838649 457.061993616731 492.3691427240185 454.7865345598159 480.78306375155296 456.0519383885292M509.11413080632536 456.6262018977519C499.4793506083366 456.4405116367326 492.27355261296907 454.962472058231 482.69495869526384 455.91160205981M483.43558945331097 456.54623256840716C456.027640083107 453.80603608780996 430.8836290237192 458.4566290179061 420.7950537606841 458.1576436325835M481.86267991049533 455.3329252497717C464.42120645553496 455.3323030634204 448.8765498945228 456.7514147264995 417.59306490287105 456.92963338802946M416.0067483396262 457.79127326264774C421.21495795556797 447.11180286800754 415.7472145558553 441.7599012515966 418.4364873446478 431.75910670126905M418.8216487378022 457.0750948506455C417.9595111200431 449.72626480826216 418.00295391931957 445.10211304064813 419.05593295000324 433.03095936124845M122.95317482810643 245.35885269368592C123.43799815870584 238.9400316987201 121.06414875204844 224.81457802556034 123.23133515777445 215.34423995931357M121.7261126338486 248.0866985736102C122.22680417948635 240.17352693959435 120.57520512949034 232.0032774675754 120.4340457180624 216.83904951784342M121.58250253629959 216.5165007074649C161.70696908204263 218.19301443181013 201.36547119521202 215.0196376776874 255.6412268909051 216.27223944514043M122.33378503617715 215.53241421727324C161.42631462657522 215.47203890344957 199.1324859872468 216.24519170177322 256.0171034459243 216.4919401984611M259.18393441186345 216.88621995160065C283.17759042637147 217.41737611032497 317.0278145131036 216.88396420840928 391.33755024799467 217.99600392464782M255.3604609661219 215.03669389183307C302.375242855812 217.76590712550453 350.4974635046903 216.01167088432442 391.41148412856637 216.7075502976404M389.90676838276124 215.61250234533037C391.63202047452285 223.91971849975235 394.3737878909676 228.43221441827117 389.1170998942627 247.84268087965174M390.84927604172333 214.67554622877032C390.71915209587735 228.3584973125362 390.2808047952031 239.56972249073735 392.01573062612226 247.29715752164483M256.23072204232847 72.09725183953852C259.21885670889134 79.54850072685076 258.6180657346011 88.7950812292086 256.41989367588394 101.68672526391019M256.8382364865189 71.4296699517785C256.8757519221921 81.85700119935353 256.86569023575555 92.92896940049341 256.34835022140976 103.00498789915873"/>
    <path fill="none" stroke="#000" stroke-width="2" d="M258.8668139352041 186.52079971955536C258.94204685146525 192.1262766445596 258.9252560041888 202.4156558454415 255.55561553106617 216.82761853361225M256.79401813339445 183.51225800564526C257.20270670699875 190.54974239721486 255.61725935826115 198.62946386167255 255.12535481056528 215.51096837410296M478.86000550977917 265.76748464262056C484.65610443960577 252.05651874983278 481.61943174913796 237.96104165628003 481.9884176141819 207.6694968297088M482.03085332340413 262.8132463675952C481.43824947608977 248.9745169459464 480.6356650988257 232.63278469166252 481.50291585202103 211.30045060480933M481.5 210C483.4283550195025 203.05026258752744 484.07583717665324 199.93709215023281 491.259083843993 200.73705184694444M479.2057783015378 209.45229084543243C481.05309118010683 200.92140545401256 485.15236950570073 200.2785666768658 493.7502121041401 197.4975953640211M489.0639893129004 198.9433316197974C500.2012745022444 199.01683082855092 509.63527490558874 201.4457623556184 525.3302152300661 199.55600041088474M492.60799257860924 200.5082319851419C503.01845638286215 200.7774939180542 511.8060128359957 200.4966184361137 525.5547261937387 199.27077891083644M480.54128412269347 473.1022238799516C482.341026561132 479.39263814299414 482.71511822330183 490.653920789367 480.43913795487026 492.1588045123441M482.4918944645301 472.33161835075225C480.60674707176906 478.2228218887576 480.8486862733743 484.1342803449901 481.32694143466216 493.7914492804957M481.5 494C480.97938735006863 499.5498251737666 486.6200406721885 501.33664849768104 490.32885483633356 502.3587586281734M480.09290827700244 495.2917395203825C484.65217558518503 500.4267502027507 485.78367707851294 504.42172784368825 488.8725868680113 501.5339881318071M492.9246887558082 503.9576082770851C516.9029435354344 505.75274692330254 547.0577474923994 503.8668322407609 598.570372142554 506.72910097545525M490.2097418496858 502.6314021670267C520.5096616539024 502.8457605709357 549.9830902771166 501.6088524625297 596.4768200212941 504.2053472855347M597.5 504C604.6361370773217 502.6364600763758 607.2579656992837 500.4607593837233 607.2948739879124 496.34708954702364M598.1605288793304 504.39880209188414C606.6021958567371 503.85518323935264 607.0299754485392 498.24989261858826 605.7128008422796 494.15113171418335M606.424266705905 493.7444865143407C611.396940178764 450.96231662643623 610.9424007234186 401.0779836195987 604.9017591976328 342.6543291465321M606.7657096315685 495.2110011979921C605.6526586884429 444.4122086872376 604.753245187592 392.2907513684815 606.6744966543672 342.80520163367M609.4656885957316 230.06787441045526C609.7050593843703 237.39327563359038 608.0757078856402 245.93273779731388 605.0140145165933 263.85071702977876M607.5978397038913 233.37647008874228C606.7772238489904 244.5796883710769 606.359537459419 256.48202297151875 608.3978201920676 262.71483678840525"/>
    <defs xmlns="http://www.w3.org/2000/svg">
        <marker id="iPointer-efx1cu9jumq" fill="#000" markerHeight="7" markerUnits="strokeWidth" markerWidth="8" orient="auto" refX="5" refY="5" viewBox="0 0 10 10">
            <path d="M 10 0 L 10 10 L 0 5 z"/>
        </marker>
        <marker id="Pointer-efx1cu9jumq" fill="#000" markerHeight="7" markerUnits="strokeWidth" markerWidth="8" orient="auto" refX="5" refY="5" viewBox="0 0 10 10">
            <path d="M 0 0 L 10 5 L 0 10 z"/>
        </marker>
        <filter id="dsFilterNoBlur" width="150%" height="150%">
            <feOffset dx="3" dy="3" in="SourceGraphic" result="offOut"/>
            <feColorMatrix in="offOut" result="matrixOut" type="matrix" values="0.2 0 0 0 0 0 0.2 0 0 0 0 0 0.2 0 0 0 0 0 1 0"/>
            <feBlend in="SourceGraphic" in2="matrixOut" mode="normal"/>
        </filter>
        <filter id="dsFilter" width="150%" height="150%">
            <feOffset dx="3" dy="3" in="SourceGraphic" result="offOut"/>
            <feColorMatrix in="offOut" result="matrixOut" type="matrix" values="0.2 0 0 0 0 0 0.2 0 0 0 0 0 0.2 0 0 0 0 0 1 0"/>
            <feGaussianBlur in="matrixOut" result="blurOut" stdDeviation="3"/>
            <feBlend in="SourceGraphic" in2="blurOut" mode="normal"/>
        </filter>
    </defs>
    <g xmlns="http://www.w3.org/2000/svg" id="lines-efx1cu9jumq" fill="none" stroke="#000" stroke-width="2">
        <g id="group516">
            <path id="path516" marker-end="url(#Pointer-efx1cu9jumq)" marker-start="url(#iPointer-efx1cu9jumq)" d="M 121.5 248 L 121.5 216 L 256.5 216 L 391.5 216 L 391.5 248"/>
        </g>
        <g id="group1015">
            <path id="path1015" marker-end="url(#Pointer-efx1cu9jumq)" d="M 256.5 72 L 256.5 104"/>
        </g>
        <g id="group1023">
            <path id="path1023" d="M 256.5 184 L 256.5 216"/>
        </g>
        <g id="group1879">
            <path id="path1879" marker-end="url(#Pointer-efx1cu9jumq)" d="M 481.5 264 L 481.5 210 Q 481.5 200 491.5 200 L 526.5 200"/>
        </g>
        <g id="group1893">
            <path id="path1893" marker-start="url(#iPointer-efx1cu9jumq)" d="M 481.5 472 L 481.5 494 Q 481.5 504 491.5 504 L 597.5 504 Q 607.5 504 607.5 494 L 607.5 344"/>
        </g>
        <g id="group2354">
            <path id="path2354" marker-end="url(#Pointer-efx1cu9jumq)" d="M 607.5 232 L 607.5 264"/>
        </g>
    </g>
    <text id="text0" x="224.1" y="44.8" fill="#000" stroke="none" font-family="xkcd Script" font-size="120%">
        Users
    </text>
    <text id="text1" x="215.1" y="156.8" fill="#fff" stroke="none" font-family="xkcd Script" font-size="120%">
        Service
    </text>
    <text id="text2" x="548.1" y="204.8" fill="#000" stroke="none" font-family="xkcd Script" font-size="120%">
        PVC
    </text>
    <text id="text3" x="548.1" y="220.8" fill="#000" stroke="none" font-family="xkcd Script" font-size="120%">
        (namespace)
    </text>
    <text id="text6" x="17.1" y="300.8" fill="#fff" stroke="none" font-family="xkcd Script" font-size="120%">
        Pod
    </text>
    <text id="text7" x="287.1" y="300.8" fill="#fff" stroke="none" font-family="xkcd Script" font-size="120%">
        Pod
    </text>
    <text id="text9" x="548.1" y="316.8" fill="#000" stroke="none" font-family="xkcd Script" font-size="120%">
        PV
    </text>
    <text id="text10" x="548.1" y="332.8" fill="#000" stroke="none" font-family="xkcd Script" font-size="120%">
        (cluster)
    </text>
    <text id="text12" x="17.1" y="364.8" fill="#000" stroke="none" font-family="xkcd Script" font-size="120%">
        Container
    </text>
    <text id="text13" x="134.1" y="364.8" fill="#000" stroke="none" font-family="xkcd Script" font-size="120%">
        Container
    </text>
    <text id="text14" x="287.1" y="364.8" fill="#000" stroke="none" font-family="xkcd Script" font-size="120%">
        Container
    </text>
    <text id="text15" x="404.1" y="364.8" fill="#000" stroke="none" font-family="xkcd Script" font-size="120%">
        Container
    </text>
    <text id="text18" x="17.1" y="428.8" fill="#000" stroke="none" font-family="xkcd Script" font-size="120%">
        Host
    </text>
    <text id="text20" x="17.1" y="444.8" fill="#000" stroke="none" font-family="xkcd Script" font-size="120%">
        [zone=a]
    </text>
    <text id="text19" x="287.1" y="428.8" fill="#000" stroke="none" font-family="xkcd Script" font-size="120%">
        Host
    </text>
    <text id="text23" x="287.1" y="444.8" fill="#000" stroke="none" font-family="xkcd Script" font-size="120%">
        [zone=b]
    </text>
    <text id="text21" x="179.1" y="444.8" fill="#fff" stroke="none" font-family="xkcd Script" font-size="120%">
        Drive
    </text>
    <text id="text24" x="449.1" y="444.8" fill="#fff" stroke="none" font-family="xkcd Script" font-size="120%">
        Drive
    </text>
    <text id="text4" x="251.1" y="252.8" fill="#000" font-family="xkcd Script" font-size="120%">
        |
    </text>
    <text id="text5" x="251.1" y="284.8" fill="#000" font-family="xkcd Script" font-size="120%">
        |
    </text>
    <text id="text8" x="251.1" y="316.8" fill="#000" font-family="xkcd Script" font-size="120%">
        |
    </text>
    <text id="text11" x="251.1" y="348.8" fill="#000" font-family="xkcd Script" font-size="120%">
        |
    </text>
    <text id="text16" x="251.1" y="380.8" fill="#000" font-family="xkcd Script" font-size="120%">
        |
    </text>
    <text id="text17" x="251.1" y="412.8" fill="#000" font-family="xkcd Script" font-size="120%">
        |
    </text>
    <text id="text22" x="251.1" y="444.8" fill="#000" font-family="xkcd Script" font-size="120%">
        |
    </text>
    <text id="text25" x="251.1" y="476.8" fill="#000" font-family="xkcd Script" font-size="120%">
        |
    </text>
    <text id="text26" x="-.9" y="492.8" fill="#000" font-family="xkcd Script" font-size="120%">
        Availability zone a
    </text>
    <text id="text27" x="269.1" y="492.8" fill="#000" font-family="xkcd Script" font-size="120%">
        Availability zone b
    </text>
    <text id="text28" x="503.1" y="524.8" fill="#000" font-family="xkcd Script" font-size="120%">
        mount RWO
    </text>
</svg>
