<svg xmlns="http://www.w3.org/2000/svg" width="658" height="544" version="1.1">
    <path fill="#fff" d="M237.76668892451224 15.206505011667597 L248.0921493697052 10.39641422605381 L259.03862371252 10.005512613580027 L280.00322749202047 12.84560393796249 L291.6123908412807 9.749431138235963 L302.07777845959345 11.68266357151785 L310.074946535044 16.48241289562317 L316.13532223007337 22.152015940530614 L313.36449952795215 30.431878267311674 L310.55769610811086 36.78000795854086 L318.7042214247961 43.64598534326507 L319.22272949360246 48.82425399611436 L314.40615017496896 54.88657542247132 L306.05227298017763 57.2940297630097 L294.52591699716373 58.016669490681295 L296.07410662074597 63.96439175781092 L297.9700079769125 64.01604926428075 L290.7212142785197 67.45482890617168 L276.403417972005 71.31014546450072 L258.8476671126086 64.47923780592602 L239.1454967931065 73.61900820032876 L225.0655582898872 68.2526361585046 L218.55860551048522 67.73009831572374 L216.18158969321644 60.47667595851387 L203.23258097164717 57.4668349717455 L202.04920690737188 52.36733565521518 L200.70872453521253 42.997913539713075 L207.36855690052707 36.52691981345356 L212.73106770505478 30.656758506069423 L208.46504856801496 20.893205462036843 L208.93831976523333 19.903125874656233 L207.7913693761745 17.791954190966628 L225.06553272661088 10.180501440555975 L237.8076454409277 14.296974412300315"/>
    <path fill="none" stroke="#000" stroke-width="2" d="M237.6842301665786 15.991271735305183 M236.1733722 14.6107136 C247.0346717561543 5.564376877697932, 262.94094787741926 8.506322458461355, 282.8580091595347 15.476388568204614 M233.50845413870073 15.757876613069076 C252.07157055430142 2.6587502581523497, 261.21066731768354 6.254238624756683, 282.48137339241055 15.764191721468354 M281.3141133 13.699904 C300.9054533623642 6.404308290707345, 325.79932665220895 21.01965609997662, 312.67910585691607 32.5470330241681 M279.141039463584 14.90721794925242 C305.6033292601472 10.955941895537803, 325.13034638407805 22.80407520915729, 308.6339381135654 35.88890608277999 M311.2003944 34.4195584 C331.5397321173273 42.70101371286516, 309.2807766214185 61.08276422507653, 296.3845642140951 58.53396684197713 M313.3744336352294 35.64973753681106 C331.4090408187126 43.05456234024727, 308.9911500741682 63.54554752345095, 293.8008683743308 58.30931348823133 M296.8798869 59.9206016 C303.0284417195066 68.8725516552397, 282.64377129398366 80.29958755104556, 260.56738029314084 69.63181500669954 M299.3903137952829 61.902599636695584 C305.7615240491116 68.4423625235243, 284.30356182905354 75.6551755675192, 257.7934656960857 66.51913972085458 M259.210719 66.9789312 C227.18048942330793 79.9019428777187, 216.13270507859863 66.82430864750104, 216.24044653603465 56.20096810846614 M258.1704345685413 67.71316977667077 C231.50570657146832 79.17011237623194, 219.45815308592174 68.51865611558229, 214.96301934092557 55.82366231860579 M215.3152323 58.7821568 C192.1722768798463 53.57611344411248, 206.9333340801092 30.863048059499498, 216.18875974716943 29.507467369745903 M216.9130223816775 57.2992927735934 C191.931544800088 54.90580439370787, 208.65618874318977 30.55084225733563, 215.6897417700675 29.94703381076528 M213.7748688 29.4104192 C193.91601883117934 18.47117990782226, 222.30572556666453 10.317662118468604, 237.52694247621503 16.56420812303926 M214.28467067245296 27.71399424816275 C192.3823962925789 17.53654124387678, 220.44467262991208 10.417134294752962, 239.2814049903797 17.624798040043153 M236.1733722 14.6107136 C236.1733722 14.6107136, 236.1733722 14.6107136, 236.1733722 14.6107136 M236.1733722 14.6107136 C236.1733722 14.6107136, 236.1733722 14.6107136, 236.1733722 14.6107136"/>
    <path fill="#f99c41" d="M201.23350075693307 119.92255450318189 L319.5617307951732 122.78299073273593 L317.8295332734007 184.94546006431773 L203.6001190963565 183.7864316412757 L200.99032420472503 122.69641498832353"/>
    <path fill="none" stroke="#000" stroke-width="2" d="M201.97517198824926 121.86569067323725 M204.69742903427542 118.62451723430277 C221.8318313764168 121.6208583754329, 243.91870736785788 123.01696887725574, 259.1167972172483 117.86586192368122 M201.89901277008354 121.04035994151855 C215.6031767610926 120.22529890063578, 231.48866228250552 119.02774376401193, 257.86954489774746 119.7449465836431 M255.37193720118958 117.64803312145159 C276.37593020166133 121.74765176091886, 294.8800788898945 119.30746878651833, 317.8097322620904 119.16435296654 M255.91006127725677 119.766080729261 C272.09265786371213 118.5782763069087, 287.90976531732986 119.66132568519177, 319.6916646597714 118.83129045948917 M321.10927678122897 120.84841394989526 C317.93988936353526 138.6760393552846, 318.50079860806346 155.44387408670735, 317.4201343034787 185.414216061568 M319.1008940717506 118.8802140609235 C320.05711626353946 135.47233791196632, 318.59301221153436 148.20622102873602, 320.8373430114343 184.94388932734108 M318.26482108962375 183.13428896535078 C295.9463444458337 185.46572677986967, 268.06279844786314 184.19361348789224, 257.7392911019223 183.91559669798806 M319.79762200776884 184.87531935820516 C305.458733399997 183.05582807971658, 290.0874915882621 184.0216926523946, 255.6657442927956 183.2657910250695 M255.2770507963869 182.73867279298867 C239.83646668794898 181.61351900312377, 218.005672312768 184.99293025959352, 201.3912909058601 184.9785598103641 M257.4037489422162 183.56497904399052 C243.24307689979358 184.25480125657245, 229.003863453473 183.31152713094792, 202.3054674544481 183.80078736746447 M203.4027913151287 182.80430838115245 C200.2945024784707 169.18105289578523, 200.99466228875298 159.90972863049703, 200.18258215764217 119.7049829961572 M202.5825536455177 182.98098023903805 C202.3349540864054 165.97802121238564, 202.30978829171963 151.061617840096, 201.83820478825328 120.5380497914426"/>
    <path fill="#ef5ba1" d="M6.337376207795751 262.5371683140176 L233.02039493191478 262.4893291806704 L233.7105376821797 269.15491136696363 L237.22056639879628 275.2590879480784 L235.47269493746353 320.5671174089948 L237.24746769108023 326.4565573802146 L227.0860433485581 329.18258470706934 L4.443540908791329 326.79937028815914 L4.332889331883052 261.8067860788375"/>
    <path fill="none" stroke="#000" stroke-width="2" d="M5.329825466386683 266.5950988443743 M2.6547606812862794 262.4577246958521 C33.3804264537188 262.3804310107216, 57.80925487659516 262.0527670063673, 119.89460334376558 261.5686688189118 M4.420888034341624 264.13625898334647 C31.03059351744505 264.9856126644366, 54.49509191859469 264.2754573299498, 121.4765108399557 264.9194710842795 M122.96643014579203 262.6381814830544 C164.28201320409661 261.83219315484655, 206.82330292089136 262.00059957304524, 227.71675427445945 263.25505262467885 M120.46972653719277 264.7385106867958 C147.8765088682914 262.79350956423815, 172.28601641602728 263.93342952822604, 228.49147706151635 264.40732770894436 M228.5 264 C235.15551313256387 261.8974831415082, 239.21248374608257 266.26476340861166, 235.90022293264119 271.59166348075814 M228.30541313100403 261.9077657326998 C237.33350408928587 264.8340347465731, 236.6207299032302 265.9945469621361, 236.2817739244216 275.0859469538898 M238.34478890664906 276.4629427650128 C237.28122072281727 284.0649034007976, 239.25789032719072 298.55837811112144, 238.76424981743185 316.7644130571687 M239.65101162415084 274.21127461771414 C238.41209757190538 282.30402700301056, 238.0859253088065 290.23102468877187, 237.80002707618988 317.3925695585349 M238.5 318 C236.18526470984798 324.1684262463687, 232.50837857471294 326.3283055034626, 227.2968175882357 326.0153350861156 M240.79448168861126 315.4053714149435 C237.72870426796334 327.8086449095788, 238.30467976519546 326.73052217460156, 231.13076657489881 330.53105448572757 M228.0052613997892 325.40479156232976 C203.355984953692 329.0379909868331, 172.4525296219662 326.272571920485, 124.09744137537783 329.60157127347554 M227.88774448085013 327.1024190106276 C202.1335521271949 326.7826322551238, 173.56282612169161 326.63390531743096, 121.61494017876275 327.9776123937976 M122.07678605754718 326.93144939892954 C92.08990029138293 324.2376785896594, 59.131517571310894 327.1380003760321, 5.890826638168801 326.38208084649995 M121.47257551218281 329.2622576343041 C83.577731698362 329.0636616937156, 44.6830303908504 327.5308983488448, 3.4398114829215047 328.1240486589333 M4.14262244993879 330.32557274676947 C2.767423435843375 303.5634441048526, 3.9235817911168853 278.92285766587594, 3.1071772968003644 264.74382444469086 M3.5796787227754976 326.87023214105136 C3.268500377542856 304.9865938848314, 4.468756092081472 283.0122900915318, 3.6225442756045596 262.82246903585764"/>
    <path fill="#ef5ba1" d="M277.1066976338683 261.5785191570056 L500.4475969442377 266.42269513497956 L507.8723732447746 263.74875990598196 L509.5313581905919 272.3533480905993 L508.3230809674375 327.2013136121066 L277.0350153910018 327.59906399412284 L273.2113973566331 263.01514293300204"/>
    <path fill="none" stroke="#000" stroke-width="2" d="M272.40958321595537 263.0129262413262 M273.2458736857137 262.396209771988 C303.3298292067917 260.5785810602813, 329.4493954049452 265.41154901537215, 391.2428873474986 264.4294934041277 M275.12573169235293 263.3067816838693 C301.44248748949536 262.6137619876095, 325.8931353869315 262.50772320418145, 391.5141658709159 262.9182974922778 M391.8399858340739 265.24152923136137 C427.8649876730225 261.43794628960046, 462.98771616822467 260.1712669002549, 496.57352580476726 262.24281996339994 M390.56999049217995 263.3115637710118 C416.2431549167174 262.5518499596899, 437.9572809769581 263.2198415163192, 498.0059138905711 264.6470777626746 M498.5 264 C503.43511599284636 264.4090030235246, 508.5327935940601 267.44871203070636, 506.21782142588347 273.8472738903976 M499.18318157676185 262.9770206185807 C507.27389391039515 263.71335682040257, 511.1372128641101 266.56300793388505, 511.1010018310147 274.74883759157905 M508.6158387579006 272.7814786398565 C510.4850058228935 283.48359597474854, 506.6898277143023 299.09997932642125, 508.6763751228529 327.912605958886 M509.2796089972617 274.8126635350498 C509.4406349601423 293.04164031282346, 507.7649144573751 312.02733588832126, 507.39273752889056 329.2901099976316 M508.2107686870571 329.08364485341883 C480.09304379205497 326.75014354426736, 450.8179314060566 330.44772406732943, 391.5306378331472 327.1021244095289 M508.9964099457451 328.99776495294645 C466.32609056983017 330.5532824854518, 426.2973015862393 330.4208032328345, 391.693100064506 328.2402011381728 M390.04558237982275 329.2919147196 C351.07271581524253 328.3746257600086, 303.3974027818185 324.71525884282477, 272.6408574597961 325.55386146631497 M391.6198684093073 329.0222086101036 C362.03872799225155 327.4543092483966, 330.32612126818424 326.659426680269, 274.39699572454884 328.69563823540886 M273.6075468031122 328.20961357506746 C276.31620728707435 315.2137339420304, 272.71799814302364 302.69905385553864, 273.4604410226457 264.7768827894964 M273.552779706798 328.2564924521641 C275.32594727846237 315.55985880303996, 273.94605274157374 299.88338314543535, 274.64362526989714 264.06996764436883"/>
    <path fill="#fff" d="M1.8749948010343362 325.58869155395803 L119.7220570745003 325.76596173402214 L121.07608773626926 390.8552342599678 L5.8897714161779735 390.61037849033016 L4.7200999473679985 329.96090745841065"/>
    <path fill="none" stroke="#000" stroke-width="2" d="M7.185278157970606 325.3075468179277 M6.964095859162626 325.64961661788186 C37.9174696441869 328.13326265569776, 68.68642056280042 326.4292199034186, 123.08950162939436 325.89917982308833 M4.942650353889621 327.2755106212523 C29.594019473106894 326.6012292398509, 55.6479330166505 326.7767031832333, 120.29971690655512 326.694449463355 M121.87123565414512 328.8888779268811 C121.58133768894746 338.9316526407289, 124.4726653764044 357.02230960853194, 120.05849404808623 389.41208248221375 M122.77988874775329 327.190752808495 C121.37812707542864 348.7430400618563, 120.2203277204949 368.5658329757818, 122.75865468470438 391.61418056547444 M119.93694570609514 390.359322837853 C80.83539903364272 389.274868381832, 40.79725130214211 390.8346806980599, 2.5746406425612802 392.68654517281686 M121.63960186905315 392.33266391779836 C88.78633766414913 392.19835156701464, 59.20297126496152 391.83756477588685, 4.223976274654706 391.53512394814095 M6.6727922238540485 390.99779177319795 C2.3185196502702308 373.3821747314425, 2.2838172020574246 359.5086628415913, 5.803944698304986 327.062420584754 M5.238727590450435 392.07818635208895 C5.261574423456106 373.613510050597, 5.045368976151341 356.5500594395678, 3.671357821998845 326.6122106148767"/>
    <path fill="#fff" d="M119.41017801590351 327.7149647577433 L231.31033060524933 326.64157486972107 L237.1467160249049 330.4032448137135 L237.65832345954476 339.3394107168933 L238.8055213798536 393.6946709766136 L123.7084569711705 392.59806268464456 L122.25412758811581 327.1888814570535"/>
    <path fill="none" stroke="#000" stroke-width="2" d="M119.30782368745858 329.0780779292807 M120.38733156233502 326.8016875191497 C159.05316639553646 324.45495787658405, 194.26913059028755 327.4514099401324, 230.27824453445064 327.4164702659444 M121.94456866629571 327.43978741871325 C150.92242636653316 327.76842808614464, 180.2691392186658 327.6703822072207, 228.07580149134697 326.98037346001183 M228.5 328 C233.28041483024523 326.33496922925116, 240.74273098077683 333.71090324120354, 237.07743921864676 340.40244353784146 M226.16220306095238 327.2238592678594 C236.88447932435776 325.4609721674242, 238.7164167168585 331.14484389586096, 240.75688686358538 340.0605242470637 M239.94462953170006 340.1296687738621 C236.63447110760157 359.93249741383005, 239.40898667544266 378.68408125594505, 238.0859892548855 392.89607251501513 M238.32513593887052 339.04462023977686 C238.51439231577794 354.8347606312083, 237.52504144790916 372.8009865148331, 239.60967877620132 391.1820576204424 M236.00867356946546 390.9833725460638 C204.8192473789171 392.21464330300915, 176.7016224629369 393.85810966916364, 118.7151487843832 394.5794997127181 M237.62437075319394 393.3824800104336 C199.57199595082417 393.3331995127751, 157.36046206663448 394.22632545379247, 121.8348571278606 392.88468879742214 M122.13961163728436 390.1352244539274 C119.54593514024106 374.0963649950616, 121.65078149207089 350.16173268768176, 122.17829185243318 328.60965424496897 M121.74956063713834 390.9315620932226 C123.14086256186339 365.82395577303146, 122.11560964635957 341.1259182756094, 120.27708348858141 327.65041389824785"/>
    <path fill="#fff" d="M273.7488829205395 329.5947529079989 L390.52042114353753 330.1736912918044 L388.88523264007125 393.2879168175961 L274.61195751729826 389.9113626713526 L274.9409311515759 326.5690766296975"/>
    <path fill="none" stroke="#000" stroke-width="2" d="M276.6316481117794 327.2161067743771 M274.2627309858959 326.0053016113496 C316.34808199493335 327.33316371445795, 361.1602798452468 331.34096679363677, 392.57916667829267 330.6753079791028 M274.9000536650912 326.91271023213557 C299.0321738679534 327.51092709855726, 322.27749495574403 329.28274198643356, 391.6649279622652 329.3172793617221 M391.8477292953088 326.11989968452946 C394.3511526715793 338.32006178256484, 394.4473492914495 352.6729666221683, 393.5793281725943 392.707120905687 M391.693254166694 327.97660729262134 C390.13392671401203 345.8843434858762, 389.6699852260678 362.4098464065256, 390.2436252317557 392.89892739887017 M390.69313549703804 393.6638513923259 C358.3302494419542 391.13105710845656, 328.59020283110954 390.2413682538738, 275.7503736955303 389.7737765206395 M392.22602455920276 392.34761443450844 C351.5018053080583 393.4927344867087, 312.81899428211 392.5999098831925, 273.4380142969632 390.7120207966138 M276.5627902008866 393.05194125640116 C272.0181698198785 377.52887548844865, 277.2564530324662 361.85246756218044, 272.7544890280507 329.12776465868666 M274.1358627958507 393.0424144325918 C273.25405019819624 378.84398659705107, 275.150693123004 363.2283209828682, 274.760783371632 328.8494209361099"/>
    <path fill="#fff" d="M393.36011519827736 330.1841981357211 L505.98557432277374 326.9606093542807 L511.2816873695703 390.82863640490325 L392.8848353610767 389.7292101132418 L390.8781988908784 328.6580737115561"/>
    <path fill="none" stroke="#000" stroke-width="2" d="M389.101252952894 329.66483084236097 M389.78514114847786 329.6994424390323 C418.3731119915661 327.45883476711714, 446.6268697821684 329.2656411113741, 508.5943894225904 328.37845493035655 M391.03383759861947 327.3856963882587 C419.061553235041 328.187937723261, 450.2435650927746 327.0515157239697, 507.381389589169 326.9038316697515 M508.7679567392348 326.1925117824838 C506.11501623960004 344.8139774042902, 510.20481561947975 362.63553503573786, 509.38808218724006 390.75491900402557 M509.6150490398544 328.02500661268806 C508.1212735103447 349.1531385695083, 508.23940812544856 370.3580261917872, 509.29998680374445 391.9877674274474 M509.16945391022165 389.48170803724497 C473.6449599621691 394.3613267214584, 441.3143221708518 393.81730601302235, 389.5147293755566 390.001763323092 M508.6132050918306 391.28675638875563 C474.1078472422514 390.2088234160439, 437.9253587326257 392.1749408696489, 390.2051927098488 391.66767531567893 M392.5770621078162 391.71535537387825 C391.93498547842904 371.55416488060433, 394.06802641186005 351.14171612847133, 390.14900152208867 328.75082968890564 M392.76095299627343 391.10061123156777 C392.9016578531585 368.07065490517016, 391.23178805227604 343.8035198555306, 392.7357935808039 327.0328738537628"/>
    <path fill="#fff" d="M7.090100422332762 392.2335770946214 L240.18838877114612 394.2530471910257 L236.0384920171695 457.4074109844936 L7.8527079812080505 458.077181420775 L9.608749340781651 452.9403921519173 L4.035463358809648 443.9948899483097 L4.567249422172608 390.9270443653245"/>
    <path fill="none" stroke="#000" stroke-width="2" d="M6.010770206827874 392.3303039075283 M6.694140952471935 389.99742564758515 C41.28862670923445 392.1514407913146, 81.98944611996194 391.89479970424907, 123.16856752832791 394.74934927714554 M4.735465596501672 393.3801321631636 C30.172554404062794 393.2042313099012, 55.30775862767696 392.9467729130734, 121.23086735573415 392.77815629820253 M120.36070825352218 390.46827695855825 C158.32160645169773 394.8264965145342, 194.0577602747545 390.39438651660555, 237.88751408015406 392.1617073904905 M121.47733302726265 392.93430466675125 C149.34083443444797 393.19688170659356, 173.47744126935112 394.6623401582443, 237.11144736371352 392.4384033957496 M240.23030101593176 389.423341457688 C236.99342940519435 408.60706096626456, 240.69923782980476 425.175690787562, 237.57416304261568 457.6766847298433 M239.35393381615214 391.44659152826864 C239.17968491085375 416.3419748515777, 238.61097118049872 437.9985303572444, 238.19241370340728 455.457788458146 M237.38065245653362 454.133599419038 C170.43891724031621 455.7933006079404, 104.23090302105238 456.517109369605, 13.134259714475537 455.05792893072 M239.15701344576385 455.2007465338613 C156.02045117160233 456.6598723380473, 71.98236403771172 457.5956281607777, 13.820780165042425 454.9647764879619 M14.5 456 C6.626150529957279 454.7499384916388, 4.438921672481229 454.89331007919924, 3.1025436987660218 445.89586670081627 M12.824658121263928 453.9840017850867 C6.472521673023414 453.74514315612964, 5.147935017971304 451.9862408101158, 6.190846511935343 443.6389019795223 M6.323788674102252 443.43561651530547 C5.9587016462275635 433.3559973896201, 4.2715314063549155 420.9136274517856, 3.16773002175687 392.6538930777548 M5.250417160678626 445.74836479197836 C4.609581668657003 429.54508087785325, 3.991373502524832 416.487391162751, 4.426848184951086 393.0744756152908"/>
    <path fill="#fff" d="M273.68424275996875 390.09658566448053 L508.32392596727584 389.63685142380274 L510.5801208832607 455.62387907018126 L278.8972613437243 453.60829481607 L278.07593102896647 452.45912566288024 L271.9052972369565 448.4747481063998 L274.62001125621026 389.54182056246935"/>
    <path fill="none" stroke="#000" stroke-width="2" d="M276.5970480251548 389.33664851145807C317.7198289561671 393.4698324318958 358.2035318457005 394.3082806135085 393.44601490903295 394.0879542989558M274.1584547053729 390.659312389612C317.6426358874389 392.96960653131566 359.5207598707639 393.68139148288276 392.76478260848523 391.0471870622681M393.55985075850765 389.9763420567295C421.2213093010261 392.9747319568312 448.97478311078373 390.113671459315 509.89799471961976 390.3183139744797M392.18602476704035 391.9428614265591C424.88662851872704 390.8890328814115 457.4952108717538 390.94559222280964 509.74252386936786 392.17151333538857M505.9803942994149 389.3282406988743C506.4839365206272 410.9238834181524 507.05566741879215 431.72241422237204 506.08202814322794 454.40642516029766M508.0696362749435 391.84167892549624C508.3888054425387 413.1185526766396 508.56524406199895 433.14119982589585 508.97176763307 455.1531883281277M507.71845252547587 457.54295744852885C430.0958213069458 453.1227086049303 355.04473854088513 455.397857579954 285.41847204006496 456.84897450101784M509.15419012606327 455.966390272398C434.0722251758306 457.6287862432696 360.0396170426169 458.61277524564093 283.80759924512114 456.98537230169586M284.5 456C278.9886104842638 457.99300647234486 275.7317546015256 453.34372755147075 276.8041590018714 448.2572935971781M285.8646117241111 455.7257289774108C278.5539600555725 454.9330356146075 272.5520280167806 455.12363402812406 273.02739466696437 447.95095042698M276.2940136848571 448.5639925756768C272.6265001515779 427.81767910832076 273.54269187393265 408.48432960093595 274.05659011686805 389.3177038534137M275.7706035853556 445.1425870900763C274.93417112722375 434.1609793630287 274.0304116021954 422.48115733916273 275.23365667132094 393.2792356318911M122.63340694680228 247.97782905025525C120.5017725284561 238.2155821907247 122.56213744690908 230.52845285654803 119.4873926422697 215.30333141791925M121.99369790100681 247.51921729726746C122.11113139670775 240.2626344293798 120.84101587488168 230.28068847442808 121.00956040536148 215.01589442337536M123.20305238083674 214.87675608932332C148.66717726107564 217.24932235833032 178.3495340535319 216.21852325036662 255.71238006679923 214.69851510118315M121.78899562753504 215.93746280440865C157.4207940481352 217.71435936811875 191.11755712322974 216.8003966595569 255.79352954544373 216.4522581778151M258.10099241399695 216.63997492625202C297.76589481874436 216.68482933687534 338.77812044988315 217.3196085151374 390.67268829684036 213.8834038437286M257.1241594542331 215.42352665701839C296.1228623498326 217.16143069666572 333.6931823536317 217.45560178354546 391.73059567063456 214.75419832450353M393.7074043237968 215.11185510928846C388.85897923556865 226.35904983011858 388.80922674652163 236.25656062835188 392.14930402354656 249.25816142953917M392.40402816666574 215.58519115227446C391.27402264039017 224.14170662544333 390.788871649252 229.35021835721855 391.2466162421373 249.2785893124572M257.4081316419746 70.2802689596596C254.0557921792367 80.75237364148488 258.966391294018 91.56182386431837 255.48685699389824 102.0160612059728M256.11857612157763 72.7630025575655C256.7934513779345 80.11766333294436 255.2141851874562 86.2571416155823 255.93534683823563 104.0681508218604"/>
    <path fill="none" stroke="#000" stroke-width="2" d="M254.1418553315554 186.70810650619023 M255.06893608368264 185.6262773834009 C254.97695067112517 190.34346995378655, 256.78052283072185 198.05417283790882, 257.40395242255437 216.58794041099463 M256.4755087927857 183.61016955597006 C255.71601749246656 193.37036467221515, 255.2234936886687 206.67229402382583, 256.5123186435405 216.12927659735396"/>
    <defs xmlns="http://www.w3.org/2000/svg">
        <marker id="iPointer-mwv1s9vhat" fill="#000" markerHeight="7" markerUnits="strokeWidth" markerWidth="8" orient="auto" refX="5" refY="5" viewBox="0 0 10 10">
            <path d="M 10 0 L 10 10 L 0 5 z"/>
        </marker>
        <marker id="Pointer-mwv1s9vhat" fill="#000" markerHeight="7" markerUnits="strokeWidth" markerWidth="8" orient="auto" refX="5" refY="5" viewBox="0 0 10 10">
            <path d="M 0 0 L 10 5 L 0 10 z"/>
        </marker>
        <filter id="dsFilterNoBlur" width="150%" height="150%">
            <feOffset dx="3" dy="3" in="SourceGraphic" result="offOut"/>
            <feColorMatrix in="offOut" result="matrixOut" type="matrix" values="0.2 0 0 0 0 0 0.2 0 0 0 0 0 0.2 0 0 0 0 0 1 0"/>
            <feBlend in="SourceGraphic" in2="matrixOut" mode="normal"/>
        </filter>
        <filter id="dsFilter" width="150%" height="150%">
            <feOffset dx="3" dy="3" in="SourceGraphic" result="offOut"/>
            <feColorMatrix in="offOut" result="matrixOut" type="matrix" values="0.2 0 0 0 0 0 0.2 0 0 0 0 0 0.2 0 0 0 0 0 1 0"/>
            <feGaussianBlur in="matrixOut" result="blurOut" stdDeviation="3"/>
            <feBlend in="SourceGraphic" in2="blurOut" mode="normal"/>
        </filter>
    </defs>
    <g xmlns="http://www.w3.org/2000/svg" id="lines-mwv1s9vhat" fill="none" stroke="#000" stroke-width="2">
        <g id="group497">
            <path id="path497" marker-end="url(#Pointer-mwv1s9vhat)" marker-start="url(#iPointer-mwv1s9vhat)" d="M 121.5 248 L 121.5 216 L 256.5 216 L 391.5 216 L 391.5 248"/>
        </g>
        <g id="group996">
            <path id="path996" marker-end="url(#Pointer-mwv1s9vhat)" d="M 256.5 72 L 256.5 104"/>
        </g>
        <g id="group1004">
            <path id="path1004" d="M 256.5 184 L 256.5 216"/>
        </g>
    </g>
    <text id="text0" x="224.1" y="44.8" fill="#000" stroke="none" font-family="xkcd Script" font-size="120%">
        Users
    </text>
    <text id="text1" x="215.1" y="156.8" fill="#fff" stroke="none" font-family="xkcd Script" font-size="120%">
        Service
    </text>
    <text id="text5" x="17.1" y="300.8" fill="#fff" stroke="none" font-family="xkcd Script" font-size="120%">
        Pod
    </text>
    <text id="text6" x="287.1" y="300.8" fill="#fff" stroke="none" font-family="xkcd Script" font-size="120%">
        Pod
    </text>
    <text id="text9" x="17.1" y="364.8" fill="#000" stroke="none" font-family="xkcd Script" font-size="120%">
        Container
    </text>
    <text id="text10" x="134.1" y="364.8" fill="#000" stroke="none" font-family="xkcd Script" font-size="120%">
        Container
    </text>
    <text id="text11" x="287.1" y="364.8" fill="#000" stroke="none" font-family="xkcd Script" font-size="120%">
        Container
    </text>
    <text id="text12" x="404.1" y="364.8" fill="#000" stroke="none" font-family="xkcd Script" font-size="120%">
        Container
    </text>
    <text id="text15" x="17.1" y="428.8" fill="#000" stroke="none" font-family="xkcd Script" font-size="120%">
        Host
    </text>
    <text id="text17" x="17.1" y="444.8" fill="#000" stroke="none" font-family="xkcd Script" font-size="120%">
        [zone=a]
    </text>
    <text id="text16" x="287.1" y="428.8" fill="#000" stroke="none" font-family="xkcd Script" font-size="120%">
        Host
    </text>
    <text id="text19" x="287.1" y="444.8" fill="#000" stroke="none" font-family="xkcd Script" font-size="120%">
        [zone=b]
    </text>
    <text id="text2" x="332.1" y="156.8" fill="#000" font-family="xkcd Script" font-size="120%">
        service.namespace.svc.cluster.local
    </text>
    <text id="text3" x="251.1" y="252.8" fill="#000" font-family="xkcd Script" font-size="120%">
        |
    </text>
    <text id="text4" x="251.1" y="284.8" fill="#000" font-family="xkcd Script" font-size="120%">
        |
    </text>
    <text id="text7" x="251.1" y="316.8" fill="#000" font-family="xkcd Script" font-size="120%">
        |
    </text>
    <text id="text8" x="251.1" y="348.8" fill="#000" font-family="xkcd Script" font-size="120%">
        |
    </text>
    <text id="text13" x="251.1" y="380.8" fill="#000" font-family="xkcd Script" font-size="120%">
        |
    </text>
    <text id="text14" x="251.1" y="412.8" fill="#000" font-family="xkcd Script" font-size="120%">
        |
    </text>
    <text id="text18" x="251.1" y="444.8" fill="#000" font-family="xkcd Script" font-size="120%">
        |
    </text>
    <text id="text20" x="251.1" y="476.8" fill="#000" font-family="xkcd Script" font-size="120%">
        |
    </text>
    <text id="text21" x="-.9" y="492.8" fill="#000" font-family="xkcd Script" font-size="120%">
        Availability zone a
    </text>
    <text id="text22" x="269.1" y="492.8" fill="#000" font-family="xkcd Script" font-size="120%">
        Availability zone b
    </text>
    <text id="text23" x="251.1" y="508.8" fill="#000" font-family="xkcd Script" font-size="120%">
        |
    </text>
</svg>
