<svg xmlns="http://www.w3.org/2000/svg" width="523" height="544" version="1.1">
    <path fill="#fff" d="M237.76668892451224 15.206505011667597 L248.0921493697052 10.39641422605381 L259.03862371252 10.005512613580027 L280.00322749202047 12.84560393796249 L291.6123908412807 9.749431138235963 L302.07777845959345 11.68266357151785 L310.074946535044 16.48241289562317 L316.13532223007337 22.152015940530614 L313.36449952795215 30.431878267311674 L310.55769610811086 36.78000795854086 L318.7042214247961 43.64598534326507 L319.22272949360246 48.82425399611436 L314.40615017496896 54.88657542247132 L306.05227298017763 57.2940297630097 L294.52591699716373 58.016669490681295 L296.07410662074597 63.96439175781092 L297.9700079769125 64.01604926428075 L290.7212142785197 67.45482890617168 L276.403417972005 71.31014546450072 L258.8476671126086 64.47923780592602 L239.1454967931065 73.61900820032876 L225.0655582898872 68.2526361585046 L218.55860551048522 67.73009831572374 L216.18158969321644 60.47667595851387 L203.23258097164717 57.4668349717455 L202.04920690737188 52.36733565521518 L200.70872453521253 42.997913539713075 L207.36855690052707 36.52691981345356 L212.73106770505478 30.656758506069423 L208.46504856801496 20.893205462036843 L208.93831976523333 19.903125874656233 L207.7913693761745 17.791954190966628 L225.06553272661088 10.180501440555975 L237.8076454409277 14.296974412300315"/>
    <path fill="none" stroke="#000" stroke-width="2" d="M237.6842301665786 15.991271735305183 M236.1733722 14.6107136 C247.0346717561543 5.564376877697932, 262.94094787741926 8.506322458461355, 282.8580091595347 15.476388568204614 M233.50845413870073 15.757876613069076 C252.07157055430142 2.6587502581523497, 261.21066731768354 6.254238624756683, 282.48137339241055 15.764191721468354 M281.3141133 13.699904 C300.9054533623642 6.404308290707345, 325.79932665220895 21.01965609997662, 312.67910585691607 32.5470330241681 M279.141039463584 14.90721794925242 C305.6033292601472 10.955941895537803, 325.13034638407805 22.80407520915729, 308.6339381135654 35.88890608277999 M311.2003944 34.4195584 C331.5397321173273 42.70101371286516, 309.2807766214185 61.08276422507653, 296.3845642140951 58.53396684197713 M313.3744336352294 35.64973753681106 C331.4090408187126 43.05456234024727, 308.9911500741682 63.54554752345095, 293.8008683743308 58.30931348823133 M296.8798869 59.9206016 C303.0284417195066 68.8725516552397, 282.64377129398366 80.29958755104556, 260.56738029314084 69.63181500669954 M299.3903137952829 61.902599636695584 C305.7615240491116 68.4423625235243, 284.30356182905354 75.6551755675192, 257.7934656960857 66.51913972085458 M259.210719 66.9789312 C227.18048942330793 79.9019428777187, 216.13270507859863 66.82430864750104, 216.24044653603465 56.20096810846614 M258.1704345685413 67.71316977667077 C231.50570657146832 79.17011237623194, 219.45815308592174 68.51865611558229, 214.96301934092557 55.82366231860579 M215.3152323 58.7821568 C192.1722768798463 53.57611344411248, 206.9333340801092 30.863048059499498, 216.18875974716943 29.507467369745903 M216.9130223816775 57.2992927735934 C191.931544800088 54.90580439370787, 208.65618874318977 30.55084225733563, 215.6897417700675 29.94703381076528 M213.7748688 29.4104192 C193.91601883117934 18.47117990782226, 222.30572556666453 10.317662118468604, 237.52694247621503 16.56420812303926 M214.28467067245296 27.71399424816275 C192.3823962925789 17.53654124387678, 220.44467262991208 10.417134294752962, 239.2814049903797 17.624798040043153 M236.1733722 14.6107136 C236.1733722 14.6107136, 236.1733722 14.6107136, 236.1733722 14.6107136 M236.1733722 14.6107136 C236.1733722 14.6107136, 236.1733722 14.6107136, 236.1733722 14.6107136"/>
    <path fill="#f99c41" d="M201.23350075693307 119.92255450318189 L319.5617307951732 122.78299073273593 L317.8295332734007 184.94546006431773 L203.6001190963565 183.7864316412757 L200.99032420472503 122.69641498832353"/>
    <path fill="none" stroke="#000" stroke-width="2" d="M201.97517198824926 121.86569067323725 M204.69742903427542 118.62451723430277 C221.8318313764168 121.6208583754329, 243.91870736785788 123.01696887725574, 259.1167972172483 117.86586192368122 M201.89901277008354 121.04035994151855 C215.6031767610926 120.22529890063578, 231.48866228250552 119.02774376401193, 257.86954489774746 119.7449465836431 M255.37193720118958 117.64803312145159 C276.37593020166133 121.74765176091886, 294.8800788898945 119.30746878651833, 317.8097322620904 119.16435296654 M255.91006127725677 119.766080729261 C272.09265786371213 118.5782763069087, 287.90976531732986 119.66132568519177, 319.6916646597714 118.83129045948917 M321.10927678122897 120.84841394989526 C317.93988936353526 138.6760393552846, 318.50079860806346 155.44387408670735, 317.4201343034787 185.414216061568 M319.1008940717506 118.8802140609235 C320.05711626353946 135.47233791196632, 318.59301221153436 148.20622102873602, 320.8373430114343 184.94388932734108 M318.26482108962375 183.13428896535078 C295.9463444458337 185.46572677986967, 268.06279844786314 184.19361348789224, 257.7392911019223 183.91559669798806 M319.79762200776884 184.87531935820516 C305.458733399997 183.05582807971658, 290.0874915882621 184.0216926523946, 255.6657442927956 183.2657910250695 M255.2770507963869 182.73867279298867 C239.83646668794898 181.61351900312377, 218.005672312768 184.99293025959352, 201.3912909058601 184.9785598103641 M257.4037489422162 183.56497904399052 C243.24307689979358 184.25480125657245, 229.003863453473 183.31152713094792, 202.3054674544481 183.80078736746447 M203.4027913151287 182.80430838115245 C200.2945024784707 169.18105289578523, 200.99466228875298 159.90972863049703, 200.18258215764217 119.7049829961572 M202.5825536455177 182.98098023903805 C202.3349540864054 165.97802121238564, 202.30978829171963 151.061617840096, 201.83820478825328 120.5380497914426"/>
    <path fill="#ef5ba1" d="M6.337376207795751 262.5371683140176 L233.02039493191478 262.4893291806704 L233.7105376821797 269.15491136696363 L237.22056639879628 275.2590879480784 L235.47269493746353 320.5671174089948 L237.24746769108023 326.4565573802146 L227.0860433485581 329.18258470706934 L4.443540908791329 326.79937028815914 L4.332889331883052 261.8067860788375"/>
    <path fill="none" stroke="#000" stroke-width="2" d="M5.329825466386683 266.5950988443743 M2.6547606812862794 262.4577246958521 C33.3804264537188 262.3804310107216, 57.80925487659516 262.0527670063673, 119.89460334376558 261.5686688189118 M4.420888034341624 264.13625898334647 C31.03059351744505 264.9856126644366, 54.49509191859469 264.2754573299498, 121.4765108399557 264.9194710842795 M122.96643014579203 262.6381814830544 C164.28201320409661 261.83219315484655, 206.82330292089136 262.00059957304524, 227.71675427445945 263.25505262467885 M120.46972653719277 264.7385106867958 C147.8765088682914 262.79350956423815, 172.28601641602728 263.93342952822604, 228.49147706151635 264.40732770894436 M228.5 264 C235.15551313256387 261.8974831415082, 239.21248374608257 266.26476340861166, 235.90022293264119 271.59166348075814 M228.30541313100403 261.9077657326998 C237.33350408928587 264.8340347465731, 236.6207299032302 265.9945469621361, 236.2817739244216 275.0859469538898 M238.34478890664906 276.4629427650128 C237.28122072281727 284.0649034007976, 239.25789032719072 298.55837811112144, 238.76424981743185 316.7644130571687 M239.65101162415084 274.21127461771414 C238.41209757190538 282.30402700301056, 238.0859253088065 290.23102468877187, 237.80002707618988 317.3925695585349 M238.5 318 C236.18526470984798 324.1684262463687, 232.50837857471294 326.3283055034626, 227.2968175882357 326.0153350861156 M240.79448168861126 315.4053714149435 C237.72870426796334 327.8086449095788, 238.30467976519546 326.73052217460156, 231.13076657489881 330.53105448572757 M228.07453925018584 325.76819652369 C172.98858280887384 329.0624783177353, 112.52421514794472 326.6842986709127, 6.7337237375367645 329.3773045293078 M227.97347813139228 327.22810655850463 C171.70059492325535 326.326021500269, 113.00557501731176 326.19812067667976, 4.598845197482748 327.98074731238404 M5.076786057547179 326.93144939892954 C4.917237744470185 309.08131140962433, 2.3910500733789375 295.33496239997334, 5.890826638168801 262.38208084649995 M4.472575512182812 329.2622576343041 C5.442109357478111 308.22393503814567, 5.225962993120774 285.5336715534298, 3.4398114829215047 264.1240486589333"/>
    <path fill="#ef5ba1" d="M277.2999397629777 262.44781942398185 L505.5128629921681 264.2676224499388 L508.32557274676947 264.2707256515176 L509.66330642023024 272.92688400679106 L510.6225822966313 326.6071772968004 L275.24382444469086 329.5301697639676 L274.49918249269393 262.47657706237516"/>
    <path fill="none" stroke="#000" stroke-width="2" d="M272.659357445551 261.7404642821028 M275.3147037393384 262.2450885512091 C296.9509335502135 266.6435590808684, 321.69051011400205 261.6094583912378, 393.29769513497956 265.8723732447746 M274.41154048371874 263.6006568060533 C299.37125444549685 264.7628233640608, 321.06319217830844 264.4708628335004, 390.45479160797765 263.5064631206631 M390.2458736857137 262.396209771988 C417.9310002576491 260.6760298579287, 441.65173750665997 265.50899781301956, 498.2428873474986 264.4294934041277 M392.12573169235293 263.3067816838693 C416.20211780416645 262.6672178386976, 438.41239601627365 262.5611790552695, 498.5141658709159 262.9182974922778 M498.5 264 C507.79003819167 264.3399858340739, 509.74152923136137 268.2275894652075, 509.38206059020706 274.632563712963 M497.34145005547725 264.546253085928 C503.14590962457663 261.5104112525806, 508.5179975717154 268.55624994703396, 505.7109862660515 271.78455467548235 M506.74154407299693 271.6059900252054 C507.705771622602 285.6246482509791, 509.4223999616956 296.94346236555725, 508.3472738903976 326.2684493261797 M508.8415907883809 273.48851030929035 C509.63972463170694 291.3143731069249, 509.42504002853906 307.8529556213474, 509.64661428874354 327.6650759132834 M508.59768714888605 326.97241752513116 C461.23147989675346 328.9614295203647, 409.2835003206618 332.6441002718191, 274.6487376349522 327.9263003604252 M509.15744645029594 328.68532143456537 C429.76191098722893 329.01876453631627, 348.8135328323959 329.551234188148, 273.5662424577785 329.0879533733107 M274.2107686870571 329.08364485341883 C274.3599444453823 310.5654346622228, 274.22307542283056 298.3241470206645, 274.5306378331472 263.1021244095289 M274.9964099457451 328.99776495294645 C274.0641531361599 306.6009057367728, 274.88938520128954 284.1209277908383, 274.693100064506 264.2402011381728"/>
    <path fill="#fff" d="M6.410752901263185 329.66212010752497 L226.13330567796092 326.54558237982275 L234.16691471960002 331.28193329552084 L239.63414193840146 331.69083774237515 L236.59977502121765 358.1408574597961 L142.678861466315 359.49909071077855 L139.33016198723197 365.07686606409186 L139.73973681861463 394.0444172202071 L6.368071210295239 391.5499352018058 L3.7334729879527004 325.96017006555047"/>
    <path fill="none" stroke="#000" stroke-width="2" d="M4.293991449097666 329.3912764708177 M3.7325163103098413 328.18026155384166 C54.91115294157036 330.06674061466873, 100.38817680292331 331.238757557864, 227.60600963459743 328.6680965139895 M3.685418206678835 328.2205760192815 C52.507761645801025 328.7977268564409, 98.34329235862006 326.8700494618083, 228.6235135382537 328.060170131102 M228.5 328 C233.38872374116696 325.76596173402214, 238.07608773626924 330.1885675933011, 235.87499480103435 335.58869155395803 M229.88977141617798 326.61037849033016 C238.25473654833286 324.90367884061686, 237.47935454537813 328.37319541534674, 238.7531149394732 340.2550435771723 M240.52602610973844 337.3605585899306 C240.1745840384114 341.21869596909966, 240.36055217390225 347.02354008598485, 236.35533944549388 362.7321143015855 M237.45563679015032 337.23606567909553 C237.46855072859304 344.86418929667707, 237.39709998441083 351.59974881175333, 237.1965777073914 361.3783230340774 M237.6992109471379 357.6901545497967 C213.97289267251546 362.93486410412976, 183.82320212392742 357.80763315967585, 149.758180779741 358.39894352405827 M238.89046514773 360.95291256530544 C212.34683021120853 360.2653479822407, 188.98698352152894 358.893950565035, 150.24227834894336 360.43410834084136 M149.5 360 C141.19265617118631 360.6387252355265, 138.0610186928825 365.2372370392431, 137.30145245974273 368.4369457060951 M149.62083100911042 358.0746406425613 C145.69305655473744 362.426398212744, 139.82108429882226 364.0984603442695, 140.28952694873936 369.09309103964165 M136.7065331092428 369.44795254930943 C138.34233963234678 373.98793964382935, 139.36963970368546 382.3657255489852, 141.67279222385406 390.99779177319795 M139.748717295393 370.6519723491525 C138.79763195904138 374.59908363914315, 139.45561115745346 379.67488752524997, 140.23872759045042 392.07818635208895 M139.7055372615112 390.3427156439977 C87.71309843184244 390.8098858537496, 41.19231916192146 391.3350384430954, 2.5165748697210804 393.1467160249049 M139.6527606899268 392.84733548830684 C100.5707267051807 393.2031335762253, 59.81006023324879 392.4985429624298, 3.4039118437292926 392.5390389646403 M3.387331562335021 390.8016875191497 C7.368324849055556 368.3684786104248, 7.518134045339888 350.3907818898435, 6.278244534450641 327.4164702659444 M4.944568666295709 391.43978741871325 C4.458969844533727 374.29148122639526, 4.510811457138858 356.6712693724268, 4.075801491346965 326.98037346001183"/>
    <path fill="#fff" d="M273.07743921864676 330.40244353784146 L506.6137481635786 326.33496922925116 L510.74273098077686 362.3775699078702 L412.7872030609524 359.8488592678594 L412.08751031616123 367.416760214838 L410.9937501371227 389.79214971080364 L274.6881884494422 391.83609614132837 L276.3988518612583 327.83543165756856"/>
    <path fill="none" stroke="#000" stroke-width="2" d="M274.4324675301679 329.44462953170006 M275.3040218634337 328.8095187089407 C362.14880976097646 326.7128451230576, 450.81699774991114 324.3648210936732, 507.93658916834715 327.70507329526026 M274.10775288662455 328.7862093016818 C363.0958763696271 327.50673836220733, 449.4155759788358 328.0598314962879, 508.3331150314562 326.9495287227081 M508.882709936364 330.0896462100078 C505.3007153628841 339.0176397653624, 509.32103743589937 346.52474120571605, 511.2043559227059 358.2487415063879 M507.88546851775027 328.6442772390095 C509.26189686430286 341.6446431069846, 509.1556911295994 354.03376571215887, 508.85255441805856 360.3198058186422 M508.9796500316126 358.6522597108327 C488.4056141238783 361.65167893042246, 469.43556381283923 359.40962143064877, 417.8813404108885 360.4991212742767 M508.5932406048221 358.8672635096617 C487.369295895952 358.48863316539905, 468.3088662750109 359.63559572115065, 419.01021057176877 361.0868456459022 M419.5 360 C412.9452908506316 357.9113626713526, 409.9409311515759 361.90240996303083, 406.88523264007125 371.2879168175961 M421.6316481117794 359.2161067743771 C409.6505197846832 359.72714063378027, 407.20609685305203 362.3758958406596, 411.5862947865959 371.897227394797 M410.57916667829267 372.6753079791028 C406.90410904281157 374.4246549337775, 408.9693532678011 380.40794780252145, 407.32542046427113 393.75273804310126 M409.6649279622652 371.3172793617221 C408.2101525005651 376.12321784537835, 409.30730366329436 380.5984315434824, 408.5599498422647 393.13407732860105 M411.5793281725943 392.707120905687 C379.9874597532695 388.6882552438408, 350.8614590590161 391.7135015911455, 274.4532145852427 390.9566457569308 M408.2436252317557 392.89892739887017 C356.32215591403946 393.00023287994435, 304.23645709491103 393.2339836792536, 275.33192569616295 391.8019051951398 M275.7503736955303 389.7737765206395 C274.74392106976416 374.5412184065942, 273.92688604264475 361.88793446363127, 275.1952288690169 327.29505368538446 M273.4380142969632 390.7120207966138 C273.28022985314595 366.741557583521, 274.08271386351186 342.4320902983882, 275.0259706282006 326.7722721049948"/>
    <path fill="#00aa5b" d="M140.4387486680045 372.78282742257727 L142.67221392129213 360.7544890280507 L150.62776465868666 357.8338015223242 L238.2892863586414 361.06367888808165 L237.7717255917014 394.08482886518357 L136.87324366592293 394.18535158187007 L140.66652951553843 369.451398741272"/>
    <path fill="none" stroke="#000" stroke-width="2" d="M140.02156674326397 371.69884187221976 M139.5 370 C136.98557432277374 362.293942687614, 145.61502070290365 358.82863640490325, 151.36011519827736 362.1841981357211 M140.88483536107668 367.7292101132418 C136.74144089582808 365.2478888020484, 140.57603535708137 362.808658380317, 148.78492872451017 360.7567847682895 M149.47509532142575 360.1986261912458 C181.5504601749436 361.24918065013344, 211.03363688870195 359.6222030449872, 236.96892513472267 362.5491659650937 M148.3592589220927 360.3160893273827 C178.2352824965992 359.72639754254124, 203.17400164861138 359.4505618842013, 238.11511620209748 358.84910353089725 M236.8515899798258 359.37344619470167 C240.9842624379831 372.1464748205166, 239.43095526551764 383.5389234119371, 239.12166809814153 393.1729827285773 M237.74591903719994 360.5321829166134 C238.22086934505725 372.7646167741197, 239.65680249649787 383.28477120369206, 238.46585980625042 391.18651704092116 M238.45964548583325 392.7900752064419 C201.74711812742098 390.9994999764421, 158.12157919403833 388.7552088015283, 139.59994992263893 391.7557492223983 M239.62549513327832 391.01706477090704 C214.14562973637985 392.2770710493801, 187.5751431532495 390.961564140547, 139.65001490123396 390.9128105603333 M139.23918423704237 391.4399472862453 C141.25374833861363 385.22213002799907, 138.0305246902289 381.3685278653975, 141.64303502549592 367.8202702005459 M140.2041443173332 392.16902067773225 C138.2568648572706 384.17297451773265, 140.45838392162375 375.3783200879185, 140.79505021116637 370.1167885473107"/>
    <path fill="#00aa5b" d="M411.18838877114615 372.2530471910257 L409.53849201716946 363.9074109844936 L417.227707981208 362.702181420775 L511.1087493407816 359.4403921519173 L508.03546335880964 389.9948899483097 L409.5672494221726 390.9270443653245 L411.0107702068279 370.3303039075283"/>
    <path fill="none" stroke="#000" stroke-width="2" d="M410.28815323927995 369.29890905534904 M409.5 370 C407.49742564758515 361.72860543557664, 412.42177596597804 360.7027369059797, 418.53760998517976 362.1941409524719 M408.8318015455792 371.6685675283279 C410.00575681478364 361.435715805705, 413.3749042052872 363.17430397527625, 422.6617516687174 357.47253304094613 M419.4629262545597 359.4617347114683 C446.20648973879844 361.10959848857055, 468.58521121164756 360.24423318967223, 507.36070825352215 358.46827695855825 M418.5018152885186 359.693757040077 C449.1311727571301 358.6698223970534, 478.5377050712641 358.31582432712764, 508.47733302726266 360.93430466675125 M510.6209564691104 357.22289472742705 C509.24721312202865 370.74059365440263, 510.11030426742485 387.3276048252919, 510.2303010159318 389.423341457688 M509.67707982378636 359.53708152130787 C509.52974962832485 368.08606638603885, 509.8662475507806 374.86354011459736, 509.3539338161521 391.44659152826864 M508.26086628727063 391.38482740681457 C478.2262250901289 391.3254052015776, 448.6460093100792 390.27250201979405, 408.19838889475506 389.8296930768323 M509.41272435059875 391.20593798910124 C483.11075879792094 392.6890943862664, 458.2449368918722 392.57047252338657, 410.2639950632787 391.07060394825186 M409.33917187473617 390.4203653543642 C407.3495003330282 383.1876339855405, 409.65294531914924 375.96299777017305, 408.2499384916388 369.93892167248123 M410.2351506573632 390.9734356432706 C409.092630363048 382.6701219207684, 409.9659984840398 375.005151594228, 408.7178543644204 370.11790238109825"/>
    <path fill="#fff" d="M2.5145965043166143 393.8237886741023 L235.93561651530544 393.52236893202064 L239.03914993809886 455.83519869214797 L11.40493254874309 454.0427300217569 L7.6538930777547645 452.99455501068076 L6.098083457726171 447.7696710556382 L6.000834321357251 391.4967295839568"/>
    <path fill="none" stroke="#000" stroke-width="2" d="M5.582128404486139 389.54058822547523 M6.648951230581588 391.18424275996875 C42.352697441264176 391.9226809175919, 81.64907497737005 394.17887583357674, 139.1238790701813 390.7722613437243 M3.20264861847827 393.2373740531999 C36.54196277701394 391.4735004587905, 68.38162583293197 391.3131639571546, 140.38103873844156 391.3014278977873 M140.256862356334 393.46126836684925 C167.9258378133356 395.61807553529025, 200.74249324363552 395.4063132857841, 240.40504371475254 393.86615960082855 M139.58227465079435 391.95491661402775 C161.9672961391414 393.99398229987895, 187.89930009181845 392.3744677965522, 237.8206574956268 392.1760737197768 M238.79867165900214 394.1155748668658 C237.78866006945825 414.9120202449427, 240.55714696234224 437.63332572566577, 238.12307439053401 454.7172547746457 M238.36163910113845 390.79765162520835 C237.8842878874825 409.6971657653245, 240.1815797202737 429.85742293282453, 238.87672662245387 456.32685974440466 M236.5863467818276 454.28152428270465 C190.46263019713112 451.60183939609533, 143.18983788280207 452.05622098861323, 15.016702922101885 454.05608627498503 M239.02642831946915 456.4688640296533 C151.9239965018328 455.6903019437391, 64.3973786320963 454.96678732663145, 15.026490905722023 455.03448981387334 M14.5 456 C9.627530820653677 454.36196012713043, 2.661027031943741 453.2896680606517, 3.154617587273242 445.09119300966483 M15.306638923677383 457.06802700750416 C8.525925026840708 458.1013768460543, 6.249637650424302 452.5767771338073, 5.635295147428878 447.064650865215 M6.483311178140866 444.38971101139975 C6.874021822058639 431.30358601636397, 6.839674117704489 413.15413117991557, 6.4930064723448595 393.2317546015256 M3.859736811723633 446.84823931607826 C4.444870800680936 428.0303421632973, 3.2846104939598337 412.0567261232216, 5.4341352709696364 390.82755763935313"/>
    <path fill="#fff" d="M276.8157430881009 393.7940136848571 L511.0639925756768 389.4933812768286 L510.1207722963465 454.40957299918335 L282.21551597698743 454.93159011686805 L274.3177038534137 450.842373337959 L275.6906146262525 446.65116545202034 L277.0412071707113 390.2851741801525"/>
    <path fill="none" stroke="#000" stroke-width="2" d="M277.0584712637821 390.40198747826946C312.3234176646092 390.8732802936339 354.5396804788159 390.1916854230845 410.63340694680227 391.97782905025525M275.2084741996079 390.99369632113485C311.3016646285778 390.62484987952433 348.5650067491682 391.7750953143792 409.99369790100684 391.51921729726746M408.31596938978544 391.01912081072294C441.0216095996586 390.2591079235832 474.8198550371664 395.00114618171267 510.20305238083677 390.8767560893233M410.3768401433561 391.6061900333996C433.4761036831932 391.5736257968675 458.52503718452556 391.7356504822816 508.78899562753503 391.93746280440865M508.91328274121116 390.58705909088746C510.1217029662974 416.6432590781202 506.7355822752865 443.35205409705526 510.10099241399695 456.639974926252M509.753331423911 391.58634414842015C508.0407046961235 414.46335080263816 508.6438875536406 436.38839493269967 509.1241594542331 455.4235266570184M508.92448149733366 456.39661108670424C425.6436204110368 456.10097869344304 346.4180533005494 455.1914474984093 286.398303262259 455.2362213278189M508.0390142909041 456.27919125028626C461.99483604129796 452.6534839608725 413.5043145507294 452.7958274575716 285.2774378257101 455.6432765033744M284.5 456C277.0833788566303 453.57283680948314 273.99323248427464 455.2238452915811 274.7203475055734 447.7196132984097M286.588991252445 455.9945454853194C279.13510284549835 457.0443513882708 272.52230930360855 450.09547531265827 274.2633069055155 444.5022022508164M273.48685699389824 444.0160612059728C271.686810018912 431.188429406473 273.7111444163346 415.199279671986 276.026005115131 392.5205457344106M273.93534683823566 446.0681508218604C274.03318406034515 427.65417153076453 274.22716763054694 406.1896660472826 275.8785806594751 391.2844680418413M122.40395242255435 248.58794041099463C122.40757300725647 238.936574763924 121.04016732995271 231.04792863836045 120.72033911194012 214.62783682892368M121.5123186435405 248.12927659735396C122.25926403974974 242.81458449507335 121.45577572572898 234.66586941168626 120.92494719366441 215.65888611868795M121.64347356220969 218.18169248840303C171.25011259606381 214.63480582354316 217.98841067374707 216.9201340574353 255.3095985318949 213.28065753429837M122.61157257656524 215.8778911215435C169.19829367599996 216.4104092630164 218.26853192556078 216.14728202059567 255.49876516846962 214.85428936191164M255.16901774540457 216.18838936463945C310.1932899738895 220.2947885190616 362.3636882268887 218.26060827983227 389.1417986726228 216.0227124835191M255.70357431241572 214.68892975328782C299.6576721024845 216.23026194356447 341.05558601591383 215.3502388592055 391.38494397037357 215.47606065401487M392.4908941337591 214.55055902771056C394.0656536557043 222.31601951502068 390.4900189949433 234.39482095329842 390.723170992513 247.22980460288326M392.24181493562384 216.74976529844935C391.85085042270754 223.22444109190258 391.30306249019003 231.71935973311193 390.5010551501713 247.14187952819776M258.2418557687215 72.57722433799572C253.70417678056796 82.89176060177851 257.89323794437473 89.17416174828395 259.27314548168414 106.54574677294003M255.61739801450386 72.44176296891564C257.47129184227094 79.79548431557195 256.2217086131933 87.79968837414708 256.2789184942027 103.5509592551527"/>
    <path fill="none" stroke="#000" stroke-width="2" d="M258.0901671385189 182.27334403728747 M255.20081650459178 183.76332930135396 C254.0971409976795 190.50625709364977, 258.20252303252414 199.3071164158202, 258.7252574525439 214.18783684568152 M255.6542197173563 183.21491579087078 C255.58638646718225 193.91253582836663, 257.4952366368407 202.58669981621972, 255.36736610669686 216.46584399786371"/>
    <defs xmlns="http://www.w3.org/2000/svg">
        <marker id="iPointer-wd3xs7xa54k" fill="#000" markerHeight="7" markerUnits="strokeWidth" markerWidth="8" orient="auto" refX="5" refY="5" viewBox="0 0 10 10">
            <path d="M 10 0 L 10 10 L 0 5 z"/>
        </marker>
        <marker id="Pointer-wd3xs7xa54k" fill="#000" markerHeight="7" markerUnits="strokeWidth" markerWidth="8" orient="auto" refX="5" refY="5" viewBox="0 0 10 10">
            <path d="M 0 0 L 10 5 L 0 10 z"/>
        </marker>
        <filter id="dsFilterNoBlur" width="150%" height="150%">
            <feOffset dx="3" dy="3" in="SourceGraphic" result="offOut"/>
            <feColorMatrix in="offOut" result="matrixOut" type="matrix" values="0.2 0 0 0 0 0 0.2 0 0 0 0 0 0.2 0 0 0 0 0 1 0"/>
            <feBlend in="SourceGraphic" in2="matrixOut" mode="normal"/>
        </filter>
        <filter id="dsFilter" width="150%" height="150%">
            <feOffset dx="3" dy="3" in="SourceGraphic" result="offOut"/>
            <feColorMatrix in="offOut" result="matrixOut" type="matrix" values="0.2 0 0 0 0 0 0.2 0 0 0 0 0 0.2 0 0 0 0 0 1 0"/>
            <feGaussianBlur in="matrixOut" result="blurOut" stdDeviation="3"/>
            <feBlend in="SourceGraphic" in2="blurOut" mode="normal"/>
        </filter>
    </defs>
    <g xmlns="http://www.w3.org/2000/svg" id="lines-wd3xs7xa54k" fill="none" stroke="#000" stroke-width="2">
        <g id="group495">
            <path id="path495" marker-end="url(#Pointer-wd3xs7xa54k)" marker-start="url(#iPointer-wd3xs7xa54k)" d="M 121.5 248 L 121.5 216 L 256.5 216 L 391.5 216 L 391.5 248"/>
        </g>
        <g id="group994">
            <path id="path994" marker-end="url(#Pointer-wd3xs7xa54k)" d="M 256.5 72 L 256.5 104"/>
        </g>
        <g id="group1002">
            <path id="path1002" d="M 256.5 184 L 256.5 216"/>
        </g>
    </g>
    <text id="text0" x="224.1" y="44.8" fill="#000" stroke="none" font-family="xkcd Script" font-size="120%">
        Users
    </text>
    <text id="text1" x="215.1" y="156.8" fill="#fff" stroke="none" font-family="xkcd Script" font-size="120%">
        Service
    </text>
    <text id="text4" x="17.1" y="300.8" fill="#fff" stroke="none" font-family="xkcd Script" font-size="120%">
        Pod
    </text>
    <text id="text5" x="287.1" y="300.8" fill="#fff" stroke="none" font-family="xkcd Script" font-size="120%">
        Pod
    </text>
    <text id="text8" x="17.1" y="364.8" fill="#000" stroke="none" font-family="xkcd Script" font-size="120%">
        Container
    </text>
    <text id="text9" x="287.1" y="364.8" fill="#000" stroke="none" font-family="xkcd Script" font-size="120%">
        Container
    </text>
    <text id="text10" x="179.1" y="380.8" fill="#fff" stroke="none" font-family="xkcd Script" font-size="120%">
        Store
    </text>
    <text id="text12" x="449.1" y="380.8" fill="#fff" stroke="none" font-family="xkcd Script" font-size="120%">
        Store
    </text>
    <text id="text14" x="17.1" y="428.8" fill="#000" stroke="none" font-family="xkcd Script" font-size="120%">
        Host
    </text>
    <text id="text16" x="17.1" y="444.8" fill="#000" stroke="none" font-family="xkcd Script" font-size="120%">
        [zone=a]
    </text>
    <text id="text15" x="287.1" y="428.8" fill="#000" stroke="none" font-family="xkcd Script" font-size="120%">
        Host
    </text>
    <text id="text18" x="287.1" y="444.8" fill="#000" stroke="none" font-family="xkcd Script" font-size="120%">
        [zone=b]
    </text>
    <text id="text2" x="251.1" y="252.8" fill="#000" font-family="xkcd Script" font-size="120%">
        |
    </text>
    <text id="text3" x="251.1" y="284.8" fill="#000" font-family="xkcd Script" font-size="120%">
        |
    </text>
    <text id="text6" x="251.1" y="316.8" fill="#000" font-family="xkcd Script" font-size="120%">
        |
    </text>
    <text id="text7" x="251.1" y="348.8" fill="#000" font-family="xkcd Script" font-size="120%">
        |
    </text>
    <text id="text11" x="251.1" y="380.8" fill="#000" font-family="xkcd Script" font-size="120%">
        |
    </text>
    <text id="text13" x="251.1" y="412.8" fill="#000" font-family="xkcd Script" font-size="120%">
        |
    </text>
    <text id="text17" x="251.1" y="444.8" fill="#000" font-family="xkcd Script" font-size="120%">
        |
    </text>
    <text id="text19" x="251.1" y="476.8" fill="#000" font-family="xkcd Script" font-size="120%">
        |
    </text>
    <text id="text20" x="-.9" y="492.8" fill="#000" font-family="xkcd Script" font-size="120%">
        Availability zone a
    </text>
    <text id="text21" x="269.1" y="492.8" fill="#000" font-family="xkcd Script" font-size="120%">
        Availability zone b
    </text>
    <text id="text22" x="251.1" y="508.8" fill="#000" font-family="xkcd Script" font-size="120%">
        |
    </text>
</svg>
