<svg xmlns="http://www.w3.org/2000/svg" width="622" height="224" version="1.1">
    <path fill="#ef5ba1" d="M6.093316724512261 43.7957914116676 L609.5406713712676 43.93964502605377 L610.08538850002 150.60859741358001 L184.0891141920205 147.9456999379625 L127.34546566276512 181.35096877573596 L123.21460301467158 146.22002298401787 L2.7106466209326303 146.6040768128107 L5.775712982661207 42.71729007959311"/>
    <path fill="none" stroke="#000" stroke-width="2" d="M3.015554322092794 44.10946712981168 M5.52161571480603 43.37280720892537 C171.83825527240526 41.55677022017131, 339.5854876369076 41.651506636629776, 606.8833269452039 42.2584120388655 M4.5985899572574995 42.937330132856154 C144.643882150019 40.92170864966435, 284.4197549161562 41.397717441330165, 607.4273896225217 42.7000613211852 M605.2493705585046 42.50976136517275 C610.7103582726972 72.97944658596826, 610.2500469154875 98.34257790949451, 610.0550171623705 147.54063434955938 M607.1137495783885 44.05088380672678 C605.5348748443197 81.00721453377483, 606.3886867546938 116.18607644874866, 608.0071801215937 148.72379255607814 M606.2372185634717 149.66580155143572 C522.5752670679232 150.8697489185015, 438.7143471401642 150.88725165810536, 186.34114194415864 147.6150594478683 M606.7940928927491 149.10387070276605 C479.3727125262722 150.98837762521498, 351.3526943691587 149.87060268573393, 185.1932827186372 148.63413116226556 M183.86202989070736 149.29838475220896 C163.52933448911455 158.45210112577416, 143.72872799367465 170.81242538938875, 126.37769363719998 186.37258057404105 M185.15233865704758 148.10668262098858 C162.49322142594957 161.752148772266, 136.64924112641353 175.86492602597824, 126.18701961761471 184.61508956840552 M123.14617107847589 181.56127945579846 C125.67616820097585 178.16254489884136, 127.999480943805 167.9681454309076, 127.6883788552397 149.50839969398368 M124.48380291134163 183.80009066124111 C125.13184336604394 172.12629519102535, 125.68781279210565 157.13546452138573, 125.56260711801733 147.5094056542331 M123.70626064750104 147.7597155685413 C95.55161982485166 147.0046817592694, 61.962158599497265 149.8813952640892, 5.630273718462559 149.5443925964537 M125.29087158992314 148.13327592205624 C87.41493135498553 147.96115127610656, 51.2871348707006 148.1170880331535, 5.332553465246747 149.03331070033275 M2.667875354204898 150.15357027621505 C6.455219570797739 115.07521519051808, 3.7790297555807366 85.28022948534199, 7.134020518468605 43.70980187245296 M3.1452343445995212 148.07942001907688 C2.596515914465679 124.70642061731857, 2.866197171290012 98.64642861553949, 4.182132831062336 42.88466553791241 M4.5 43.2 C4.5 43.2, 4.5 43.2, 4.5 43.2 M4.5 43.2 C4.5 43.2, 4.5 43.2, 4.5 43.2"/>
    <defs xmlns="http://www.w3.org/2000/svg">
        <marker id="iPointer-79emj0ou077" fill="#000" markerHeight="7" markerUnits="strokeWidth" markerWidth="8" orient="auto" refX="5" refY="5" viewBox="0 0 10 10">
            <path d="M 10 0 L 10 10 L 0 5 z"/>
        </marker>
        <marker id="Pointer-79emj0ou077" fill="#000" markerHeight="7" markerUnits="strokeWidth" markerWidth="8" orient="auto" refX="5" refY="5" viewBox="0 0 10 10">
            <path d="M 0 0 L 10 5 L 0 10 z"/>
        </marker>
        <filter id="dsFilterNoBlur" width="150%" height="150%">
            <feOffset dx="3" dy="3" in="SourceGraphic" result="offOut"/>
            <feColorMatrix in="offOut" result="matrixOut" type="matrix" values="0.2 0 0 0 0 0 0.2 0 0 0 0 0 0.2 0 0 0 0 0 1 0"/>
            <feBlend in="SourceGraphic" in2="matrixOut" mode="normal"/>
        </filter>
        <filter id="dsFilter" width="150%" height="150%">
            <feOffset dx="3" dy="3" in="SourceGraphic" result="offOut"/>
            <feColorMatrix in="offOut" result="matrixOut" type="matrix" values="0.2 0 0 0 0 0 0.2 0 0 0 0 0 0.2 0 0 0 0 0 1 0"/>
            <feGaussianBlur in="matrixOut" result="blurOut" stdDeviation="3"/>
            <feBlend in="SourceGraphic" in2="blurOut" mode="normal"/>
        </filter>
    </defs>
    ??
    <text id="text0" x="44.1" y="92.8" fill="#fff" stroke="none" font-family="xkcd Script" font-size="120%">
        Stateless is Easy, Stateful is Hard.
    </text>
    <text id="text1" x="323.1" y="124.8" fill="#fff" stroke="none" font-family="xkcd Script" font-size="120%">
        -
    </text>
    <text id="text2" x="341.1" y="124.8" fill="#fff" stroke="none" font-family="xkcd Script" font-size="120%">
        Brandon Philips (2016)
    </text>
</svg>
