<svg xmlns="http://www.w3.org/2000/svg" width="613" height="496" version="1.1">
    <path fill="none" stroke="#000" stroke-width="2" d="M6.093316724512261 18.595791411667598 M4.5 18 C7.085388500020054 13.141930746913324, 6.52244752535383 7.14569993796249, 16.54067137126767 8.739645026053768 M6.7454656627651275 15.350968775735964 C2.4422436140725248 8.808021668065605, 9.30040326339372 7.44488359153208, 12.331793466872332 5.033026431620529 M15.444179823416343 8.251158555494621 C143.95333883938648 8.841213432490044, 271.64266830760664 7.782419488552263, 535.4674212089885 7.208749681446061 M14.028708799227315 8.288116406562185 C141.96734098458052 9.717419526547602, 269.48392213035 9.439139974925784, 534.624830767526 7.935059372900141 M534.5 8 C540.4330160738357 9.999105600328766, 542.5678891523872 9.08270389183793, 544.1369481126086 15.500306605926017 M533.8097613651728 10.154830515723734 C538.0805261192562 10.938269736726069, 543.0517295019932 13.011650048862041, 545.4963110021989 19.948697032290948 M545.3848231793024 17.457282301010235 C544.1867672953751 104.96348558392147, 542.1016031956167 191.764080528751, 544.420752854521 444.5558336596818 M544.9248649561358 17.918436658643174 C546.1559612725343 160.23069002928688, 546.1645501930343 302.20540358256227, 543.9185275888335 446.0304576923549 M544.5 446 C541.8350819387008 453.81382967973576, 542.1816754426758 457.7950328012768, 535.3328291774193 457.53197365846137 M546.9349772646099 443.57524439839324 C546.2005181754535 450.51326248446, 538.9018471933855 454.23133437431346, 533.6025486176836 455.2798898247567 M534.9829255797009 455.1073195525445 C369.7553606281424 454.68903543974375, 205.0367971275813 453.68066563937185, 15.027940455359058 455.80187092563807 M533.9970195842837 455.5832446850153 C404.68659621032765 453.541565864742, 273.46809524383843 453.0153060179417, 14.773942246732622 455.60923421569515 M14.5 456 C9.189994626474192 458.65288380669955, 2.856378219506587 455.2550455219064, 2.0612794557984673 446.3295710638704 M15.208399693983665 457.79140195104554 C6.416080029419075 455.54020852085455, 5.5894605491116085 454.824856390191, 7.386990929575386 448.2792977421999 M3.1579274594445943 445.28808824354024 C8.316762887659856 284.83824506932837, 6.535756071639822 125.70349474066995, 4.881762648813071 17.8407557618193 M4.69352108320674 446.06795620252393 C2.267466663895767 356.94931792516195, 1.7391655509587964 267.50151735828, 4.302843335063175 17.53341885106851"/>
    <path fill="#ef5ba1" d="M24.097790081677523 38.5171359735934 L258.1651069304935 40.46662140066546 L256.62261834790263 135.9967328640938 L23.338676124512858 134.1678753542049 L23.85357027621503 41.95349452303926"/>
    <path fill="none" stroke="#000" stroke-width="2" d="M20.917661531179327 39.27730470782226 M21.06940008812578 42.27914152575568 C101.304483813221 37.212041363526644, 174.47313626889118 38.693343237637706, 258.50448873327366 39.6511924509999 M23.26654199936215 39.530345965607516 C99.79528225165718 39.57715305027942, 176.6760172694333 41.719966285449715, 256.9401721087861 40.57356849128257 M257.7349023959963 40.7871466558644 C257.76775230963244 74.46502133900795, 255.8137288151534 106.21267771454733, 256.44501312498613 134.73350075693307 M255.66476663670036 40.47273003215887 C257.07969032986136 68.42768840297576, 255.77479288404564 98.41715265883758, 256.23758599412463 136.93284533661864 M258.35309805740576 134.8400515323358 C161.65331509869267 135.21313372237384, 69.12996703536018 136.39047761767046, 24.70675242033771 134.20027538465376 M255.9931857862472 136.87733845169043 C194.49286750554222 136.97889248942744, 134.83206377912708 135.96899088955817, 23.65494104699613 135.78491273983667 M21.371937201189574 133.6480331214516 C23.575744739390327 109.90618172199174, 23.97767985480762 79.88167330330033, 20.809732262090392 39.164352966539994 M21.910061277256773 135.766080729261 C23.0714207280072 110.70797904680803, 22.67489575383892 87.08454091608382, 22.691664659771412 38.831290459489175"/>
    <path fill="#f99c41" d="M291.7420418036405 39.91914583161706 L528.2483847348561 41.609276781228985 L527.3484139498953 134.4657626974178 L293.70851523267777 135.026671941946 L293.00882584149366 37.9201343034787"/>
    <path fill="none" stroke="#000" stroke-width="2" d="M293.914216061568 37.99183623542122 M290.61136276435235 41.10684881108647 C361.5653746326195 39.42504984147893, 426.01205607231356 43.04313733569298, 528.0919690252737 42.30721971751591 M292.13497173024473 40.63340180267342 C369.28570080688525 40.65980614320699, 444.90971037252785 41.741255733469956, 526.4644112295421 39.30141016281429 M528.2506387164103 42.261890304017285 C524.5161941945876 79.10474060439229, 526.4479233399436 112.81330942523469, 525.0315820501389 136.88514257670758 M525.8693363964943 40.62176368579967 C524.9836002794567 76.07095756300406, 526.6733059076917 114.26776689886947, 526.989279905182 135.41743699644357 M525.766291219477 137.17395874441118 C468.19574149333516 138.4745746817553, 408.106899516711 137.45529391080495, 292.1640068583748 133.7344674746019 M525.9958349549447 135.26930961374626 C443.2163676245 136.45528491729607, 362.27189818570537 135.9136094617054, 292.3756056673059 135.6205531135225 M290.4619604780761 134.57503840312856 C291.171753044019 111.5900805799116, 295.6250874620615 88.80715710881559, 293.5760995828852 41.83737620779575 M291.35526884108987 137.32745568348182 C291.79049363207906 112.84496689740736, 291.22905790141266 87.52690455123374, 293.12373384554013 40.4782786901073"/>
    <path fill="#fff" d="M111.08604334855809 169.18258470706934 L427.4435409087913 166.7993702881591 L427.33288933188305 261.8067860788375 L113.32982546638668 266.5950988443743 L110.42809058621133 169.02583683627745"/>
    <path fill="none" stroke="#000" stroke-width="2" d="M112.16188867195123 166.1547606812863 M112.80066842032555 166.4806937424456 C188.51231321989837 168.3052861068018, 265.20015488786805 169.6394925746043, 427.97656794119456 167.8879312552398 M111.54917809878043 168.47389646874365 C210.04918994114988 165.57403850883486, 308.5229967114243 165.75493085218585, 428.3841699109905 168.51933037041167 M429.3871599360653 167.33629418029741 C427.22744629606757 191.3859605665795, 426.18965088312046 213.69637620884106, 429.7031957952364 261.93945307438554 M428.0039736887542 169.1121392786775 C428.677545065985 202.27140098982971, 427.3861794707893 234.52397830214977, 427.49442323294863 262.9487415707541 M426.0180872063454 262.6337810578056 C325.65339919558363 265.11749504991786, 222.98280279028955 262.62547280024563, 111.67543332484522 263.4334667805003 M428.37224132845824 263.75347183824306 C359.0617392145048 264.28035420017596, 292.19183924399306 263.9204357440667, 112.06242182654407 263.00927436819666 M112.92254923542824 262.83012052695415 C112.64158256634849 225.63174002525045, 110.88774029047347 189.50798220136784, 111.28513911706978 166.7968175882357 M111.17085595402314 263.1641527517313 C114.7583137835786 240.70725112650396, 114.7548844935768 221.1095893101199, 112.16465402954927 169.3660774969183"/>
    <path fill="#27bdce" d="M25.22870704219895 294.896106238784 L255.28934607054308 293.43521551327433 L256.83759122466495 391.5052613997892 L19.904791562329773 394.32955743755304 L23.357379681637394 294.89967458968823"/>
    <path fill="none" stroke="#000" stroke-width="2" d="M20.59196061528928 298.5974413753778 M21.448848322884096 294.96736641277096 C104.57069480520255 300.26205165167386, 188.74063289540953 298.73528040461963, 255.3206693527629 296.1938587491663 M21.425831442552745 296.24320264866526 C91.87525129656211 294.5659948626497, 161.1936148231352 293.50082429447133, 256.7649252578611 296.5864439991412 M255.95679746277747 295.9451510243656 C259.4355902979757 320.76542189960384, 259.6739453853489 343.5859777874604, 256.19734366624 389.879622965843 M257.818931496084 295.8213112249694 C259.00675745961405 324.5359822013015, 258.42562429634444 354.764680754481, 257.56129114831566 391.3035886484002 M255.21529317111674 390.447780980034 C178.17828005748098 389.92169801514353, 103.13474878492612 391.94605602471637, 23.187041944554576 390.5200782614826 M255.47648210317357 392.7580006704373 C206.77107777207536 388.4507471198202, 155.8980515691517 388.91649827428756, 22.425401842233356 391.6632327663838 M21.51514293300206 389.90958321595537 C21.70537552414724 352.82523971702176, 21.645747018158435 318.9660132717927, 21.24587368571374 294.396209771988 M23.77584997392332 391.8714436737493 C23.809755345541074 359.5186986960674, 23.497899345737853 329.69892078409464, 23.12573169235293 295.3067816838693"/>
    <path fill="#00aa5b" d="M293.9603243422942 294.47839089068003 L524.4369695004698 294.26631332382385 L526.5283317418318 389.83659498455563 L293.38206059020706 392.632563712963 L295.12337152500334 296.3399858340739"/>
    <path fill="none" stroke="#000" stroke-width="2" d="M293.74152923136137 296.89425613187416 M290.8753989170325 294.5181651550311 C351.19220029209976 298.40608488624446, 414.4324382603689 296.8243279008925, 525.3388796009456 297.5449508584615 M292.08333580047747 296.54568248908123 C347.04204881921953 296.3524416549724, 402.77855445430424 296.58929553037615, 526.5138274648465 296.0486495892775 M527.1511631231122 297.83237151628566 C525.7597149581384 329.4355654120991, 525.3391217234855 355.7177072889562, 527.3563587216173 394.4836771689046 M525.6170869969184 294.9793054297328 C527.21567742943 325.28534901708554, 525.8714127265741 354.95284144584656, 526.4914154678594 392.22252580818713 M527.6592960109275 390.76801911611994 C445.4936277889315 391.9978143946997, 362.2146916953025 392.6621512756668, 294.79626796000974 392.3543900262527 M525.8693371929623 392.2506372379437 C459.64557459814677 392.7344533970705, 390.55570430229704 393.30216182519024, 291.335133301381 393.1567505621754 M294.39680886017993 391.0106873673605 C293.17399600011674 360.1822462153312, 292.02254792151695 329.5028450739017, 294.16212010752497 293.63330567796095 M293.3795709692007 391.0329188711876 C290.9297684452008 367.25700342764867, 290.6568116677495 343.8101947508905, 292.102580993616 295.72593303204593"/>
    <defs xmlns="http://www.w3.org/2000/svg">
        <marker id="iPointer-jjhclu0bdel" fill="#000" markerHeight="7" markerUnits="strokeWidth" markerWidth="8" orient="auto" refX="5" refY="5" viewBox="0 0 10 10">
            <path d="M 10 0 L 10 10 L 0 5 z"/>
        </marker>
        <marker id="Pointer-jjhclu0bdel" fill="#000" markerHeight="7" markerUnits="strokeWidth" markerWidth="8" orient="auto" refX="5" refY="5" viewBox="0 0 10 10">
            <path d="M 0 0 L 10 5 L 0 10 z"/>
        </marker>
        <filter id="dsFilterNoBlur" width="150%" height="150%">
            <feOffset dx="3" dy="3" in="SourceGraphic" result="offOut"/>
            <feColorMatrix in="offOut" result="matrixOut" type="matrix" values="0.2 0 0 0 0 0 0.2 0 0 0 0 0 0.2 0 0 0 0 0 1 0"/>
            <feBlend in="SourceGraphic" in2="matrixOut" mode="normal"/>
        </filter>
        <filter id="dsFilter" width="150%" height="150%">
            <feOffset dx="3" dy="3" in="SourceGraphic" result="offOut"/>
            <feColorMatrix in="offOut" result="matrixOut" type="matrix" values="0.2 0 0 0 0 0 0.2 0 0 0 0 0 0.2 0 0 0 0 0 1 0"/>
            <feGaussianBlur in="matrixOut" result="blurOut" stdDeviation="3"/>
            <feBlend in="SourceGraphic" in2="blurOut" mode="normal"/>
        </filter>
    </defs>
    ??
    <text id="text7" x="98.1" y="428.8" fill="#000" stroke="none" font-family="xkcd Script" font-size="120%">
        Cloud Native Computing Foundation (CNCF)
    </text>
    <text id="text1" x="80.1" y="92.8" fill="#fff" stroke="none" font-family="xkcd Script" font-size="120%">
        Microsoft
    </text>
    <text id="text0" x="368.1" y="76.8" fill="#fff" stroke="none" font-family="xkcd Script" font-size="120%">
        IBM
    </text>
    <text id="text2" x="368.1" y="92.8" fill="#fff" stroke="none" font-family="xkcd Script" font-size="120%">
        Red Hat
    </text>
    <text id="text3" x="368.1" y="108.8" fill="#fff" stroke="none" font-family="xkcd Script" font-size="120%">
        CoreOS
    </text>
    <text id="text4" x="242.1" y="220.8" fill="#000" stroke="none" font-family="xkcd Script" font-size="120%">
        Google
    </text>
    <text id="text5" x="98.1" y="348.8" fill="#fff" stroke="none" font-family="xkcd Script" font-size="120%">
        VMware
    </text>
    <text id="text6" x="368.1" y="348.8" fill="#fff" stroke="none" font-family="xkcd Script" font-size="120%">
        Alibaba
    </text>
</svg>
