<svg xmlns="http://www.w3.org/2000/svg" width="802" height="256" version="1.1">
    <path fill="#ef5ba1" d="M6.093316724512261 34.5957914116676 L9.040671371267672 27.23964502605377 L17.085388500020052 25.808597413579992 L786.1891141920205 23.14569993796249 L789.7454656627651 85.35096877573596 L2.614603014671593 85.42002298401785 L2.7106466209326303 31.80407681281067"/>
    <path fill="none" stroke="#000" stroke-width="2" d="M5.775712982661207 33.51729007959311 M4.5 34 C3.85730170811089 29.69378289187419, 8.461229722069886 26.554039287015076, 13.015554322092793 24.909467129811674 M4.932018022313423 34.69805514611435 C2.2251553341574257 25.56039830079449, 5.126267945071644 21.81047807428349, 11.952788136839317 26.781335975842012 M13.9746602657123 24.492840151407872 C180.26308362723918 23.487561165451524, 348.0600836753413 23.09267887544297, 786.5001226423705 23.706539762867614 M14.361952273034548 24.430966103144748 C301.7628653734339 27.818376948254667, 588.1424676943793 27.990476549025992, 787.2481268699119 24.291881167918035 M789.2017676134535 22.95619890505477 C788.4698869347776 37.616097149145936, 784.459521003245 50.91890908987323, 787.3475851121563 85.22245578113052 M788.3171366204639 23.84313040615016 C788.6187123273048 45.90475141843344, 788.6352312737828 67.31718698566401, 786.3816625280772 88.05857883884892 M787.9588652052277 88.40600351040368 C530.0285400519649 84.80072922184934, 270.15115162226573 83.51458131346052, 4.249526895567542 88.59148458276643 M787.5996769504418 87.94668193999533 C604.5292198497303 85.83300159869819, 421.98132901029925 85.8470775362877, 4.974516114808211 88.52411539052831 M3.113365241977135 89.70585921732727 C1.5431883054977957 69.57118978041798, 2.0598636177091687 58.34622295322842, 5.730179136811057 31.322592586374594 M3.2806397278992336 88.1647855319352 C4.80850861348139 75.82860209078791, 3.3083670766642532 62.29850980249611, 4.854199846991833 34.89570097552278"/>
    <path fill="#f99c41" d="M7.010426895282944 89.98199803669559 L786.2676058226832 87.60018132248224 L788.4473569992275 153.87668671610808 L6.559295851350907 149.51912171088625 L5.4252142360346625 85.41881130846613"/>
    <path fill="none" stroke="#000" stroke-width="2" d="M3.130790423307917 90.0316452777187 M4.793695430668304 87.87749114466976 C169.31604857492334 90.65726196626203, 336.6422897547233 89.92684245824583, 787.6045593445504 88.96555637886777 M4.348324576021842 87.6410524918999 C242.43344076315847 89.79160700683855, 480.0607868797447 90.18150409225295, 787.5245236695805 87.99934657281875 M789.4534945230392 86.41766153117933 C786.1910248211678 109.88209616555105, 789.5477406318141 130.74374987022603, 785.8035750481628 154.70263720902585 M787.0235083608313 89.1884750846752 C786.4261395981994 113.60126438760562, 786.315082811606 138.0661192126181, 788.4089759922084 151.4430778192691 M789.578255281449 152.8333638695526 C705.1252638792109 153.45774712287528, 618.3473442611032 150.59677283084483, 527.4858215948019 152.62837854565922 M786.3830745596272 151.97805201083298 C684.371030010814 152.65185856928775, 582.2777451763701 153.79360054613974, 525.8332338742646 152.3773800064884 M528.6525459280467 151.5810302180818 C439.43469779514106 152.6092270503042, 350.4810995061169 149.0114128678405, 267.25420584011886 150.9019532085301 M527.5130840074133 153.04449356254577 C467.2913607440331 149.98040152958572, 409.496953931565 150.6716765655229, 265.0202323751475 152.8305185090263 M264.2277461593146 154.18661319247173 C205.61593607250344 153.30663299050718, 147.70712123331035 152.93801011158797, 3.5994683701598773 150.12242672242832 M265.12093728106004 151.32533030852048 C170.33287895911548 153.78999033650092, 74.84130406011599 155.32612290552086, 4.02905238958506 151.8132624333045 M5.495031868196747 152.38332931954284 C2.537322323256551 134.88078266797837, 4.793887235895265 121.02586646353194, 6.109276781228982 88.84841394989526 M4.7544129207468355 150.96006715173934 C4.820383156327123 135.30274623789845, 3.958365798017847 119.98071886766921, 4.1008940717505995 86.8802140609235"/>
    <path fill="#27bdce" d="M5.8125164663113535 153.72485303343564 L263.8843083623011 149.9727964764781 L268.1746860228686 217.8877786546822 L7.235932713037254 216.7132100070623 L4.445210574405792 150.76482108962372"/>
    <path fill="none" stroke="#000" stroke-width="2" d="M3.6342889653507884 153.50219305016756 M5.48932509523169 151.93262091152653 C95.30092498973589 153.74567601849978, 189.25513393715048 152.25550032957884, 266.8975334867994 153.80566522018475 M3.8340143363432952 151.41388156268016 C61.8139061535894 153.37498167723498, 118.04732290140984 151.88435407087402, 264.9965417498523 152.49635345296292 M264.3912909058601 152.9785598103641 C263.47720797050914 164.92300991321827, 265.160791876634 182.4540177492254, 264.62995808798104 217.39209634358048 M265.3054674544481 151.80078736746447 C264.4190261032904 172.46327463479028, 266.695583127102 191.90115678980837, 264.9021541905762 215.1335373412092 M263.65000719038 215.7644881618459 C202.88282029961977 216.74766593955627, 140.98800308335905 218.24514855359376, 2.873034680079745 214.86245429718682 M264.97168941189875 216.4295247180688 C204.3187481101914 218.2242492945317, 141.7287545925162 217.9556858235918, 3.5861620316269587 217.05970681015899 M2.692117408994818 217.24746769108023 C5.053649236829518 198.31046300845227, 5.279676563684246 183.39238022857973, 3.2993702881591163 151.83288933188305 M3.4640452931056647 216.51291841813872 C4.06540018673188 200.8904407318718, 3.4633181986823036 188.84514474883946, 3.591317941906527 152.2122489173431"/>
    <path fill="#27bdce" d="M263.35497187945873 150.3946033437656 L524.0686688189119 149.74294956203957 L525.9523643396893 216.6728410615884 L265.34177606868326 216.272517966693 L267.22367998070223 154.75844937093171"/>
    <path fill="none" stroke="#000" stroke-width="2" d="M262.8151697288136 153.3381387019581 M267.37578504554256 153.99305408675457 C344.53274495713003 148.29082651367816, 422.0735337070604 148.71369061247424, 528.006518267233 151.47016417509607 M264.4760057799155 152.87940472039028 C335.67656443435664 154.48667755810894, 408.4843505175698 153.87494776878964, 526.9023217925535 152.88781989645682 M524.0916634807581 151.9888464658972 C524.6581728752326 171.87352174158585, 525.6921198090026 190.1274891220106, 524.4077657326998 214.0711077603666 M525.6829260448827 151.4179189690447 C526.7030169263832 172.17054219947067, 527.9237503003802 194.63920222033994, 527.7314713825065 215.65193993189678 M526.710950417856 215.01363193200734 C463.4740406399846 218.50386984956006, 403.0163424358846 218.53800732302224, 265.83732071660296 215.06608615257105 M525.9412121749007 215.51508876452274 C457.03916202159024 212.3391481297614, 387.6148979347759 212.93245387180664, 264.43894537141193 215.3327438103849 M267.70091694411093 215.32930805909854 C269.0624361410547 194.28417746823033, 265.2263873860021 165.90028692260586, 262.93521551327433 152.33759122466495 M265.9286898408187 215.44983729484412 C265.3764470076991 199.22955177388502, 267.1312523367922 179.28144628844203, 264.4504661785475 151.37676497865542"/>
    <path fill="#00aa5b" d="M525.2754889617003 150.20483802125528 L790.0980900282935 150.8989874559251 L788.2876237911908 214.6015335805394 L526.7298803575255 215.95522478759523 L525.3829184732604 153.89017998716736"/>
    <path fill="none" stroke="#000" stroke-width="2" d="M523.9524724513016 152.57678605754717 M525.299284295654 152.5015745741869 C595.9498776897535 153.0753601679364, 663.8628322674211 153.90337459167088, 787.0663618490972 151.95621410663026 M526.9311935511438 151.8791948454422 C627.4857411087795 149.22072360586432, 731.2817723440414 148.50214340463137, 788.5529019581787 151.85735289384408 M786.426884006791 154.1225822966313 C785.393809505286 177.2594192944496, 788.3168019724532 201.0303721922115, 785.9765770623751 214.159357445551 M787.4684944897435 152.4073518696692 C785.8342170917357 164.85781596637824, 788.0150216330653 178.859953439544, 786.2862984721189 216.89884756748978 M786.1854790980469 215.85876567784055 C691.109215835273 219.09814956471857, 595.6735461868154 216.04575834677647, 525.7137893913012 214.33122195363057 M788.2779329720288 215.49941598330315 C717.7607853082144 215.214328931814, 648.3913078598343 214.43729143041173, 527.518510013503 215.89737358759913 M527.5691170217615 217.25146338470586 C525.7941921296839 197.27862513285947, 525.6590196526253 173.5735710816003, 524.7663133238239 152.02833174183178 M527.8116857625016 216.16999291703695 C526.8385052268144 202.19205381552422, 525.6384656388724 187.76297804213826, 525.2873853330659 151.03676290238363"/>
    <defs xmlns="http://www.w3.org/2000/svg">
        <marker id="iPointer-6pc6hbukyad" fill="#000" markerHeight="7" markerUnits="strokeWidth" markerWidth="8" orient="auto" refX="5" refY="5" viewBox="0 0 10 10">
            <path d="M 10 0 L 10 10 L 0 5 z"/>
        </marker>
        <marker id="Pointer-6pc6hbukyad" fill="#000" markerHeight="7" markerUnits="strokeWidth" markerWidth="8" orient="auto" refX="5" refY="5" viewBox="0 0 10 10">
            <path d="M 0 0 L 10 5 L 0 10 z"/>
        </marker>
        <filter id="dsFilterNoBlur" width="150%" height="150%">
            <feOffset dx="3" dy="3" in="SourceGraphic" result="offOut"/>
            <feColorMatrix in="offOut" result="matrixOut" type="matrix" values="0.2 0 0 0 0 0 0.2 0 0 0 0 0 0.2 0 0 0 0 0 1 0"/>
            <feBlend in="SourceGraphic" in2="matrixOut" mode="normal"/>
        </filter>
        <filter id="dsFilter" width="150%" height="150%">
            <feOffset dx="3" dy="3" in="SourceGraphic" result="offOut"/>
            <feColorMatrix in="offOut" result="matrixOut" type="matrix" values="0.2 0 0 0 0 0 0.2 0 0 0 0 0 0.2 0 0 0 0 0 1 0"/>
            <feGaussianBlur in="matrixOut" result="blurOut" stdDeviation="3"/>
            <feBlend in="SourceGraphic" in2="blurOut" mode="normal"/>
        </filter>
    </defs>
    ??
    <text id="text0" x="341.1" y="60.8" fill="#fff" stroke="none" font-family="xkcd Script" font-size="120%">
        Kubernetes
    </text>
    <text id="text1" x="269.1" y="124.8" fill="#fff" stroke="none" font-family="xkcd Script" font-size="120%">
        Role-based access control
    </text>
    <text id="text2" x="8.1" y="188.8" fill="#fff" stroke="none" font-family="xkcd Script" font-size="120%">
        Container runtime interface
    </text>
    <text id="text3" x="269.1" y="188.8" fill="#fff" stroke="none" font-family="xkcd Script" font-size="120%">
        Container network interface
    </text>
    <text id="text4" x="530.1" y="188.8" fill="#fff" stroke="none" font-family="xkcd Script" font-size="120%">
        Container storage interface
    </text>
</svg>
