<svg xmlns="http://www.w3.org/2000/svg" width="487" height="320" version="1.1">
    <path fill="#f99c41" d="M6.093316724512261 66.19579141166759 L474.54067137126765 66.33964502605376 L475.08538850002003 240.20859741358 L143.5891141920205 237.5456999379625 L100.34546566276512 293.35096877573596 L96.21460301467158 235.82002298401787 L2.7106466209326303 236.20407681281068 L5.775712982661207 65.1172900795931"/>
    <path fill="none" stroke="#000" stroke-width="2" d="M3.015554322092794 66.50946712981167 M5.657673474088182 65.79582150020283 C134.4741656942495 63.93003665183436, 264.91177564074445 64.03738996950035, 471.8011990444392 64.53301229578956 M4.611720069175097 65.3023480226198 C113.35637279921066 63.45904615890484, 221.79572509280345 63.998449325435914, 472.41771944505956 65.03347998787932 M470.2493705585046 64.90976136517274 C476.3820577544078 113.77868516317393, 475.9217463971979 157.5410550639059, 475.0550171623705 237.14063434955938 M472.11374957838854 66.45088380672678 C469.616459184551 127.06978854879125, 470.4702710949251 185.91122447878152, 473.0071801215937 238.32379255607813 M470.86177055992175 239.52322017872467 C406.50163745406223 240.7164533178036, 341.8833789641383 240.7391599418255, 146.1209606473564 236.8627549621083 M471.5842138064379 238.7942170171722 C373.19805802416846 240.74152200503508, 274.03527849356396 239.29141214416003, 144.6318218922884 238.18481532487903 M143.36202989070736 238.89838475220895 C127.58256181374877 256.0880053473474, 112.5449054850363 276.35129877649484, 99.37769363719998 298.3725805740411 M144.65233865704758 237.70668262098857 C127.29009936544738 260.07952038253745, 106.75961152522065 283.0087591983629, 99.18701961761471 296.61508956840555 M96.14617107847589 293.56127945579846 C98.83309365186115 285.5844708297417, 101.1564063946903 270.81199729270827, 100.6883788552397 239.10839969398367 M97.48380291134163 295.80009066124114 C97.85067555377225 275.9731736301889, 98.40664497983396 252.82922139971282, 98.56260711801733 237.1094056542331 M96.70626064750104 237.3597155685413 C75.33131059018429 236.93805028965858, 48.521540130162535 239.81476379447838, 5.630273718462559 239.14439259645368 M98.29087158992314 237.73327592205624 C68.76699406059801 237.54804977319085, 40.991260281925555 237.70398653023778, 5.332553465246747 238.63331070033274 M2.667875354204898 239.75357027621504 C6.456317328462225 184.22093115555182, 3.780127513245222 133.97166141540947, 7.134020518468605 66.10980187245295 M3.1452343445995212 237.67942001907687 C1.6884298122329926 198.21784050172795, 1.9581110690573258 156.06926838435828, 4.182132831062336 65.2846655379124 M4.5 65.6 C4.5 65.6, 4.5 65.6, 4.5 65.6 M4.5 65.6 C4.5 65.6, 4.5 65.6, 4.5 65.6"/>
    <defs xmlns="http://www.w3.org/2000/svg">
        <marker id="iPointer-79emj0ou077" fill="#000" markerHeight="7" markerUnits="strokeWidth" markerWidth="8" orient="auto" refX="5" refY="5" viewBox="0 0 10 10">
            <path d="M 10 0 L 10 10 L 0 5 z"/>
        </marker>
        <marker id="Pointer-79emj0ou077" fill="#000" markerHeight="7" markerUnits="strokeWidth" markerWidth="8" orient="auto" refX="5" refY="5" viewBox="0 0 10 10">
            <path d="M 0 0 L 10 5 L 0 10 z"/>
        </marker>
        <filter id="dsFilterNoBlur" width="150%" height="150%">
            <feOffset dx="3" dy="3" in="SourceGraphic" result="offOut"/>
            <feColorMatrix in="offOut" result="matrixOut" type="matrix" values="0.2 0 0 0 0 0 0.2 0 0 0 0 0 0.2 0 0 0 0 0 1 0"/>
            <feBlend in="SourceGraphic" in2="matrixOut" mode="normal"/>
        </filter>
        <filter id="dsFilter" width="150%" height="150%">
            <feOffset dx="3" dy="3" in="SourceGraphic" result="offOut"/>
            <feColorMatrix in="offOut" result="matrixOut" type="matrix" values="0.2 0 0 0 0 0 0.2 0 0 0 0 0 0.2 0 0 0 0 0 1 0"/>
            <feGaussianBlur in="matrixOut" result="blurOut" stdDeviation="3"/>
            <feBlend in="SourceGraphic" in2="blurOut" mode="normal"/>
        </filter>
    </defs>
    ??
    <text id="text0" x="17.1" y="92.8" fill="#fff" stroke="none" font-family="xkcd Script" font-size="120%">
        K8s would *not* be what it is today without
    </text>
    <text id="text1" x="17.1" y="124.8" fill="#fff" stroke="none" font-family="xkcd Script" font-size="120%">
        neutral IP ownership... K8s has spawned an entire
    </text>
    <text id="text2" x="17.1" y="156.8" fill="#fff" stroke="none" font-family="xkcd Script" font-size="120%">
        ecosystem *because* it can be used by consuming
    </text>
    <text id="text3" x="17.1" y="188.8" fill="#fff" stroke="none" font-family="xkcd Script" font-size="120%">
        projects/products without fear.
    </text>
    <text id="text4" x="269.1" y="220.8" fill="#fff" stroke="none" font-family="xkcd Script" font-size="120%">
        -
    </text>
    <text id="text5" x="287.1" y="220.8" fill="#fff" stroke="none" font-family="xkcd Script" font-size="120%">
        Matt Klein
    </text>
</svg>
